# Blender 5.2.1 LTS
# www.blender.org
mtllib meeple.mtl
o Curve_Curve.002
v 0.679409 0.562659 -0.655395
v 0.691910 0.535959 -0.655395
v 0.680507 0.564436 -0.655395
v 0.676419 0.557542 -0.655395
v 0.671794 0.549657 -0.655395
v 0.665342 0.539924 -0.655395
v 0.656819 0.529366 -0.655395
v 0.412933 0.543028 -0.655395
v 0.504419 0.444661 -0.655395
v 0.413485 0.543871 -0.655395
v 0.411239 0.540140 -0.655395
v 0.408327 0.534667 -0.655395
v 0.646467 0.518680 -0.655395
v 0.701073 0.508373 -0.655395
v 0.404084 0.526081 -0.655395
v 0.635312 0.507301 -0.655395
v 0.398425 0.513819 -0.655395
v 0.624925 0.494298 -0.655395
v 0.391379 0.497236 -0.655395
v 0.708688 0.480623 -0.655395
v 0.615174 0.482876 -0.655395
v 0.383279 0.475517 -0.655395
v 0.606012 0.472418 -0.655395
v 0.714984 0.453316 -0.655395
v 0.597458 0.461943 -0.655395
v 0.375021 0.447588 -0.655395
v 0.588936 0.451573 -0.655395
v 0.719619 0.426181 -0.655395
v 0.586085 0.450649 -0.655395
v 0.582404 0.450001 -0.655395
v 0.577638 0.449120 -0.655395
v 0.573566 0.448325 -0.655395
v 0.569206 0.447729 -0.655395
v 0.567578 0.447506 -0.655395
v 0.560822 0.446509 -0.655395
v 0.544359 0.445141 -0.655395
v 0.529067 0.444462 -0.655395
v 0.516320 0.444366 -0.655395
v 0.507617 0.444546 -0.655395
v 0.368340 0.412231 -0.655395
v 0.722547 0.399458 -0.655395
v 0.365188 0.368861 -0.655395
v 0.724375 0.373553 -0.655395
v 0.726064 0.348886 -0.655395
v 0.364334 0.318814 -0.655395
v 0.728659 0.325775 -0.655395
v 0.730602 0.303866 -0.655395
v 0.361391 0.263295 -0.655395
v 0.731719 0.282836 -0.655395
v 0.732662 0.262674 -0.655395
v 0.322195 0.271596 -0.655395
v 0.329857 0.271507 -0.655395
v 0.325780 0.271773 -0.655395
v 0.765033 0.271386 -0.655395
v 0.773160 0.271618 -0.655395
v 0.769352 0.271735 -0.655395
v 0.776313 0.270955 -0.655395
v 0.319229 0.270906 -0.655395
v 0.334297 0.270871 -0.655395
v 0.760349 0.270653 -0.655395
v 0.778667 0.269666 -0.655395
v 0.317012 0.269630 -0.655395
v 0.338973 0.269937 -0.655395
v 0.755443 0.269614 -0.655395
v 0.343755 0.268775 -0.655395
v 0.780076 0.267669 -0.655395
v 0.315670 0.267697 -0.655395
v 0.750461 0.268352 -0.655395
v 0.348516 0.267459 -0.655395
v 0.745548 0.266947 -0.655395
v 0.315050 0.264133 -0.655395
v 0.780696 0.264105 -0.655395
v 0.353128 0.266059 -0.655395
v 0.740847 0.265478 -0.655395
v 0.357462 0.264647 -0.655395
v 0.736503 0.264027 -0.655395
v 0.315428 0.259851 -0.655395
v 0.780318 0.259823 -0.655395
v 0.316623 0.255046 -0.655395
v 0.779123 0.255017 -0.655395
v 0.318456 0.249914 -0.655395
v 0.777291 0.249886 -0.655395
v 0.320746 0.244652 -0.655395
v 0.775000 0.244624 -0.655395
v 0.323315 0.239455 -0.655395
v 0.772431 0.239427 -0.655395
v 0.325982 0.234520 -0.655395
v 0.769765 0.234492 -0.655395
v 0.328567 0.230043 -0.655395
v 0.767180 0.230015 -0.655395
v 0.330891 0.226219 -0.655395
v 0.764856 0.226191 -0.655395
v 0.332773 0.223246 -0.655395
v 0.762973 0.223217 -0.655395
v 0.334034 0.221318 -0.655395
v 0.761712 0.221289 -0.655395
v 0.334495 0.220631 -0.655395
v 0.761252 0.220603 -0.655395
v 0.279795 0.220511 -0.655395
v 0.287021 0.219973 -0.655395
v 0.282706 0.220631 -0.655395
v 0.333775 0.220571 -0.655395
v 0.761971 0.220543 -0.655395
v 0.808725 0.219945 -0.655395
v 0.815952 0.220489 -0.655395
v 0.813041 0.220603 -0.655395
v 0.331748 0.220414 -0.655395
v 0.763998 0.220386 -0.655395
v 0.278768 0.218763 -0.655395
v 0.816978 0.218744 -0.655395
v 0.328609 0.220191 -0.655395
v 0.767137 0.220163 -0.655395
v 0.324555 0.219935 -0.655395
v 0.771191 0.219907 -0.655395
v 0.291991 0.219544 -0.655395
v 0.803756 0.219516 -0.655395
v 0.319782 0.219680 -0.655395
v 0.775965 0.219651 -0.655395
v 0.314485 0.219457 -0.655395
v 0.781262 0.219428 -0.655395
v 0.297418 0.219310 -0.655395
v 0.798329 0.219282 -0.655395
v 0.308861 0.219299 -0.655395
v 0.786885 0.219271 -0.655395
v 0.303107 0.219239 -0.655395
v 0.792640 0.219211 -0.655395
v 0.279420 0.215653 -0.655395
v 0.816327 0.215636 -0.655395
v 0.281543 0.211448 -0.655395
v 0.814204 0.211433 -0.655395
v 0.284929 0.206416 -0.655395
v 0.810817 0.206400 -0.655395
v 0.289374 0.200823 -0.655395
v 0.806373 0.200805 -0.655395
v 0.294668 0.194936 -0.655395
v 0.801079 0.194916 -0.655395
v 0.300606 0.189022 -0.655395
v 0.795141 0.189000 -0.655395
v 0.306979 0.183348 -0.655395
v 0.788767 0.183324 -0.655395
v 0.313583 0.178181 -0.655395
v 0.782164 0.178154 -0.655395
v 0.320208 0.173787 -0.655395
v 0.775539 0.173759 -0.655395
v 0.326649 0.170434 -0.655395
v 0.769098 0.170405 -0.655395
v 0.326480 0.170306 -0.655395
v 0.769267 0.170277 -0.655395
v 0.325951 0.169933 -0.655395
v 0.769795 0.169905 -0.655395
v 0.325030 0.169332 -0.655395
v 0.770716 0.169304 -0.655395
v 0.323684 0.168519 -0.655395
v 0.772062 0.168491 -0.655395
v 0.321881 0.167510 -0.655395
v 0.773866 0.167482 -0.655395
v 0.319586 0.166321 -0.655395
v 0.776160 0.166293 -0.655395
v 0.316768 0.164969 -0.655395
v 0.778978 0.164940 -0.655395
v 0.313395 0.163469 -0.655395
v 0.782352 0.163441 -0.655395
v 0.309432 0.161839 -0.655395
v 0.786314 0.161811 -0.655395
v 0.304848 0.160094 -0.655395
v 0.790898 0.160066 -0.655395
v 0.299610 0.158251 -0.655395
v 0.796137 0.158222 -0.655395
v 0.293685 0.156325 -0.655395
v 0.802062 0.156297 -0.655395
v 0.289072 0.153970 -0.655395
v 0.806733 0.153895 -0.655395
v 0.286787 0.150657 -0.655395
v 0.808998 0.150506 -0.655395
v 0.286679 0.146557 -0.655395
v 0.809019 0.146309 -0.655395
v 0.288593 0.141839 -0.655395
v 0.806956 0.141482 -0.655395
v 0.292377 0.136675 -0.655395
v 0.802970 0.136204 -0.655395
v 0.297879 0.131233 -0.655395
v 0.797222 0.130655 -0.655395
v 0.304946 0.125685 -0.655395
v 0.789872 0.125012 -0.655395
v 0.313424 0.120199 -0.655395
v 0.781081 0.119456 -0.655395
v 0.323161 0.114947 -0.655395
v 0.771010 0.114165 -0.655395
v 0.334005 0.110098 -0.655395
v 0.759819 0.109317 -0.655395
v 0.345802 0.105822 -0.655395
v 0.747670 0.105092 -0.655395
v 0.358400 0.102290 -0.655395
v 0.734722 0.101669 -0.655395
v 0.358338 0.095057 -0.655395
v 0.734249 0.086530 -0.655395
v 0.358282 0.087750 -0.655395
v 0.358231 0.080367 -0.655395
v 0.733678 0.072853 -0.655395
v 0.358184 0.072908 -0.655395
v 0.358143 0.065371 -0.655395
v 0.733036 0.060610 -0.655395
v 0.358107 0.057757 -0.655395
v 0.732350 0.049774 -0.655395
v 0.358076 0.050063 -0.655395
v 0.358050 0.042290 -0.655395
v 0.731647 0.040316 -0.655395
v 0.358030 0.034437 -0.655395
v 0.730951 0.032210 -0.655395
v 0.358016 0.026503 -0.655395
v 0.730290 0.025426 -0.655395
v 0.358007 0.018487 -0.655395
v 0.729690 0.019938 -0.655395
v 0.729178 0.015718 -0.655395
v 0.358004 0.010388 -0.655395
v 0.728779 0.012738 -0.655395
v 0.728521 0.010971 -0.655395
v 0.728429 0.010388 -0.655395
v 0.365293 0.010388 -0.655395
v 0.385443 0.010388 -0.655395
v 0.415883 0.010388 -0.655395
v 0.454040 0.010388 -0.655395
v 0.497342 0.010388 -0.655395
v 0.543216 0.010388 -0.655395
v 0.589091 0.010388 -0.655395
v 0.632393 0.010388 -0.655395
v 0.670550 0.010388 -0.655395
v 0.700990 0.010388 -0.655395
v 0.721140 0.010388 -0.655395
v 0.691874 0.535950 -0.835395
v 0.679409 0.562659 -0.835395
v 0.680507 0.564436 -0.835395
v 0.676413 0.557545 -0.835395
v 0.671774 0.549667 -0.835395
v 0.665293 0.539950 -0.835395
v 0.656728 0.529420 -0.835395
v 0.504066 0.444919 -0.835395
v 0.413176 0.542939 -0.835395
v 0.413725 0.543783 -0.835395
v 0.411495 0.540046 -0.835395
v 0.408606 0.534566 -0.835395
v 0.646321 0.518783 -0.835395
v 0.700964 0.508333 -0.835395
v 0.404399 0.525969 -0.835395
v 0.635094 0.507444 -0.835395
v 0.398787 0.513694 -0.835395
v 0.624631 0.494447 -0.835395
v 0.391797 0.497103 -0.835395
v 0.708491 0.480556 -0.835395
v 0.614799 0.483021 -0.835395
v 0.383750 0.475388 -0.835395
v 0.605565 0.472570 -0.835395
v 0.714716 0.453231 -0.835395
v 0.596942 0.462115 -0.835395
v 0.375512 0.447485 -0.835395
v 0.588365 0.451778 -0.835395
v 0.719312 0.426093 -0.835395
v 0.585512 0.450856 -0.835395
v 0.581831 0.450218 -0.835395
v 0.577073 0.449353 -0.835395
v 0.573026 0.448579 -0.835395
v 0.568711 0.448000 -0.835395
v 0.566447 0.447686 -0.835395
v 0.559739 0.446708 -0.835395
v 0.543433 0.445382 -0.835395
v 0.528334 0.444731 -0.835395
v 0.515774 0.444639 -0.835395
v 0.507210 0.444811 -0.835395
v 0.368783 0.412174 -0.835395
v 0.722243 0.399380 -0.835395
v 0.365485 0.368847 -0.835395
v 0.724125 0.373494 -0.835395
v 0.725923 0.348856 -0.835395
v 0.364355 0.318813 -0.835395
v 0.728659 0.325775 -0.835395
v 0.730602 0.303866 -0.835395
v 0.361391 0.263295 -0.835395
v 0.731719 0.282836 -0.835395
v 0.732662 0.262674 -0.835395
v 0.329857 0.271507 -0.835395
v 0.322195 0.271596 -0.835395
v 0.325780 0.271773 -0.835395
v 0.773160 0.271618 -0.835395
v 0.765033 0.271386 -0.835395
v 0.769352 0.271735 -0.835395
v 0.776313 0.270955 -0.835395
v 0.319229 0.270906 -0.835395
v 0.334297 0.270871 -0.835395
v 0.760349 0.270653 -0.835395
v 0.778667 0.269666 -0.835395
v 0.317012 0.269630 -0.835395
v 0.338973 0.269937 -0.835395
v 0.755443 0.269614 -0.835395
v 0.343755 0.268775 -0.835395
v 0.780076 0.267669 -0.835395
v 0.315670 0.267697 -0.835395
v 0.750461 0.268352 -0.835395
v 0.348516 0.267459 -0.835395
v 0.745548 0.266947 -0.835395
v 0.315050 0.264133 -0.835395
v 0.780696 0.264105 -0.835395
v 0.353128 0.266059 -0.835395
v 0.740847 0.265478 -0.835395
v 0.357462 0.264647 -0.835395
v 0.736503 0.264027 -0.835395
v 0.315428 0.259851 -0.835395
v 0.780318 0.259823 -0.835395
v 0.316623 0.255046 -0.835395
v 0.779123 0.255017 -0.835395
v 0.318456 0.249914 -0.835395
v 0.777291 0.249886 -0.835395
v 0.320746 0.244652 -0.835395
v 0.775000 0.244624 -0.835395
v 0.323315 0.239455 -0.835395
v 0.772431 0.239427 -0.835395
v 0.325982 0.234520 -0.835395
v 0.769765 0.234492 -0.835395
v 0.328567 0.230043 -0.835395
v 0.767180 0.230015 -0.835395
v 0.330891 0.226219 -0.835395
v 0.764856 0.226191 -0.835395
v 0.332773 0.223246 -0.835395
v 0.762973 0.223217 -0.835395
v 0.334034 0.221318 -0.835395
v 0.761712 0.221289 -0.835395
v 0.334495 0.220631 -0.835395
v 0.761252 0.220603 -0.835395
v 0.287021 0.219973 -0.835395
v 0.279795 0.220511 -0.835395
v 0.282706 0.220631 -0.835395
v 0.333775 0.220571 -0.835395
v 0.761971 0.220543 -0.835395
v 0.815952 0.220489 -0.835395
v 0.808725 0.219945 -0.835395
v 0.813041 0.220603 -0.835395
v 0.331748 0.220414 -0.835395
v 0.763998 0.220386 -0.835395
v 0.278768 0.218763 -0.835395
v 0.816978 0.218744 -0.835395
v 0.328609 0.220191 -0.835395
v 0.767137 0.220163 -0.835395
v 0.324555 0.219935 -0.835395
v 0.771191 0.219907 -0.835395
v 0.291991 0.219544 -0.835395
v 0.803756 0.219516 -0.835395
v 0.319782 0.219680 -0.835395
v 0.775965 0.219651 -0.835395
v 0.314485 0.219457 -0.835395
v 0.781262 0.219428 -0.835395
v 0.297418 0.219310 -0.835395
v 0.798329 0.219282 -0.835395
v 0.308861 0.219299 -0.835395
v 0.786885 0.219271 -0.835395
v 0.303107 0.219239 -0.835395
v 0.792640 0.219211 -0.835395
v 0.279420 0.215653 -0.835395
v 0.816327 0.215636 -0.835395
v 0.281543 0.211448 -0.835395
v 0.814204 0.211433 -0.835395
v 0.284929 0.206416 -0.835395
v 0.810817 0.206400 -0.835395
v 0.289374 0.200823 -0.835395
v 0.806373 0.200805 -0.835395
v 0.294668 0.194936 -0.835395
v 0.801079 0.194916 -0.835395
v 0.300606 0.189022 -0.835395
v 0.795141 0.189000 -0.835395
v 0.306979 0.183348 -0.835395
v 0.788767 0.183324 -0.835395
v 0.313583 0.178181 -0.835395
v 0.782164 0.178154 -0.835395
v 0.320208 0.173787 -0.835395
v 0.775539 0.173759 -0.835395
v 0.326649 0.170434 -0.835395
v 0.769098 0.170405 -0.835395
v 0.326480 0.170306 -0.835395
v 0.769267 0.170277 -0.835395
v 0.325951 0.169933 -0.835395
v 0.769795 0.169905 -0.835395
v 0.325030 0.169332 -0.835395
v 0.770716 0.169304 -0.835395
v 0.323684 0.168519 -0.835395
v 0.772062 0.168491 -0.835395
v 0.321881 0.167510 -0.835395
v 0.773866 0.167482 -0.835395
v 0.319586 0.166321 -0.835395
v 0.776160 0.166293 -0.835395
v 0.316768 0.164969 -0.835395
v 0.778978 0.164940 -0.835395
v 0.313395 0.163469 -0.835395
v 0.782352 0.163441 -0.835395
v 0.309432 0.161839 -0.835395
v 0.786314 0.161811 -0.835395
v 0.304848 0.160094 -0.835395
v 0.790898 0.160066 -0.835395
v 0.299610 0.158251 -0.835395
v 0.796137 0.158222 -0.835395
v 0.293685 0.156325 -0.835395
v 0.802062 0.156297 -0.835395
v 0.289072 0.153970 -0.835395
v 0.806733 0.153895 -0.835395
v 0.286787 0.150657 -0.835395
v 0.808998 0.150506 -0.835395
v 0.286679 0.146557 -0.835395
v 0.809019 0.146309 -0.835395
v 0.288593 0.141839 -0.835395
v 0.806956 0.141482 -0.835395
v 0.292377 0.136675 -0.835395
v 0.802970 0.136204 -0.835395
v 0.297879 0.131233 -0.835395
v 0.797222 0.130655 -0.835395
v 0.304946 0.125685 -0.835395
v 0.789872 0.125012 -0.835395
v 0.313424 0.120199 -0.835395
v 0.781081 0.119456 -0.835395
v 0.323161 0.114947 -0.835395
v 0.771010 0.114165 -0.835395
v 0.334005 0.110098 -0.835395
v 0.759819 0.109317 -0.835395
v 0.345802 0.105822 -0.835395
v 0.747670 0.105092 -0.835395
v 0.358400 0.102290 -0.835395
v 0.734722 0.101669 -0.835395
v 0.358338 0.095057 -0.835395
v 0.734249 0.086530 -0.835395
v 0.358282 0.087750 -0.835395
v 0.358231 0.080367 -0.835395
v 0.733678 0.072853 -0.835395
v 0.358184 0.072908 -0.835395
v 0.358143 0.065371 -0.835395
v 0.733036 0.060610 -0.835395
v 0.358107 0.057757 -0.835395
v 0.732350 0.049774 -0.835395
v 0.358076 0.050063 -0.835395
v 0.358050 0.042290 -0.835395
v 0.731647 0.040316 -0.835395
v 0.358030 0.034437 -0.835395
v 0.730951 0.032210 -0.835395
v 0.358016 0.026503 -0.835395
v 0.730290 0.025426 -0.835395
v 0.358007 0.018487 -0.835395
v 0.729690 0.019938 -0.835395
v 0.729178 0.015718 -0.835395
v 0.358004 0.010388 -0.835395
v 0.728779 0.012738 -0.835395
v 0.728521 0.010971 -0.835395
v 0.728429 0.010388 -0.835395
v 0.365293 0.010388 -0.835395
v 0.385443 0.010388 -0.835395
v 0.415883 0.010388 -0.835395
v 0.454040 0.010388 -0.835395
v 0.497342 0.010388 -0.835395
v 0.543216 0.010388 -0.835395
v 0.589091 0.010388 -0.835395
v 0.632393 0.010388 -0.835395
v 0.670550 0.010388 -0.835395
v 0.700990 0.010388 -0.835395
v 0.721140 0.010388 -0.835395
v 0.734249 0.086530 -0.655395
v 0.733678 0.072853 -0.655395
v 0.733678 0.072853 -0.835395
v 0.734249 0.086530 -0.835395
v 0.733036 0.060610 -0.655395
v 0.733036 0.060610 -0.835395
v 0.732350 0.049774 -0.655395
v 0.732350 0.049774 -0.835395
v 0.731647 0.040316 -0.655395
v 0.731647 0.040316 -0.835395
v 0.730951 0.032210 -0.655395
v 0.730951 0.032210 -0.835395
v 0.730290 0.025426 -0.655395
v 0.730290 0.025426 -0.835395
v 0.729690 0.019938 -0.655395
v 0.729690 0.019938 -0.835395
v 0.729178 0.015718 -0.655395
v 0.729178 0.015718 -0.835395
v 0.728779 0.012738 -0.655395
v 0.728779 0.012738 -0.835395
v 0.728521 0.010971 -0.655395
v 0.728521 0.010971 -0.835395
v 0.728429 0.010388 -0.655395
v 0.728429 0.010388 -0.835395
v 0.721140 0.010388 -0.655395
v 0.721140 0.010388 -0.835395
v 0.700990 0.010388 -0.655395
v 0.700990 0.010388 -0.835395
v 0.670550 0.010388 -0.655395
v 0.670550 0.010388 -0.835395
v 0.632393 0.010388 -0.655395
v 0.632393 0.010388 -0.835395
v 0.589091 0.010388 -0.655395
v 0.589091 0.010388 -0.835395
v 0.543216 0.010388 -0.655395
v 0.543216 0.010388 -0.835395
v 0.497342 0.010388 -0.655395
v 0.497342 0.010388 -0.835395
v 0.454040 0.010388 -0.655395
v 0.454040 0.010388 -0.835395
v 0.415883 0.010388 -0.655395
v 0.415883 0.010388 -0.835395
v 0.385443 0.010388 -0.655395
v 0.385443 0.010388 -0.835395
v 0.365293 0.010388 -0.655395
v 0.365293 0.010388 -0.835395
v 0.358004 0.010388 -0.655395
v 0.358004 0.010388 -0.835395
v 0.358007 0.018487 -0.655395
v 0.358007 0.018487 -0.835395
v 0.358016 0.026503 -0.655395
v 0.358016 0.026503 -0.835395
v 0.358030 0.034437 -0.655395
v 0.358030 0.034437 -0.835395
v 0.358050 0.042290 -0.655395
v 0.358050 0.042290 -0.835395
v 0.358076 0.050063 -0.655395
v 0.358076 0.050063 -0.835395
v 0.358107 0.057757 -0.655395
v 0.358107 0.057757 -0.835395
v 0.358143 0.065371 -0.655395
v 0.358143 0.065371 -0.835395
v 0.358184 0.072908 -0.655395
v 0.358184 0.072908 -0.835395
v 0.358231 0.080367 -0.655395
v 0.358231 0.080367 -0.835395
v 0.358282 0.087750 -0.655395
v 0.358282 0.087750 -0.835395
v 0.358338 0.095057 -0.655395
v 0.358338 0.095057 -0.835395
v 0.358400 0.102290 -0.655395
v 0.358400 0.102290 -0.835395
v 0.345802 0.105822 -0.655395
v 0.345802 0.105822 -0.835395
v 0.334005 0.110098 -0.655395
v 0.334005 0.110098 -0.835395
v 0.323161 0.114947 -0.655395
v 0.323161 0.114947 -0.835395
v 0.313424 0.120199 -0.655395
v 0.313424 0.120199 -0.835395
v 0.304946 0.125685 -0.655395
v 0.304946 0.125685 -0.835395
v 0.297879 0.131233 -0.655395
v 0.297879 0.131233 -0.835395
v 0.292377 0.136675 -0.655395
v 0.292377 0.136675 -0.835395
v 0.288593 0.141839 -0.655395
v 0.288593 0.141839 -0.835395
v 0.286679 0.146557 -0.655395
v 0.286679 0.146557 -0.835395
v 0.286787 0.150657 -0.655395
v 0.286787 0.150657 -0.835395
v 0.289072 0.153970 -0.655395
v 0.289072 0.153970 -0.835395
v 0.293685 0.156325 -0.655395
v 0.293685 0.156325 -0.835395
v 0.299610 0.158251 -0.655395
v 0.299610 0.158251 -0.835395
v 0.304848 0.160094 -0.655395
v 0.304848 0.160094 -0.835395
v 0.309432 0.161839 -0.655395
v 0.309432 0.161839 -0.835395
v 0.313395 0.163469 -0.655395
v 0.313395 0.163469 -0.835395
v 0.316768 0.164969 -0.655395
v 0.316768 0.164969 -0.835395
v 0.319586 0.166321 -0.655395
v 0.319586 0.166321 -0.835395
v 0.321881 0.167510 -0.655395
v 0.321881 0.167510 -0.835395
v 0.323684 0.168519 -0.655395
v 0.323684 0.168519 -0.835395
v 0.325030 0.169332 -0.655395
v 0.325030 0.169332 -0.835395
v 0.325951 0.169933 -0.655395
v 0.325951 0.169933 -0.835395
v 0.326480 0.170306 -0.655395
v 0.326480 0.170306 -0.835395
v 0.326649 0.170434 -0.655395
v 0.326649 0.170434 -0.835395
v 0.320208 0.173787 -0.655395
v 0.320208 0.173787 -0.835395
v 0.313583 0.178181 -0.655395
v 0.313583 0.178181 -0.835395
v 0.306979 0.183348 -0.655395
v 0.306979 0.183348 -0.835395
v 0.300606 0.189022 -0.655395
v 0.300606 0.189022 -0.835395
v 0.294668 0.194936 -0.655395
v 0.294668 0.194936 -0.835395
v 0.289374 0.200823 -0.655395
v 0.289374 0.200823 -0.835395
v 0.284929 0.206416 -0.655395
v 0.284929 0.206416 -0.835395
v 0.281543 0.211448 -0.655395
v 0.281543 0.211448 -0.835395
v 0.279420 0.215653 -0.655395
v 0.279420 0.215653 -0.835395
v 0.278768 0.218763 -0.655395
v 0.278768 0.218763 -0.835395
v 0.279795 0.220511 -0.655395
v 0.279795 0.220511 -0.835395
v 0.282706 0.220631 -0.655395
v 0.282706 0.220631 -0.835395
v 0.287021 0.219973 -0.655395
v 0.287021 0.219973 -0.835395
v 0.291991 0.219544 -0.655395
v 0.291991 0.219544 -0.835395
v 0.297418 0.219310 -0.655395
v 0.297418 0.219310 -0.835395
v 0.303107 0.219239 -0.655395
v 0.303107 0.219239 -0.835395
v 0.308861 0.219299 -0.655395
v 0.308861 0.219299 -0.835395
v 0.314485 0.219457 -0.655395
v 0.314485 0.219457 -0.835395
v 0.319782 0.219680 -0.655395
v 0.319782 0.219680 -0.835395
v 0.324555 0.219935 -0.655395
v 0.324555 0.219935 -0.835395
v 0.328609 0.220191 -0.655395
v 0.328609 0.220191 -0.835395
v 0.331748 0.220414 -0.655395
v 0.331748 0.220414 -0.835395
v 0.333775 0.220571 -0.655395
v 0.333775 0.220571 -0.835395
v 0.334495 0.220631 -0.655395
v 0.334495 0.220631 -0.835395
v 0.334034 0.221318 -0.655395
v 0.334034 0.221318 -0.835395
v 0.332773 0.223246 -0.655395
v 0.332773 0.223246 -0.835395
v 0.330891 0.226219 -0.655395
v 0.330891 0.226219 -0.835395
v 0.328567 0.230043 -0.655395
v 0.328567 0.230043 -0.835395
v 0.325982 0.234520 -0.655395
v 0.325982 0.234520 -0.835395
v 0.323315 0.239455 -0.655395
v 0.323315 0.239455 -0.835395
v 0.320746 0.244652 -0.655395
v 0.320746 0.244652 -0.835395
v 0.318456 0.249914 -0.655395
v 0.318456 0.249914 -0.835395
v 0.316623 0.255046 -0.655395
v 0.316623 0.255046 -0.835395
v 0.315428 0.259851 -0.655395
v 0.315428 0.259851 -0.835395
v 0.315050 0.264133 -0.655395
v 0.315050 0.264133 -0.835395
v 0.315670 0.267697 -0.655395
v 0.315670 0.267697 -0.835395
v 0.317012 0.269630 -0.655395
v 0.317012 0.269630 -0.835395
v 0.319229 0.270906 -0.655395
v 0.319229 0.270906 -0.835395
v 0.322195 0.271596 -0.655395
v 0.322195 0.271596 -0.835395
v 0.325780 0.271773 -0.655395
v 0.325780 0.271773 -0.835395
v 0.329857 0.271507 -0.655395
v 0.329857 0.271507 -0.835395
v 0.334297 0.270871 -0.655395
v 0.334297 0.270871 -0.835395
v 0.338973 0.269937 -0.655395
v 0.338973 0.269937 -0.835395
v 0.343755 0.268775 -0.655395
v 0.343755 0.268775 -0.835395
v 0.348516 0.267459 -0.655395
v 0.348516 0.267459 -0.835395
v 0.353128 0.266059 -0.655395
v 0.353128 0.266059 -0.835395
v 0.357462 0.264647 -0.655395
v 0.357462 0.264647 -0.835395
v 0.361391 0.263295 -0.655395
v 0.361391 0.263295 -0.835395
v 0.364334 0.318814 -0.655395
v 0.364355 0.318813 -0.835395
v 0.365188 0.368861 -0.655395
v 0.365485 0.368847 -0.835395
v 0.368340 0.412231 -0.655395
v 0.368783 0.412174 -0.835395
v 0.375021 0.447588 -0.655395
v 0.375512 0.447485 -0.835395
v 0.383279 0.475517 -0.655395
v 0.383750 0.475388 -0.835395
v 0.391379 0.497236 -0.655395
v 0.391797 0.497103 -0.835395
v 0.398425 0.513819 -0.655395
v 0.398787 0.513694 -0.835395
v 0.404084 0.526081 -0.655395
v 0.404399 0.525969 -0.835395
v 0.408327 0.534667 -0.655395
v 0.408606 0.534566 -0.835395
v 0.411239 0.540140 -0.655395
v 0.411495 0.540046 -0.835395
v 0.412933 0.543028 -0.655395
v 0.413176 0.542939 -0.835395
v 0.413485 0.543871 -0.655395
v 0.413725 0.543783 -0.835395
v 0.504419 0.444661 -0.655395
v 0.504066 0.444919 -0.835395
v 0.507617 0.444546 -0.655395
v 0.507210 0.444811 -0.835395
v 0.516320 0.444366 -0.655395
v 0.515774 0.444639 -0.835395
v 0.529067 0.444462 -0.655395
v 0.528334 0.444731 -0.835395
v 0.544359 0.445141 -0.655395
v 0.543433 0.445382 -0.835395
v 0.560822 0.446509 -0.655395
v 0.559739 0.446708 -0.835395
v 0.567578 0.447506 -0.655395
v 0.566447 0.447686 -0.835395
v 0.569206 0.447729 -0.655395
v 0.568711 0.448000 -0.835395
v 0.573566 0.448325 -0.655395
v 0.573026 0.448579 -0.835395
v 0.577638 0.449120 -0.655395
v 0.577073 0.449353 -0.835395
v 0.582404 0.450001 -0.655395
v 0.581831 0.450218 -0.835395
v 0.586085 0.450649 -0.655395
v 0.585512 0.450856 -0.835395
v 0.588936 0.451573 -0.655395
v 0.588365 0.451778 -0.835395
v 0.597458 0.461943 -0.655395
v 0.596942 0.462115 -0.835395
v 0.606012 0.472418 -0.655395
v 0.605565 0.472570 -0.835395
v 0.615174 0.482876 -0.655395
v 0.614799 0.483021 -0.835395
v 0.624925 0.494298 -0.655395
v 0.624631 0.494447 -0.835395
v 0.635312 0.507301 -0.655395
v 0.635094 0.507444 -0.835395
v 0.646467 0.518680 -0.655395
v 0.646321 0.518783 -0.835395
v 0.656819 0.529366 -0.655395
v 0.656728 0.529420 -0.835395
v 0.665342 0.539924 -0.655395
v 0.665293 0.539950 -0.835395
v 0.671794 0.549657 -0.655395
v 0.671774 0.549667 -0.835395
v 0.676419 0.557542 -0.655395
v 0.676413 0.557545 -0.835395
v 0.679409 0.562659 -0.655395
v 0.679409 0.562659 -0.835395
v 0.680507 0.564436 -0.655395
v 0.680507 0.564436 -0.835395
v 0.691910 0.535959 -0.655395
v 0.691874 0.535950 -0.835395
v 0.701073 0.508373 -0.655395
v 0.700964 0.508333 -0.835395
v 0.708688 0.480623 -0.655395
v 0.708491 0.480556 -0.835395
v 0.714984 0.453316 -0.655395
v 0.714716 0.453231 -0.835395
v 0.719619 0.426181 -0.655395
v 0.719312 0.426093 -0.835395
v 0.722547 0.399458 -0.655395
v 0.722243 0.399380 -0.835395
v 0.724375 0.373553 -0.655395
v 0.724125 0.373494 -0.835395
v 0.726064 0.348886 -0.655395
v 0.725923 0.348856 -0.835395
v 0.728659 0.325775 -0.655395
v 0.728659 0.325775 -0.835395
v 0.730602 0.303866 -0.655395
v 0.730602 0.303866 -0.835395
v 0.731719 0.282836 -0.655395
v 0.731719 0.282836 -0.835395
v 0.732662 0.262674 -0.655395
v 0.732662 0.262674 -0.835395
v 0.736503 0.264027 -0.655395
v 0.736503 0.264027 -0.835395
v 0.740847 0.265478 -0.655395
v 0.740847 0.265478 -0.835395
v 0.745548 0.266947 -0.655395
v 0.745548 0.266947 -0.835395
v 0.750461 0.268352 -0.655395
v 0.750461 0.268352 -0.835395
v 0.755443 0.269614 -0.655395
v 0.755443 0.269614 -0.835395
v 0.760349 0.270653 -0.655395
v 0.760349 0.270653 -0.835395
v 0.765033 0.271386 -0.655395
v 0.765033 0.271386 -0.835395
v 0.769352 0.271735 -0.655395
v 0.769352 0.271735 -0.835395
v 0.773160 0.271618 -0.655395
v 0.773160 0.271618 -0.835395
v 0.776313 0.270955 -0.655395
v 0.776313 0.270955 -0.835395
v 0.778667 0.269666 -0.655395
v 0.778667 0.269666 -0.835395
v 0.780076 0.267669 -0.655395
v 0.780076 0.267669 -0.835395
v 0.780696 0.264105 -0.655395
v 0.780696 0.264105 -0.835395
v 0.780318 0.259823 -0.655395
v 0.780318 0.259823 -0.835395
v 0.779123 0.255017 -0.655395
v 0.779123 0.255017 -0.835395
v 0.777291 0.249886 -0.655395
v 0.777291 0.249886 -0.835395
v 0.775000 0.244624 -0.655395
v 0.775000 0.244624 -0.835395
v 0.772431 0.239427 -0.655395
v 0.772431 0.239427 -0.835395
v 0.769765 0.234492 -0.655395
v 0.769765 0.234492 -0.835395
v 0.767180 0.230015 -0.655395
v 0.767180 0.230015 -0.835395
v 0.764856 0.226191 -0.655395
v 0.764856 0.226191 -0.835395
v 0.762973 0.223217 -0.655395
v 0.762973 0.223217 -0.835395
v 0.761712 0.221289 -0.655395
v 0.761712 0.221289 -0.835395
v 0.761252 0.220603 -0.655395
v 0.761252 0.220603 -0.835395
v 0.761971 0.220543 -0.655395
v 0.761971 0.220543 -0.835395
v 0.763998 0.220386 -0.655395
v 0.763998 0.220386 -0.835395
v 0.767137 0.220163 -0.655395
v 0.767137 0.220163 -0.835395
v 0.771191 0.219907 -0.655395
v 0.771191 0.219907 -0.835395
v 0.775965 0.219651 -0.655395
v 0.775965 0.219651 -0.835395
v 0.781262 0.219428 -0.655395
v 0.781262 0.219428 -0.835395
v 0.786885 0.219271 -0.655395
v 0.786885 0.219271 -0.835395
v 0.792640 0.219211 -0.655395
v 0.792640 0.219211 -0.835395
v 0.798329 0.219282 -0.655395
v 0.798329 0.219282 -0.835395
v 0.803756 0.219516 -0.655395
v 0.803756 0.219516 -0.835395
v 0.808725 0.219945 -0.655395
v 0.808725 0.219945 -0.835395
v 0.813041 0.220603 -0.655395
v 0.813041 0.220603 -0.835395
v 0.815952 0.220489 -0.655395
v 0.815952 0.220489 -0.835395
v 0.816978 0.218744 -0.655395
v 0.816978 0.218744 -0.835395
v 0.816327 0.215636 -0.655395
v 0.816327 0.215636 -0.835395
v 0.814204 0.211433 -0.655395
v 0.814204 0.211433 -0.835395
v 0.810817 0.206400 -0.655395
v 0.810817 0.206400 -0.835395
v 0.806373 0.200805 -0.655395
v 0.806373 0.200805 -0.835395
v 0.801079 0.194916 -0.655395
v 0.801079 0.194916 -0.835395
v 0.795141 0.189000 -0.655395
v 0.795141 0.189000 -0.835395
v 0.788767 0.183324 -0.655395
v 0.788767 0.183324 -0.835395
v 0.782164 0.178154 -0.655395
v 0.782164 0.178154 -0.835395
v 0.775539 0.173759 -0.655395
v 0.775539 0.173759 -0.835395
v 0.769098 0.170405 -0.655395
v 0.769098 0.170405 -0.835395
v 0.769267 0.170277 -0.655395
v 0.769267 0.170277 -0.835395
v 0.769795 0.169905 -0.655395
v 0.769795 0.169905 -0.835395
v 0.770716 0.169304 -0.655395
v 0.770716 0.169304 -0.835395
v 0.772062 0.168491 -0.655395
v 0.772062 0.168491 -0.835395
v 0.773866 0.167482 -0.655395
v 0.773866 0.167482 -0.835395
v 0.776160 0.166293 -0.655395
v 0.776160 0.166293 -0.835395
v 0.778978 0.164940 -0.655395
v 0.778978 0.164940 -0.835395
v 0.782352 0.163441 -0.655395
v 0.782352 0.163441 -0.835395
v 0.786314 0.161811 -0.655395
v 0.786314 0.161811 -0.835395
v 0.790898 0.160066 -0.655395
v 0.790898 0.160066 -0.835395
v 0.796137 0.158222 -0.655395
v 0.796137 0.158222 -0.835395
v 0.802062 0.156297 -0.655395
v 0.802062 0.156297 -0.835395
v 0.806733 0.153895 -0.655395
v 0.806733 0.153895 -0.835395
v 0.808998 0.150506 -0.655395
v 0.808998 0.150506 -0.835395
v 0.809019 0.146309 -0.655395
v 0.809019 0.146309 -0.835395
v 0.806956 0.141482 -0.655395
v 0.806956 0.141482 -0.835395
v 0.802970 0.136204 -0.655395
v 0.802970 0.136204 -0.835395
v 0.797222 0.130655 -0.655395
v 0.797222 0.130655 -0.835395
v 0.789872 0.125012 -0.655395
v 0.789872 0.125012 -0.835395
v 0.781081 0.119456 -0.655395
v 0.781081 0.119456 -0.835395
v 0.771010 0.114165 -0.655395
v 0.771010 0.114165 -0.835395
v 0.759819 0.109317 -0.655395
v 0.759819 0.109317 -0.835395
v 0.747670 0.105092 -0.655395
v 0.747670 0.105092 -0.835395
v 0.734722 0.101669 -0.655395
v 0.734722 0.101669 -0.835395
vn -0.0000 -0.0000 1.0000
vn -0.0000 -0.0000 -1.0000
vn 0.9993 -0.0365 -0.0000
vn 0.9989 -0.0470 -0.0000
vn 0.9983 -0.0578 -0.0000
vn 0.9976 -0.0687 -0.0000
vn 0.9968 -0.0798 -0.0000
vn 0.9958 -0.0913 -0.0000
vn 0.9947 -0.1028 -0.0000
vn 0.9934 -0.1146 -0.0000
vn 0.9920 -0.1266 -0.0000
vn 0.9903 -0.1386 -0.0000
vn 0.9887 -0.1502 -0.0000
vn 0.6497 -0.7602 -0.0000
vn -0.0000 -1.0000 -0.0000
vn -0.7072 -0.7070 -0.0000
vn -1.0000 0.0007 -0.0000
vn -1.0000 0.0014 -0.0000
vn -1.0000 0.0022 -0.0000
vn -1.0000 0.0029 -0.0000
vn -1.0000 0.0037 -0.0000
vn -1.0000 0.0044 -0.0000
vn -1.0000 0.0051 -0.0000
vn -1.0000 0.0059 -0.0000
vn -1.0000 0.0066 -0.0000
vn -1.0000 0.0073 -0.0000
vn -1.0000 0.0081 -0.0000
vn -0.7994 -0.6008 -0.0000
vn -0.3056 -0.9522 -0.0000
vn -0.3747 -0.9271 -0.0000
vn -0.4418 -0.8971 -0.0000
vn -0.5094 -0.8605 -0.0000
vn -0.5810 -0.8139 -0.0000
vn -0.6614 -0.7500 -0.0000
vn -0.7573 -0.6531 -0.0000
vn -0.8733 -0.4872 -0.0000
vn -0.9839 -0.1786 -0.0000
vn -0.9508 0.3099 -0.0000
vn -0.6590 0.7521 -0.0000
vn -0.3831 0.9237 -0.0000
vn -0.3205 0.9472 -0.0000
vn -0.3439 0.9390 -0.0000
vn -0.3681 0.9298 -0.0000
vn -0.3934 0.9194 -0.0000
vn -0.4195 0.9078 -0.0000
vn -0.4463 0.8949 -0.0000
vn -0.4743 0.8804 -0.0000
vn -0.5028 0.8644 -0.0000
vn -0.5318 0.8468 -0.0000
vn -0.5615 0.8275 -0.0000
vn -0.5897 0.8076 -0.0000
vn -0.9965 -0.0840 -0.0000
vn -0.5079 -0.8614 -0.0000
vn -0.5849 -0.8111 -0.0000
vn -0.6409 -0.7676 -0.0000
vn -0.6856 -0.7280 -0.0000
vn -0.7249 -0.6889 -0.0000
vn -0.7636 -0.6457 -0.0000
vn -0.8069 -0.5907 -0.0000
vn -0.8628 -0.5055 -0.0000
vn -0.9437 -0.3308 -0.0000
vn -0.9869 0.1616 -0.0000
vn -0.5145 0.8575 -0.0000
vn 0.0550 0.9985 -0.0000
vn 0.1184 0.9930 -0.0000
vn 0.0646 0.9979 -0.0000
vn 0.0278 0.9996 -0.0000
vn 0.0010 1.0000 -0.0000
vn -0.0193 0.9998 -0.0000
vn -0.0351 0.9994 -0.0000
vn -0.0477 0.9989 -0.0000
vn -0.0582 0.9983 -0.0000
vn -0.0669 0.9978 -0.0000
vn -0.0740 0.9973 -0.0000
vn -0.0801 0.9968 -0.0000
vn -0.9012 0.4334 -0.0000
vn -0.8336 -0.5523 -0.0000
vn -0.8409 -0.5411 -0.0000
vn -0.8498 -0.5271 -0.0000
vn -0.8603 -0.5097 -0.0000
vn -0.8730 -0.4878 -0.0000
vn -0.8882 -0.4594 -0.0000
vn -0.9070 -0.4212 -0.0000
vn -0.9299 -0.3679 -0.0000
vn -0.9573 -0.2892 -0.0000
vn -0.9863 -0.1651 -0.0000
vn -0.9991 0.0421 -0.0000
vn -0.9251 0.3798 -0.0000
vn -0.6766 0.7364 -0.0000
vn -0.3667 0.9304 -0.0000
vn -0.1385 0.9904 -0.0000
vn 0.0079 1.0000 -0.0000
vn 0.1035 0.9946 -0.0000
vn 0.1689 0.9856 -0.0000
vn 0.2160 0.9764 -0.0000
vn 0.2513 0.9679 -0.0000
vn 0.2785 0.9604 -0.0000
vn 0.3001 0.9539 -0.0000
vn 0.3176 0.9482 -0.0000
vn -0.5589 0.8292 -0.0001
vn -0.9993 0.0365 -0.0005
vn -0.9989 0.0470 -0.0015
vn -0.9914 0.1305 -0.0023
vn -0.9720 0.2352 -0.0027
vn -0.9719 0.2352 -0.0027
vn -0.9487 0.3161 -0.0027
vn -0.9294 0.3691 -0.0024
vn -0.9294 0.3692 -0.0024
vn -0.9149 0.4036 -0.0021
vn -0.9031 0.4294 -0.0019
vn -0.8906 0.4547 -0.0017
vn -0.8906 0.4548 -0.0017
vn -0.8739 0.4862 -0.0015
vn -0.8507 0.5256 -0.0014
vn -0.0818 0.9966 -0.0011
vn -0.0805 0.9968 -0.0011
vn 0.4186 0.9082 0.0008
vn 0.4196 0.9077 0.0008
vn 0.0278 0.9996 0.0014
vn 0.0064 1.0000 0.0015
vn 0.0065 1.0000 0.0015
vn -0.0256 0.9997 0.0016
vn -0.0255 0.9997 0.0016
vn -0.0629 0.9980 0.0016
vn -0.0628 0.9980 0.0016
vn -0.1137 0.9935 0.0018
vn -0.1135 0.9935 0.0018
vn -0.1409 0.9900 0.0019
vn -0.1354 0.9908 0.0018
vn -0.1621 0.9868 0.0019
vn -0.1620 0.9868 0.0019
vn -0.1850 0.9827 0.0019
vn -0.1762 0.9843 0.0018
vn -0.1763 0.9843 0.0018
vn -0.2407 0.9706 0.0019
vn -0.2405 0.9706 0.0019
vn -0.5622 0.8270 0.0026
vn -0.5617 0.8274 0.0026
vn -0.7720 0.6356 0.0028
vn -0.7620 0.6476 0.0024
vn -0.7550 0.6557 0.0021
vn -0.7698 0.6383 0.0018
vn -0.7472 0.6646 0.0014
vn -0.7144 0.6997 0.0010
vn -0.7475 0.6642 0.0006
vn -0.7475 0.6643 0.0006
vn -0.8057 0.5923 0.0003
vn -0.8477 0.5304 0.0001
vn -0.8626 0.5058 -0.0000
vn -0.8570 0.5153 -0.0000
vn 0.0864 0.9963 -0.0001
vn 0.9394 0.3427 -0.0003
vn 0.9574 0.2886 -0.0007
vn 0.9700 0.2433 -0.0011
vn 0.9807 0.1956 -0.0015
vn 0.9904 0.1384 -0.0017
vn 0.9959 0.0902 -0.0016
vn 0.9975 0.0710 -0.0013
vn 0.9957 0.0926 -0.0007
vn 0.9948 0.1015 -0.0002
vn 0.9975 0.0707 -0.0000
vn 0.9988 0.0499 -0.0000
vn 0.5586 0.8294 -0.0000
vn -0.3245 0.9459 -0.0000
vn -0.3076 0.9515 -0.0000
vn -0.2866 0.9580 -0.0000
vn -0.2603 0.9655 -0.0000
vn -0.2264 0.9740 -0.0000
vn -0.1810 0.9835 -0.0000
vn -0.1177 0.9931 -0.0000
vn -0.0250 0.9997 -0.0000
vn 0.1187 0.9929 -0.0000
vn 0.3468 0.9380 -0.0000
vn 0.6659 0.7461 -0.0000
vn 0.9236 0.3833 -0.0000
vn 0.9991 0.0421 -0.0000
vn 0.9863 -0.1651 -0.0000
vn 0.9573 -0.2891 -0.0000
vn 0.9299 -0.3679 -0.0000
vn 0.9069 -0.4213 -0.0000
vn 0.8883 -0.4593 -0.0000
vn 0.8730 -0.4877 -0.0000
vn 0.8603 -0.5097 -0.0000
vn 0.8498 -0.5272 -0.0000
vn 0.8409 -0.5412 -0.0000
vn 0.8335 -0.5526 -0.0000
vn 0.9011 0.4335 -0.0000
vn 0.0802 0.9968 -0.0000
vn 0.0744 0.9972 -0.0000
vn 0.0669 0.9978 -0.0000
vn 0.0583 0.9983 -0.0000
vn 0.0478 0.9989 -0.0000
vn 0.0350 0.9994 -0.0000
vn 0.0192 0.9998 -0.0000
vn -0.0010 1.0000 -0.0000
vn -0.0278 0.9996 -0.0000
vn -0.0646 0.9979 -0.0000
vn -0.1184 0.9930 -0.0000
vn -0.0560 0.9984 -0.0000
vn 0.5135 0.8581 -0.0000
vn 0.9868 0.1618 -0.0000
vn 0.9437 -0.3308 -0.0000
vn 0.8628 -0.5056 -0.0000
vn 0.8070 -0.5906 -0.0000
vn 0.7637 -0.6456 -0.0000
vn 0.7250 -0.6887 -0.0000
vn 0.6857 -0.7279 -0.0000
vn 0.6411 -0.7675 -0.0000
vn 0.5851 -0.8110 -0.0000
vn 0.5080 -0.8613 -0.0000
vn 0.9965 -0.0840 -0.0000
vn 0.5899 0.8074 -0.0000
vn 0.5613 0.8276 -0.0000
vn 0.5318 0.8468 -0.0000
vn 0.5027 0.8645 -0.0000
vn 0.4742 0.8804 -0.0000
vn 0.4461 0.8950 -0.0000
vn 0.4195 0.9078 -0.0000
vn 0.3933 0.9194 -0.0000
vn 0.3681 0.9298 -0.0000
vn 0.3439 0.9390 -0.0000
vn 0.3205 0.9472 -0.0000
vn 0.3844 0.9232 -0.0000
vn 0.6656 0.7463 -0.0000
vn 0.9562 0.2927 -0.0000
vn 0.9802 -0.1981 -0.0000
vn 0.8651 -0.5015 -0.0000
vn 0.7486 -0.6631 -0.0000
vn 0.6528 -0.7575 -0.0000
vn 0.5722 -0.8201 -0.0000
vn 0.5001 -0.8660 -0.0000
vn 0.4316 -0.9021 -0.0000
vn 0.3632 -0.9317 -0.0000
vn 0.2922 -0.9563 -0.0000
vn 0.7827 -0.6224 -0.0000
vt 0.917818 0.547965
vt 0.920357 0.519056
vt 0.919034 0.549230
vt 0.914380 0.544355
vt 0.909030 0.538676
vt 0.902079 0.531206
vt 0.893839 0.522220
vt 0.617140 0.548280
vt 0.699077 0.443995
vt 0.617497 0.549230
vt 0.616103 0.545077
vt 0.614435 0.539095
vt 0.884620 0.511995
vt 0.921492 0.489860
vt 0.612188 0.529805
vt 0.874735 0.500809
vt 0.609411 0.516681
vt 0.864495 0.488937
vt 0.606155 0.499195
vt 0.922446 0.461633
vt 0.854210 0.476657
vt 0.602470 0.476819
vt 0.844192 0.464245
vt 0.923228 0.434362
vt 0.834752 0.451978
vt 0.598406 0.449026
vt 0.826202 0.440133
vt 0.923845 0.408037
vt 0.823700 0.440209
vt 0.816785 0.440419
vt 0.806338 0.440736
vt 0.793243 0.441134
vt 0.778383 0.441586
vt 0.762639 0.442064
vt 0.746896 0.442542
vt 0.732035 0.442994
vt 0.718940 0.443392
vt 0.708494 0.443709
vt 0.701578 0.443919
vt 0.594013 0.415289
vt 0.924306 0.382648
vt 0.589343 0.375080
vt 0.924619 0.358182
vt 0.924791 0.334631
vt 0.584444 0.327871
vt 0.924832 0.311982
vt 0.924749 0.290225
vt 0.579368 0.273136
vt 0.924551 0.269348
vt 0.924245 0.249342
vt 0.543441 0.283796
vt 0.550554 0.283229
vt 0.546782 0.283747
vt 0.954829 0.255941
vt 0.962392 0.255663
vt 0.958861 0.256016
vt 0.965283 0.254810
vt 0.540646 0.283298
vt 0.554642 0.282323
vt 0.950434 0.255507
vt 0.967394 0.253387
vt 0.538511 0.282174
vt 0.558931 0.281107
vt 0.945816 0.254786
vt 0.563305 0.279659
vt 0.968586 0.251323
vt 0.537151 0.280345
vt 0.941113 0.253849
vt 0.567651 0.278059
vt 0.936466 0.252765
vt 0.536366 0.276858
vt 0.968953 0.247759
vt 0.571854 0.276386
vt 0.932013 0.251605
vt 0.575798 0.274719
vt 0.927893 0.250441
vt 0.536466 0.272598
vt 0.968351 0.243545
vt 0.537295 0.267769
vt 0.966959 0.238866
vt 0.538697 0.262578
vt 0.964955 0.233903
vt 0.540516 0.257228
vt 0.962519 0.228840
vt 0.542598 0.251927
vt 0.959828 0.223859
vt 0.544786 0.246878
vt 0.957061 0.219143
vt 0.546925 0.242286
vt 0.954397 0.214875
vt 0.548859 0.238358
vt 0.952014 0.211237
vt 0.550434 0.235299
vt 0.950091 0.208412
vt 0.551493 0.233312
vt 0.948807 0.206583
vt 0.551880 0.232604
vt 0.948339 0.205933
vt 0.501056 0.235901
vt 0.507738 0.234917
vt 0.503768 0.235838
vt 0.551208 0.232590
vt 0.949003 0.205829
vt 0.992403 0.202318
vt 0.999149 0.202405
vt 0.996451 0.202700
vt 0.549316 0.232561
vt 0.950877 0.205546
vt 0.500000 0.234235
vt 1.000000 0.200615
vt 0.546387 0.232536
vt 0.953780 0.205130
vt 0.542605 0.232536
vt 0.957532 0.204624
vt 0.512330 0.234182
vt 0.987761 0.202203
vt 0.538156 0.232582
vt 0.961951 0.204073
vt 0.533222 0.232692
vt 0.966859 0.203522
vt 0.517358 0.233612
vt 0.982706 0.202311
vt 0.527988 0.232887
vt 0.972074 0.203015
vt 0.522639 0.233187
vt 0.977417 0.202596
vt 0.500423 0.231117
vt 0.999213 0.197581
vt 0.502149 0.226825
vt 0.996994 0.193554
vt 0.505000 0.221635
vt 0.993553 0.188786
vt 0.508801 0.215824
vt 0.989096 0.183529
vt 0.513374 0.209669
vt 0.983832 0.178033
vt 0.518544 0.203447
vt 0.977969 0.172550
vt 0.524132 0.197435
vt 0.971715 0.167332
vt 0.529964 0.191910
vt 0.965278 0.162630
vt 0.535861 0.187150
vt 0.958865 0.158695
vt 0.541648 0.183430
vt 0.952685 0.155779
vt 0.541484 0.183314
vt 0.952834 0.155642
vt 0.540971 0.182978
vt 0.953303 0.155240
vt 0.540080 0.182441
vt 0.954124 0.154588
vt 0.538782 0.181721
vt 0.955326 0.153699
vt 0.537047 0.180835
vt 0.956943 0.152588
vt 0.534846 0.179802
vt 0.959005 0.151269
vt 0.532149 0.178640
vt 0.961543 0.149755
vt 0.528927 0.177367
vt 0.964590 0.148061
vt 0.525150 0.176001
vt 0.968175 0.146200
vt 0.520789 0.174561
vt 0.972332 0.144188
vt 0.515815 0.173064
vt 0.977090 0.142037
vt 0.510197 0.171529
vt 0.982482 0.139762
vt 0.505774 0.169487
vt 0.986680 0.137094
vt 0.503457 0.166352
vt 0.988586 0.133600
vt 0.503116 0.162302
vt 0.988359 0.129446
vt 0.504618 0.157515
vt 0.986160 0.124799
vt 0.507831 0.152170
vt 0.982147 0.119826
vt 0.512623 0.146442
vt 0.976482 0.114695
vt 0.518863 0.140511
vt 0.969323 0.109571
vt 0.526417 0.134555
vt 0.960830 0.104623
vt 0.535156 0.128750
vt 0.951164 0.100016
vt 0.544945 0.123276
vt 0.940484 0.095919
vt 0.555654 0.118309
vt 0.928949 0.092497
vt 0.567150 0.114028
vt 0.916720 0.089919
vt 0.566669 0.106876
vt 0.915393 0.074970
vt 0.566189 0.099650
vt 0.565708 0.092349
vt 0.914061 0.061474
vt 0.565228 0.084971
vt 0.564747 0.077517
vt 0.912747 0.049402
vt 0.564267 0.069986
vt 0.911475 0.038723
vt 0.563788 0.062376
vt 0.563309 0.054688
vt 0.910266 0.029410
vt 0.562830 0.046919
vt 0.909145 0.021433
vt 0.562351 0.039070
vt 0.908133 0.014763
vt 0.561873 0.031139
vt 0.907254 0.009371
vt 0.906531 0.005227
vt 0.561396 0.023127
vt 0.905986 0.002304
vt 0.905642 0.000571
vt 0.905522 0.000000
vt 0.000000 0.000000
vt 0.079643 0.519056
vt 0.082182 0.547965
vt 0.080966 0.549230
vt 0.085620 0.544355
vt 0.090970 0.538677
vt 0.097921 0.531206
vt 0.106161 0.522220
vt 0.300923 0.443995
vt 0.382860 0.548280
vt 0.382503 0.549230
vt 0.383897 0.545077
vt 0.385565 0.539095
vt 0.115380 0.511995
vt 0.078508 0.489860
vt 0.387812 0.529805
vt 0.125265 0.500809
vt 0.390589 0.516681
vt 0.135505 0.488937
vt 0.393845 0.499195
vt 0.077554 0.461633
vt 0.145790 0.476657
vt 0.397530 0.476819
vt 0.155808 0.464245
vt 0.076772 0.434362
vt 0.165248 0.451978
vt 0.401594 0.449026
vt 0.173798 0.440133
vt 0.076155 0.408037
vt 0.176300 0.440209
vt 0.183215 0.440419
vt 0.193662 0.440736
vt 0.206757 0.441134
vt 0.221617 0.441586
vt 0.237361 0.442064
vt 0.253104 0.442542
vt 0.267965 0.442994
vt 0.281060 0.443392
vt 0.291506 0.443709
vt 0.298422 0.443919
vt 0.405987 0.415289
vt 0.075694 0.382648
vt 0.410657 0.375080
vt 0.075382 0.358182
vt 0.075209 0.334631
vt 0.415556 0.327871
vt 0.075168 0.311982
vt 0.075251 0.290225
vt 0.420632 0.273136
vt 0.075449 0.269348
vt 0.075755 0.249342
vt 0.449446 0.283230
vt 0.456559 0.283796
vt 0.453218 0.283747
vt 0.037608 0.255663
vt 0.045172 0.255941
vt 0.041139 0.256016
vt 0.034717 0.254810
vt 0.459354 0.283298
vt 0.445358 0.282323
vt 0.049566 0.255507
vt 0.032606 0.253387
vt 0.461489 0.282174
vt 0.441070 0.281107
vt 0.054184 0.254786
vt 0.436695 0.279659
vt 0.031414 0.251323
vt 0.462849 0.280346
vt 0.058887 0.253849
vt 0.432349 0.278059
vt 0.063534 0.252765
vt 0.463634 0.276858
vt 0.031047 0.247759
vt 0.428146 0.276386
vt 0.067987 0.251605
vt 0.424203 0.274719
vt 0.072107 0.250441
vt 0.463534 0.272598
vt 0.031649 0.243545
vt 0.462705 0.267769
vt 0.033041 0.238866
vt 0.461304 0.262578
vt 0.035045 0.233903
vt 0.459484 0.257228
vt 0.037481 0.228840
vt 0.457403 0.251927
vt 0.040172 0.223859
vt 0.455215 0.246878
vt 0.042939 0.219143
vt 0.453075 0.242287
vt 0.045603 0.214875
vt 0.451141 0.238358
vt 0.047986 0.211237
vt 0.449566 0.235299
vt 0.049909 0.208412
vt 0.448508 0.233312
vt 0.051194 0.206583
vt 0.448120 0.232605
vt 0.051661 0.205933
vt 0.492262 0.234918
vt 0.498944 0.235901
vt 0.496232 0.235838
vt 0.448792 0.232590
vt 0.050997 0.205829
vt 0.000851 0.202405
vt 0.007597 0.202318
vt 0.003549 0.202700
vt 0.450684 0.232561
vt 0.049123 0.205546
vt 0.000000 0.200615
vt 0.453613 0.232536
vt 0.046220 0.205130
vt 0.457395 0.232537
vt 0.042468 0.204624
vt 0.487670 0.234182
vt 0.012239 0.202203
vt 0.461845 0.232582
vt 0.038049 0.204073
vt 0.466778 0.232692
vt 0.033141 0.203522
vt 0.482642 0.233612
vt 0.017294 0.202311
vt 0.472012 0.232887
vt 0.027926 0.203014
vt 0.477361 0.233187
vt 0.022584 0.202596
vt 0.499577 0.231117
vt 0.000788 0.197581
vt 0.497851 0.226825
vt 0.003006 0.193554
vt 0.495000 0.221635
vt 0.006448 0.188786
vt 0.491199 0.215824
vt 0.010904 0.183529
vt 0.486626 0.209669
vt 0.016168 0.178033
vt 0.481456 0.203447
vt 0.022031 0.172550
vt 0.475868 0.197435
vt 0.028285 0.167332
vt 0.470036 0.191911
vt 0.034722 0.162630
vt 0.464139 0.187150
vt 0.041135 0.158695
vt 0.458352 0.183430
vt 0.047315 0.155779
vt 0.458516 0.183314
vt 0.047166 0.155642
vt 0.459029 0.182978
vt 0.046697 0.155240
vt 0.459920 0.182441
vt 0.045876 0.154588
vt 0.461218 0.181721
vt 0.044674 0.153699
vt 0.462953 0.180835
vt 0.043057 0.152588
vt 0.465154 0.179802
vt 0.040995 0.151269
vt 0.467851 0.178640
vt 0.038457 0.149755
vt 0.471073 0.177367
vt 0.035410 0.148061
vt 0.474850 0.176002
vt 0.031825 0.146200
vt 0.479211 0.174561
vt 0.027668 0.144188
vt 0.484185 0.173065
vt 0.022910 0.142037
vt 0.489803 0.171529
vt 0.017518 0.139762
vt 0.494226 0.169487
vt 0.013320 0.137094
vt 0.496543 0.166352
vt 0.011414 0.133600
vt 0.496884 0.162302
vt 0.011641 0.129446
vt 0.495382 0.157516
vt 0.013840 0.124799
vt 0.492169 0.152170
vt 0.017853 0.119826
vt 0.487377 0.146442
vt 0.023518 0.114695
vt 0.481137 0.140511
vt 0.030677 0.109571
vt 0.473583 0.134555
vt 0.039170 0.104623
vt 0.464845 0.128750
vt 0.048836 0.100016
vt 0.455055 0.123276
vt 0.059516 0.095919
vt 0.444346 0.118309
vt 0.071051 0.092497
vt 0.432850 0.114028
vt 0.083280 0.089919
vt 0.433331 0.106876
vt 0.084607 0.074970
vt 0.433811 0.099650
vt 0.434292 0.092349
vt 0.085939 0.061474
vt 0.434772 0.084971
vt 0.435253 0.077517
vt 0.087253 0.049402
vt 0.435733 0.069986
vt 0.088526 0.038723
vt 0.436212 0.062376
vt 0.436692 0.054688
vt 0.089734 0.029410
vt 0.437171 0.046919
vt 0.090855 0.021433
vt 0.437649 0.039070
vt 0.091867 0.014763
vt 0.438127 0.031139
vt 0.092746 0.009371
vt 0.093469 0.005227
vt 0.438605 0.023127
vt 0.094015 0.002304
vt 0.094358 0.000571
vt 0.094478 0.000000
vt 0.738636 0.906115
vt 0.726498 0.906114
vt 0.726498 0.727672
vt 0.738636 0.727673
vt 0.715591 0.906115
vt 0.715591 0.727673
vt 0.705900 0.906114
vt 0.705900 0.727673
vt 0.697407 0.906114
vt 0.697407 0.727672
vt 0.690098 0.906115
vt 0.690098 0.727673
vt 0.683957 0.906114
vt 0.683957 0.727673
vt 0.678968 0.906115
vt 0.678968 0.727673
vt 0.675115 0.906114
vt 0.675115 0.727672
vt 0.672383 0.906114
vt 0.672383 0.727673
vt 0.670755 0.906115
vt 0.670755 0.727673
vt 0.670216 0.906115
vt 0.670216 0.727673
vt 0.000000 0.876674
vt 0.000000 0.870232
vt 0.167554 0.870232
vt 0.167554 0.876674
vt 0.000000 0.852419
vt 0.167554 0.852419
vt 0.000000 0.825511
vt 0.167554 0.825511
vt 0.000000 0.791781
vt 0.167554 0.791781
vt 0.000000 0.753504
vt 0.167554 0.753504
vt 0.000000 0.712952
vt 0.167554 0.712952
vt 0.000000 0.672401
vt 0.167554 0.672401
vt 0.000000 0.634123
vt 0.167554 0.634123
vt 0.000000 0.600393
vt 0.167554 0.600393
vt 0.000000 0.573485
vt 0.167554 0.573485
vt 0.000000 0.555673
vt 0.167554 0.555673
vt 0.000000 0.549230
vt 0.167554 0.549230
vt 0.752021 0.727672
vt 0.758945 0.727673
vt 0.758945 0.906115
vt 0.752021 0.906115
vt 0.765800 0.727673
vt 0.765800 0.906115
vt 0.772588 0.727673
vt 0.772588 0.906114
vt 0.779308 0.727673
vt 0.779308 0.906114
vt 0.785962 0.727673
vt 0.785962 0.906114
vt 0.792549 0.727673
vt 0.792549 0.906114
vt 0.799071 0.727673
vt 0.799071 0.906114
vt 0.805529 0.727673
vt 0.805529 0.906114
vt 0.811922 0.727673
vt 0.811922 0.906115
vt 0.818252 0.727672
vt 0.818252 0.906114
vt 0.824519 0.727672
vt 0.824519 0.906114
vt 0.830723 0.727672
vt 0.830723 0.906114
vt 0.881777 0.727672
vt 0.869832 0.727672
vt 0.869832 0.549230
vt 0.881777 0.549230
vt 0.858239 0.727672
vt 0.858239 0.549230
vt 0.847195 0.727672
vt 0.847195 0.549230
vt 0.836900 0.727672
vt 0.836900 0.549230
vt 0.827551 0.727672
vt 0.827551 0.549230
vt 0.819348 0.727672
vt 0.819348 0.549230
vt 0.812489 0.727672
vt 0.812489 0.549230
vt 0.807171 0.727672
vt 0.807171 0.549230
vt 0.803595 0.727672
vt 0.803595 0.549230
vt 0.670076 0.973078
vt 0.666532 0.973078
vt 0.666532 0.794636
vt 0.670076 0.794636
vt 0.662858 0.973078
vt 0.662858 0.794636
vt 0.659144 0.973078
vt 0.659144 0.794636
vt 0.497249 0.992211
vt 0.493381 0.992211
vt 0.493381 0.813769
vt 0.497249 0.813769
vt 0.493146 0.992211
vt 0.489640 0.992211
vt 0.489640 0.813769
vt 0.493146 0.813769
vt 0.486459 0.992211
vt 0.486459 0.813769
vt 0.483605 0.992211
vt 0.483605 0.813769
vt 0.481080 0.992211
vt 0.481080 0.813769
vt 0.478885 0.992211
vt 0.478885 0.813769
vt 0.477023 0.992211
vt 0.477023 0.813769
vt 0.475496 0.992211
vt 0.475496 0.813769
vt 0.474305 0.992211
vt 0.474305 0.813769
vt 0.473451 0.992211
vt 0.473451 0.813769
vt 0.472938 0.992211
vt 0.472938 0.813769
vt 0.472767 0.992211
vt 0.472767 0.813769
vt 0.888978 0.906114
vt 0.882219 0.906115
vt 0.882219 0.727673
vt 0.888978 0.727673
vt 0.874869 0.906114
vt 0.874869 0.727673
vt 0.867211 0.906114
vt 0.867211 0.727673
vt 0.859529 0.906114
vt 0.859529 0.727672
vt 0.852109 0.906114
vt 0.852109 0.727673
vt 0.845234 0.906114
vt 0.845234 0.727672
vt 0.839189 0.906115
vt 0.839189 0.727673
vt 0.834257 0.906114
vt 0.834257 0.727673
vt 0.830723 0.906115
vt 0.830723 0.727673
vt 0.927496 0.549230
vt 0.929915 0.549230
vt 0.929915 0.727672
vt 0.927496 0.727672
vt 0.931788 0.549230
vt 0.931788 0.727672
vt 0.379075 0.992211
vt 0.376788 0.992211
vt 0.376788 0.813769
vt 0.379075 0.813769
vt 0.373008 0.992211
vt 0.373008 0.813769
vt 0.368807 0.992211
vt 0.368807 0.813769
vt 0.364330 0.992211
vt 0.364330 0.813769
vt 0.359718 0.992211
vt 0.359718 0.813769
vt 0.355115 0.992211
vt 0.355115 0.813769
vt 0.350663 0.992211
vt 0.350663 0.813769
vt 0.346504 0.992211
vt 0.346504 0.813769
vt 0.342782 0.992211
vt 0.342782 0.813769
vt 0.339639 0.992211
vt 0.339639 0.813769
vt 0.337217 0.992211
vt 0.337217 0.813769
vt 0.335659 0.992211
vt 0.335659 0.813769
vt 0.335108 0.992211
vt 0.335108 0.813769
vt 0.447116 0.813769
vt 0.447787 0.813769
vt 0.447787 0.992211
vt 0.447116 0.992211
vt 0.449646 0.813769
vt 0.449646 0.992211
vt 0.452462 0.813769
vt 0.452462 0.992211
vt 0.456002 0.813769
vt 0.456002 0.992211
vt 0.460034 0.813769
vt 0.460034 0.992211
vt 0.464327 0.813769
vt 0.464327 0.992211
vt 0.468648 0.813769
vt 0.468648 0.992211
vt 0.185782 1.000000
vt 0.182071 1.000000
vt 0.182071 0.821558
vt 0.185782 0.821558
vt 0.178405 1.000000
vt 0.178405 0.821558
vt 0.174883 1.000000
vt 0.174883 0.821558
vt 0.171609 1.000000
vt 0.171609 0.821558
vt 0.169462 1.000000
vt 0.169462 0.821558
vt 0.167554 1.000000
vt 0.167554 0.821558
vt 0.416568 0.992211
vt 0.414504 0.992211
vt 0.414504 0.813769
vt 0.416568 0.813769
vt 0.411701 0.992211
vt 0.411701 0.813769
vt 0.408295 0.992211
vt 0.408295 0.813769
vt 0.404425 0.992211
vt 0.404425 0.813769
vt 0.400225 0.992211
vt 0.400225 0.813769
vt 0.395833 0.992211
vt 0.395833 0.813769
vt 0.391385 0.992211
vt 0.391385 0.813769
vt 0.387018 0.992211
vt 0.387018 0.813769
vt 0.382870 0.992211
vt 0.382870 0.813769
vt 0.335108 0.762522
vt 0.502662 0.762522
vt 0.502662 0.813768
vt 0.335108 0.718072
vt 0.502662 0.718071
vt 0.335108 0.679971
vt 0.502662 0.679971
vt 0.335108 0.647775
vt 0.502662 0.647774
vt 0.335108 0.621036
vt 0.502662 0.621036
vt 0.335108 0.599310
vt 0.502662 0.599310
vt 0.335108 0.582150
vt 0.502662 0.582149
vt 0.335108 0.569109
vt 0.502662 0.569109
vt 0.335108 0.559743
vt 0.502662 0.559743
vt 0.335108 0.553606
vt 0.502662 0.553605
vt 0.335108 0.550250
vt 0.502662 0.550250
vt 0.335108 0.549230
vt 0.502662 0.549230
vt 0.502662 0.794636
vt 0.502662 0.663916
vt 0.670216 0.663915
vt 0.670216 0.794636
vt 0.502662 0.661659
vt 0.670216 0.661659
vt 0.502662 0.655420
vt 0.670216 0.655420
vt 0.502662 0.645996
vt 0.670216 0.645996
vt 0.502662 0.634182
vt 0.670216 0.634182
vt 0.502662 0.620776
vt 0.670216 0.620776
vt 0.502662 0.606573
vt 0.670216 0.606573
vt 0.502662 0.592370
vt 0.670216 0.592370
vt 0.502662 0.578964
vt 0.670216 0.578963
vt 0.502662 0.567150
vt 0.670216 0.567150
vt 0.502662 0.557726
vt 0.670216 0.557726
vt 0.502662 0.551487
vt 0.670216 0.551487
vt 0.670216 0.549230
vt 0.670216 0.549231
vt 0.684005 0.549230
vt 0.684005 0.727672
vt 0.670216 0.727672
vt 0.698550 0.549230
vt 0.698550 0.727672
vt 0.713478 0.549230
vt 0.713479 0.727672
vt 0.728417 0.549230
vt 0.728417 0.727672
vt 0.742994 0.549230
vt 0.742994 0.727672
vt 0.756836 0.549230
vt 0.756836 0.727672
vt 0.769571 0.549230
vt 0.769571 0.727672
vt 0.780826 0.549230
vt 0.780826 0.727672
vt 0.790228 0.549230
vt 0.790228 0.727672
vt 0.797406 0.549230
vt 0.797406 0.727672
vt 0.801985 0.549230
vt 0.801986 0.727672
vt 0.167554 0.794499
vt 0.335108 0.794499
vt 0.335108 0.821558
vt 0.167554 0.768255
vt 0.335108 0.768255
vt 0.167554 0.742820
vt 0.335108 0.742820
vt 0.167554 0.718188
vt 0.335108 0.718188
vt 0.167554 0.694351
vt 0.335108 0.694351
vt 0.167554 0.671303
vt 0.335108 0.671303
vt 0.167554 0.649038
vt 0.335108 0.649038
vt 0.167554 0.627550
vt 0.335108 0.627550
vt 0.167554 0.606831
vt 0.335108 0.606831
vt 0.167554 0.586876
vt 0.335108 0.586876
vt 0.167554 0.567678
vt 0.335108 0.567678
vt 0.499821 0.813769
vt 0.499821 0.992211
vt 0.502662 0.813769
vt 0.502662 0.992211
vt 0.444019 0.992211
vt 0.444019 0.813769
vt 0.440722 0.992211
vt 0.440722 0.813769
vt 0.437303 0.992211
vt 0.437303 0.813769
vt 0.433840 0.992211
vt 0.433840 0.813769
vt 0.430413 0.992211
vt 0.430413 0.813769
vt 0.427101 0.992211
vt 0.427101 0.813769
vt 0.423981 0.992211
vt 0.423981 0.813769
vt 0.421133 0.992211
vt 0.421133 0.813769
vt 0.418636 0.992211
vt 0.418636 0.813769
vt 0.656228 0.973078
vt 0.656228 0.794636
vt 0.652363 0.973078
vt 0.652363 0.794636
vt 0.647781 0.973078
vt 0.647781 0.794636
vt 0.642709 0.973078
vt 0.642709 0.794636
vt 0.637376 0.973078
vt 0.637376 0.794636
vt 0.632012 0.973078
vt 0.632012 0.794636
vt 0.626844 0.973078
vt 0.626844 0.794636
vt 0.622103 0.973078
vt 0.622103 0.794636
vt 0.618017 0.973078
vt 0.618017 0.794636
vt 0.614816 0.973078
vt 0.614816 0.794636
vt 0.612727 0.973078
vt 0.612727 0.794636
vt 0.611979 0.973078
vt 0.611979 0.794636
vt 0.927496 0.727673
vt 0.926890 0.727672
vt 0.926890 0.549230
vt 0.925184 0.727672
vt 0.925184 0.549230
vt 0.922554 0.727672
vt 0.922554 0.549230
vt 0.919171 0.727673
vt 0.919171 0.549231
vt 0.915210 0.727672
vt 0.915210 0.549230
vt 0.910843 0.727672
vt 0.910843 0.549230
vt 0.906243 0.727672
vt 0.906243 0.549230
vt 0.901584 0.727672
vt 0.901584 0.549230
vt 0.897039 0.727672
vt 0.897038 0.549230
vt 0.892780 0.727672
vt 0.892780 0.549230
vt 0.888981 0.727672
vt 0.888981 0.549230
vt 0.885816 0.727672
vt 0.885816 0.549230
vt 0.883419 0.727672
vt 0.883419 0.549230
vt 0.881777 0.727673
vt 0.560238 0.973078
vt 0.557313 0.973078
vt 0.557313 0.794636
vt 0.560238 0.794636
vt 0.552959 0.973078
vt 0.552959 0.794636
vt 0.547476 0.973078
vt 0.547476 0.794636
vt 0.541163 0.973078
vt 0.541163 0.794636
vt 0.534321 0.973078
vt 0.534321 0.794636
vt 0.527250 0.973078
vt 0.527250 0.794636
vt 0.520248 0.973078
vt 0.520248 0.794636
vt 0.513617 0.973078
vt 0.513617 0.794636
vt 0.507655 0.973078
vt 0.507655 0.794636
vt 0.502662 0.973078
vt 0.930398 0.906115
vt 0.930202 0.906115
vt 0.930202 0.727673
vt 0.930398 0.727673
vt 0.929602 0.906115
vt 0.929602 0.727673
vt 0.928580 0.906115
vt 0.928580 0.727673
vt 0.927116 0.906115
vt 0.927116 0.727673
vt 0.925193 0.906115
vt 0.925193 0.727673
vt 0.922790 0.906115
vt 0.922790 0.727673
vt 0.919890 0.906115
vt 0.919890 0.727673
vt 0.916473 0.906115
vt 0.916473 0.727673
vt 0.912522 0.906115
vt 0.912521 0.727673
vt 0.908016 0.906115
vt 0.908016 0.727672
vt 0.902938 0.906115
vt 0.902938 0.727673
vt 0.897269 0.906114
vt 0.897269 0.727673
vt 0.892387 0.906115
vt 0.892387 0.727673
vt 0.888978 0.906115
vt 0.563900 0.794636
vt 0.563900 0.973078
vt 0.568780 0.794636
vt 0.568780 0.973078
vt 0.574669 0.794636
vt 0.574669 0.973078
vt 0.581359 0.794636
vt 0.581359 0.973078
vt 0.588643 0.794636
vt 0.588643 0.973078
vt 0.596313 0.794636
vt 0.596313 0.973078
vt 0.604161 0.794636
vt 0.604161 0.973078
vt 0.185783 0.821558
vt 0.194087 0.821558
vt 0.194087 1.000000
vt 0.203391 0.821558
vt 0.203391 1.000000
vt 0.752021 0.906114
vt 0.752021 0.727673
s 1
usemtl Meeple
f 1/1/1 2/2/1 3/3/1
f 4/4/1 2/2/1 1/1/1
f 5/5/1 2/2/1 4/4/1
f 6/6/1 2/2/1 5/5/1
f 7/7/1 2/2/1 6/6/1
f 8/8/1 9/9/1 10/10/1
f 11/11/1 9/9/1 8/8/1
f 12/12/1 9/9/1 11/11/1
f 13/13/1 2/2/1 7/7/1
f 13/13/1 14/14/1 2/2/1
f 15/15/1 9/9/1 12/12/1
f 16/16/1 14/14/1 13/13/1
f 17/17/1 9/9/1 15/15/1
f 18/18/1 14/14/1 16/16/1
f 19/19/1 9/9/1 17/17/1
f 18/18/1 20/20/1 14/14/1
f 21/21/1 20/20/1 18/18/1
f 22/22/1 9/9/1 19/19/1
f 23/23/1 20/20/1 21/21/1
f 23/23/1 24/24/1 20/20/1
f 25/25/1 24/24/1 23/23/1
f 26/26/1 9/9/1 22/22/1
f 27/27/1 24/24/1 25/25/1
f 27/27/1 28/28/1 24/24/1
f 29/29/1 28/28/1 27/27/1
f 30/30/1 28/28/1 29/29/1
f 31/31/1 28/28/1 30/30/1
f 32/32/1 28/28/1 31/31/1
f 33/33/1 28/28/1 32/32/1
f 34/34/1 28/28/1 33/33/1
f 35/35/1 28/28/1 34/34/1
f 36/36/1 28/28/1 35/35/1
f 37/37/1 28/28/1 36/36/1
f 38/38/1 28/28/1 37/37/1
f 39/39/1 28/28/1 38/38/1
f 9/9/1 28/28/1 39/39/1
f 26/26/1 28/28/1 9/9/1
f 40/40/1 28/28/1 26/26/1
f 40/40/1 41/41/1 28/28/1
f 42/42/1 41/41/1 40/40/1
f 42/42/1 43/43/1 41/41/1
f 42/42/1 44/44/1 43/43/1
f 45/45/1 44/44/1 42/42/1
f 45/45/1 46/46/1 44/44/1
f 45/45/1 47/47/1 46/46/1
f 48/48/1 47/47/1 45/45/1
f 48/48/1 49/49/1 47/47/1
f 48/48/1 50/50/1 49/49/1
f 51/51/1 52/52/1 53/53/1
f 54/54/1 55/55/1 56/56/1
f 54/54/1 57/57/1 55/55/1
f 58/58/1 52/52/1 51/51/1
f 58/58/1 59/59/1 52/52/1
f 60/60/1 57/57/1 54/54/1
f 60/60/1 61/61/1 57/57/1
f 62/62/1 59/59/1 58/58/1
f 62/62/1 63/63/1 59/59/1
f 64/64/1 61/61/1 60/60/1
f 62/62/1 65/65/1 63/63/1
f 64/64/1 66/66/1 61/61/1
f 67/67/1 65/65/1 62/62/1
f 68/68/1 66/66/1 64/64/1
f 67/67/1 69/69/1 65/65/1
f 70/70/1 66/66/1 68/68/1
f 71/71/1 69/69/1 67/67/1
f 70/70/1 72/72/1 66/66/1
f 71/71/1 73/73/1 69/69/1
f 74/74/1 72/72/1 70/70/1
f 71/71/1 75/75/1 73/73/1
f 76/76/1 72/72/1 74/74/1
f 71/71/1 48/48/1 75/75/1
f 77/77/1 48/48/1 71/71/1
f 76/76/1 78/78/1 72/72/1
f 50/50/1 78/78/1 76/76/1
f 77/77/1 50/50/1 48/48/1
f 77/77/1 78/78/1 50/50/1
f 79/79/1 78/78/1 77/77/1
f 79/79/1 80/80/1 78/78/1
f 81/81/1 80/80/1 79/79/1
f 81/81/1 82/82/1 80/80/1
f 83/83/1 82/82/1 81/81/1
f 83/83/1 84/84/1 82/82/1
f 85/85/1 84/84/1 83/83/1
f 85/85/1 86/86/1 84/84/1
f 87/87/1 86/86/1 85/85/1
f 87/87/1 88/88/1 86/86/1
f 89/89/1 88/88/1 87/87/1
f 89/89/1 90/90/1 88/88/1
f 91/91/1 90/90/1 89/89/1
f 91/91/1 92/92/1 90/90/1
f 93/93/1 92/92/1 91/91/1
f 93/93/1 94/94/1 92/92/1
f 95/95/1 94/94/1 93/93/1
f 95/95/1 96/96/1 94/94/1
f 97/97/1 96/96/1 95/95/1
f 97/97/1 98/98/1 96/96/1
f 99/99/1 100/100/1 101/101/1
f 102/102/1 98/98/1 97/97/1
f 102/102/1 103/103/1 98/98/1
f 104/104/1 105/105/1 106/106/1
f 107/107/1 103/103/1 102/102/1
f 107/107/1 108/108/1 103/103/1
f 109/109/1 100/100/1 99/99/1
f 104/104/1 110/110/1 105/105/1
f 111/111/1 108/108/1 107/107/1
f 111/111/1 112/112/1 108/108/1
f 113/113/1 112/112/1 111/111/1
f 113/113/1 114/114/1 112/112/1
f 109/109/1 115/115/1 100/100/1
f 116/116/1 110/110/1 104/104/1
f 117/117/1 114/114/1 113/113/1
f 117/117/1 118/118/1 114/114/1
f 119/119/1 118/118/1 117/117/1
f 119/119/1 120/120/1 118/118/1
f 109/109/1 121/121/1 115/115/1
f 122/122/1 110/110/1 116/116/1
f 123/123/1 120/120/1 119/119/1
f 123/123/1 124/124/1 120/120/1
f 109/109/1 125/125/1 121/121/1
f 125/125/1 124/124/1 123/123/1
f 126/126/1 110/110/1 122/122/1
f 125/125/1 126/126/1 124/124/1
f 109/109/1 126/126/1 125/125/1
f 109/109/1 110/110/1 126/126/1
f 127/127/1 110/110/1 109/109/1
f 127/127/1 128/128/1 110/110/1
f 129/129/1 128/128/1 127/127/1
f 129/129/1 130/130/1 128/128/1
f 131/131/1 130/130/1 129/129/1
f 131/131/1 132/132/1 130/130/1
f 133/133/1 132/132/1 131/131/1
f 133/133/1 134/134/1 132/132/1
f 135/135/1 134/134/1 133/133/1
f 135/135/1 136/136/1 134/134/1
f 137/137/1 136/136/1 135/135/1
f 137/137/1 138/138/1 136/136/1
f 139/139/1 138/138/1 137/137/1
f 139/139/1 140/140/1 138/138/1
f 141/141/1 140/140/1 139/139/1
f 141/141/1 142/142/1 140/140/1
f 143/143/1 142/142/1 141/141/1
f 143/143/1 144/144/1 142/142/1
f 145/145/1 144/144/1 143/143/1
f 145/145/1 146/146/1 144/144/1
f 147/147/1 146/146/1 145/145/1
f 147/147/1 148/148/1 146/146/1
f 149/149/1 148/148/1 147/147/1
f 149/149/1 150/150/1 148/148/1
f 151/151/1 150/150/1 149/149/1
f 151/151/1 152/152/1 150/150/1
f 153/153/1 152/152/1 151/151/1
f 153/153/1 154/154/1 152/152/1
f 155/155/1 154/154/1 153/153/1
f 155/155/1 156/156/1 154/154/1
f 157/157/1 156/156/1 155/155/1
f 157/157/1 158/158/1 156/156/1
f 159/159/1 158/158/1 157/157/1
f 159/159/1 160/160/1 158/158/1
f 161/161/1 160/160/1 159/159/1
f 161/161/1 162/162/1 160/160/1
f 163/163/1 162/162/1 161/161/1
f 163/163/1 164/164/1 162/162/1
f 165/165/1 164/164/1 163/163/1
f 165/165/1 166/166/1 164/164/1
f 167/167/1 166/166/1 165/165/1
f 167/167/1 168/168/1 166/166/1
f 169/169/1 168/168/1 167/167/1
f 169/169/1 170/170/1 168/168/1
f 171/171/1 170/170/1 169/169/1
f 171/171/1 172/172/1 170/170/1
f 173/173/1 172/172/1 171/171/1
f 173/173/1 174/174/1 172/172/1
f 175/175/1 174/174/1 173/173/1
f 175/175/1 176/176/1 174/174/1
f 177/177/1 176/176/1 175/175/1
f 177/177/1 178/178/1 176/176/1
f 179/179/1 178/178/1 177/177/1
f 179/179/1 180/180/1 178/178/1
f 181/181/1 180/180/1 179/179/1
f 181/181/1 182/182/1 180/180/1
f 183/183/1 182/182/1 181/181/1
f 183/183/1 184/184/1 182/182/1
f 185/185/1 184/184/1 183/183/1
f 185/185/1 186/186/1 184/184/1
f 187/187/1 186/186/1 185/185/1
f 187/187/1 188/188/1 186/186/1
f 189/189/1 188/188/1 187/187/1
f 189/189/1 190/190/1 188/188/1
f 191/191/1 190/190/1 189/189/1
f 191/191/1 192/192/1 190/190/1
f 193/193/1 192/192/1 191/191/1
f 193/193/1 194/194/1 192/192/1
f 195/195/1 194/194/1 193/193/1
f 195/195/1 196/196/1 194/194/1
f 197/197/1 196/196/1 195/195/1
f 198/198/1 196/196/1 197/197/1
f 198/198/1 199/199/1 196/196/1
f 200/200/1 199/199/1 198/198/1
f 201/201/1 199/199/1 200/200/1
f 201/201/1 202/202/1 199/199/1
f 203/203/1 202/202/1 201/201/1
f 203/203/1 204/204/1 202/202/1
f 205/205/1 204/204/1 203/203/1
f 206/206/1 204/204/1 205/205/1
f 206/206/1 207/207/1 204/204/1
f 208/208/1 207/207/1 206/206/1
f 208/208/1 209/209/1 207/207/1
f 210/210/1 209/209/1 208/208/1
f 210/210/1 211/211/1 209/209/1
f 212/212/1 211/211/1 210/210/1
f 212/212/1 213/213/1 211/211/1
f 212/212/1 214/214/1 213/213/1
f 215/215/1 214/214/1 212/212/1
f 215/215/1 216/216/1 214/214/1
f 215/215/1 217/217/1 216/216/1
f 215/215/1 218/218/1 217/217/1
s 0
f 219/219/2 218/219/2 215/219/2
f 220/219/1 218/219/1 219/219/1
f 221/219/1 218/219/1 220/219/1
f 222/219/1 218/219/1 221/219/1
f 223/219/1 218/219/1 222/219/1
f 224/219/1 218/219/1 223/219/1
f 225/219/1 218/219/1 224/219/1
f 226/219/1 218/219/1 225/219/1
f 227/219/1 218/219/1 226/219/1
f 228/219/1 218/219/1 227/219/1
f 229/219/1 218/219/1 228/219/1
s 1
f 230/220/2 231/221/2 232/222/2
f 230/220/2 233/223/2 231/221/2
f 230/220/2 234/224/2 233/223/2
f 230/220/2 235/225/2 234/224/2
f 230/220/2 236/226/2 235/225/2
f 237/227/2 238/228/2 239/229/2
f 237/227/2 240/230/2 238/228/2
f 237/227/2 241/231/2 240/230/2
f 230/220/2 242/232/2 236/226/2
f 243/233/2 242/232/2 230/220/2
f 237/227/2 244/234/2 241/231/2
f 243/233/2 245/235/2 242/232/2
f 237/227/2 246/236/2 244/234/2
f 243/233/2 247/237/2 245/235/2
f 237/227/2 248/238/2 246/236/2
f 249/239/2 247/237/2 243/233/2
f 249/239/2 250/240/2 247/237/2
f 237/227/2 251/241/2 248/238/2
f 249/239/2 252/242/2 250/240/2
f 253/243/2 252/242/2 249/239/2
f 253/243/2 254/244/2 252/242/2
f 237/227/2 255/245/2 251/241/2
f 253/243/2 256/246/2 254/244/2
f 257/247/2 256/246/2 253/243/2
f 257/247/2 258/248/2 256/246/2
f 257/247/2 259/249/2 258/248/2
f 257/247/2 260/250/2 259/249/2
f 257/247/2 261/251/2 260/250/2
f 257/247/2 262/252/2 261/251/2
f 257/247/2 263/253/2 262/252/2
f 257/247/2 264/254/2 263/253/2
f 257/247/2 265/255/2 264/254/2
f 257/247/2 266/256/2 265/255/2
f 257/247/2 267/257/2 266/256/2
f 257/247/2 268/258/2 267/257/2
f 257/247/2 237/227/2 268/258/2
f 257/247/2 255/245/2 237/227/2
f 257/247/2 269/259/2 255/245/2
f 270/260/2 269/259/2 257/247/2
f 270/260/2 271/261/2 269/259/2
f 272/262/2 271/261/2 270/260/2
f 273/263/2 271/261/2 272/262/2
f 273/263/2 274/264/2 271/261/2
f 275/265/2 274/264/2 273/263/2
f 276/266/2 274/264/2 275/265/2
f 276/266/2 277/267/2 274/264/2
f 278/268/2 277/267/2 276/266/2
f 279/269/2 277/267/2 278/268/2
f 280/270/2 281/271/2 282/272/2
f 283/273/2 284/274/2 285/275/2
f 286/276/2 284/274/2 283/273/2
f 280/270/2 287/277/2 281/271/2
f 288/278/2 287/277/2 280/270/2
f 286/276/2 289/279/2 284/274/2
f 290/280/2 289/279/2 286/276/2
f 288/278/2 291/281/2 287/277/2
f 292/282/2 291/281/2 288/278/2
f 290/280/2 293/283/2 289/279/2
f 294/284/2 291/281/2 292/282/2
f 295/285/2 293/283/2 290/280/2
f 294/284/2 296/286/2 291/281/2
f 295/285/2 297/287/2 293/283/2
f 298/288/2 296/286/2 294/284/2
f 295/285/2 299/289/2 297/287/2
f 298/288/2 300/290/2 296/286/2
f 301/291/2 299/289/2 295/285/2
f 302/292/2 300/290/2 298/288/2
f 301/291/2 303/293/2 299/289/2
f 304/294/2 300/290/2 302/292/2
f 301/291/2 305/295/2 303/293/2
f 277/267/2 300/290/2 304/294/2
f 277/267/2 306/296/2 300/290/2
f 307/297/2 305/295/2 301/291/2
f 307/297/2 279/269/2 305/295/2
f 279/269/2 306/296/2 277/267/2
f 307/297/2 306/296/2 279/269/2
f 307/297/2 308/298/2 306/296/2
f 309/299/2 308/298/2 307/297/2
f 309/299/2 310/300/2 308/298/2
f 311/301/2 310/300/2 309/299/2
f 311/301/2 312/302/2 310/300/2
f 313/303/2 312/302/2 311/301/2
f 313/303/2 314/304/2 312/302/2
f 315/305/2 314/304/2 313/303/2
f 315/305/2 316/306/2 314/304/2
f 317/307/2 316/306/2 315/305/2
f 317/307/2 318/308/2 316/306/2
f 319/309/2 318/308/2 317/307/2
f 319/309/2 320/310/2 318/308/2
f 321/311/2 320/310/2 319/309/2
f 321/311/2 322/312/2 320/310/2
f 323/313/2 322/312/2 321/311/2
f 323/313/2 324/314/2 322/312/2
f 325/315/2 324/314/2 323/313/2
f 325/315/2 326/316/2 324/314/2
f 327/317/2 326/316/2 325/315/2
f 328/318/2 329/319/2 330/320/2
f 327/317/2 331/321/2 326/316/2
f 332/322/2 331/321/2 327/317/2
f 333/323/2 334/324/2 335/325/2
f 332/322/2 336/326/2 331/321/2
f 337/327/2 336/326/2 332/322/2
f 328/318/2 338/109/2 329/319/2
f 339/328/2 334/324/2 333/323/2
f 337/327/2 340/329/2 336/326/2
f 341/330/2 340/329/2 337/327/2
f 341/330/2 342/331/2 340/329/2
f 343/332/2 342/331/2 341/330/2
f 344/333/2 338/109/2 328/318/2
f 339/328/2 345/334/2 334/324/2
f 343/332/2 346/335/2 342/331/2
f 347/336/2 346/335/2 343/332/2
f 347/336/2 348/337/2 346/335/2
f 349/338/2 348/337/2 347/336/2
f 350/339/2 338/109/2 344/333/2
f 339/328/2 351/340/2 345/334/2
f 349/338/2 352/341/2 348/337/2
f 353/342/2 352/341/2 349/338/2
f 354/343/2 338/109/2 350/339/2
f 353/342/2 354/343/2 352/341/2
f 339/328/2 355/344/2 351/340/2
f 355/344/2 354/343/2 353/342/2
f 355/344/2 338/109/2 354/343/2
f 339/328/2 338/109/2 355/344/2
f 339/328/2 356/345/2 338/109/2
f 357/346/2 356/345/2 339/328/2
f 357/346/2 358/347/2 356/345/2
f 359/348/2 358/347/2 357/346/2
f 359/348/2 360/349/2 358/347/2
f 361/350/2 360/349/2 359/348/2
f 361/350/2 362/351/2 360/349/2
f 363/352/2 362/351/2 361/350/2
f 363/352/2 364/353/2 362/351/2
f 365/354/2 364/353/2 363/352/2
f 365/354/2 366/355/2 364/353/2
f 367/356/2 366/355/2 365/354/2
f 367/356/2 368/357/2 366/355/2
f 369/358/2 368/357/2 367/356/2
f 369/358/2 370/359/2 368/357/2
f 371/360/2 370/359/2 369/358/2
f 371/360/2 372/361/2 370/359/2
f 373/362/2 372/361/2 371/360/2
f 373/362/2 374/363/2 372/361/2
f 375/364/2 374/363/2 373/362/2
f 375/364/2 376/365/2 374/363/2
f 377/366/2 376/365/2 375/364/2
f 377/366/2 378/367/2 376/365/2
f 379/368/2 378/367/2 377/366/2
f 379/368/2 380/369/2 378/367/2
f 381/370/2 380/369/2 379/368/2
f 381/370/2 382/371/2 380/369/2
f 383/372/2 382/371/2 381/370/2
f 383/372/2 384/373/2 382/371/2
f 385/374/2 384/373/2 383/372/2
f 385/374/2 386/375/2 384/373/2
f 387/376/2 386/375/2 385/374/2
f 387/376/2 388/377/2 386/375/2
f 389/378/2 388/377/2 387/376/2
f 389/378/2 390/379/2 388/377/2
f 391/380/2 390/379/2 389/378/2
f 391/380/2 392/381/2 390/379/2
f 393/382/2 392/381/2 391/380/2
f 393/382/2 394/383/2 392/381/2
f 395/384/2 394/383/2 393/382/2
f 395/384/2 396/385/2 394/383/2
f 397/386/2 396/385/2 395/384/2
f 397/386/2 398/387/2 396/385/2
f 399/388/2 398/387/2 397/386/2
f 399/388/2 400/389/2 398/387/2
f 401/390/2 400/389/2 399/388/2
f 401/390/2 402/391/2 400/389/2
f 403/392/2 402/391/2 401/390/2
f 403/392/2 404/393/2 402/391/2
f 405/394/2 404/393/2 403/392/2
f 405/394/2 406/395/2 404/393/2
f 407/396/2 406/395/2 405/394/2
f 407/396/2 408/397/2 406/395/2
f 409/398/2 408/397/2 407/396/2
f 409/398/2 410/399/2 408/397/2
f 411/400/2 410/399/2 409/398/2
f 411/400/2 412/401/2 410/399/2
f 413/402/2 412/401/2 411/400/2
f 413/402/2 414/403/2 412/401/2
f 415/404/2 414/403/2 413/402/2
f 415/404/2 416/405/2 414/403/2
f 417/406/2 416/405/2 415/404/2
f 417/406/2 418/407/2 416/405/2
f 419/408/2 418/407/2 417/406/2
f 419/408/2 420/409/2 418/407/2
f 421/410/2 420/409/2 419/408/2
f 421/410/2 422/411/2 420/409/2
f 423/412/2 422/411/2 421/410/2
f 423/412/2 424/413/2 422/411/2
f 425/414/2 424/413/2 423/412/2
f 425/414/2 426/415/2 424/413/2
f 425/414/2 427/416/2 426/415/2
f 428/417/2 427/416/2 425/414/2
f 428/417/2 429/418/2 427/416/2
f 428/417/2 430/419/2 429/418/2
f 431/420/2 430/419/2 428/417/2
f 431/420/2 432/421/2 430/419/2
f 433/422/2 432/421/2 431/420/2
f 433/422/2 434/423/2 432/421/2
f 433/422/2 435/424/2 434/423/2
f 436/425/2 435/424/2 433/422/2
f 436/425/2 437/426/2 435/424/2
f 438/427/2 437/426/2 436/425/2
f 438/427/2 439/428/2 437/426/2
f 440/429/2 439/428/2 438/427/2
f 440/429/2 441/430/2 439/428/2
f 442/431/2 441/430/2 440/429/2
f 443/432/2 441/430/2 442/431/2
f 443/432/2 444/433/2 441/430/2
f 445/434/2 444/433/2 443/432/2
f 446/435/2 444/433/2 445/434/2
f 447/436/2 444/433/2 446/435/2
s 0
f 447/219/1 448/219/1 444/219/1
f 447/219/1 449/219/1 448/219/1
f 447/219/1 450/219/1 449/219/1
f 447/219/1 451/219/1 450/219/1
f 447/219/1 452/219/1 451/219/1
f 447/219/2 453/219/2 452/219/2
f 447/219/1 454/219/1 453/219/1
f 447/219/1 455/219/1 454/219/1
f 447/219/2 456/219/2 455/219/2
f 447/219/1 457/219/1 456/219/1
f 447/219/1 458/219/1 457/219/1
s 1
f 459/437/3 460/438/4 461/439/4 462/440/3
f 460/438/4 463/441/5 464/442/5 461/439/4
f 463/441/5 465/443/6 466/444/6 464/442/5
f 465/443/6 467/445/7 468/446/7 466/444/6
f 467/445/7 469/447/8 470/448/8 468/446/7
f 469/447/8 471/449/9 472/450/9 470/448/8
f 471/449/9 473/451/10 474/452/10 472/450/9
f 473/451/10 475/453/11 476/454/11 474/452/10
f 475/453/11 477/455/12 478/456/12 476/454/11
f 477/455/12 479/457/13 480/458/13 478/456/12
f 479/457/13 481/459/14 482/460/14 480/458/13
f 481/461/14 483/462/15 484/463/15 482/464/14
f 483/462/15 485/465/15 486/466/15 484/463/15
f 485/465/15 487/467/15 488/468/15 486/466/15
f 487/467/15 489/469/15 490/470/15 488/468/15
f 489/469/15 491/471/15 492/472/15 490/470/15
f 491/471/15 493/473/15 494/474/15 492/472/15
f 493/473/15 495/475/15 496/476/15 494/474/15
f 495/475/15 497/477/15 498/478/15 496/476/15
f 497/477/15 499/479/15 500/480/15 498/478/15
f 499/479/15 501/481/15 502/482/15 500/480/15
f 501/481/15 503/483/15 504/484/15 502/482/15
f 503/483/15 505/485/16 506/486/16 504/484/15
f 505/487/16 507/488/17 508/489/17 506/490/16
f 507/488/17 509/491/18 510/492/18 508/489/17
f 509/491/18 511/493/19 512/494/19 510/492/18
f 511/493/19 513/495/20 514/496/20 512/494/19
f 513/495/20 515/497/21 516/498/21 514/496/20
f 515/497/21 517/499/22 518/500/22 516/498/21
f 517/499/22 519/501/23 520/502/23 518/500/22
f 519/501/23 521/503/24 522/504/24 520/502/23
f 521/503/24 523/505/25 524/506/25 522/504/24
f 523/505/25 525/507/26 526/508/26 524/506/25
f 525/507/26 527/509/27 528/510/27 526/508/26
f 527/509/27 529/511/28 530/512/28 528/510/27
f 529/513/28 531/514/29 532/515/29 530/516/28
f 531/514/29 533/517/30 534/518/30 532/515/29
f 533/517/30 535/519/31 536/520/31 534/518/30
f 535/519/31 537/521/32 538/522/32 536/520/31
f 537/521/32 539/523/33 540/524/33 538/522/32
f 539/523/33 541/525/34 542/526/34 540/524/33
f 541/525/34 543/527/35 544/528/35 542/526/34
f 543/527/35 545/529/36 546/530/36 544/528/35
f 545/529/36 547/531/37 548/532/37 546/530/36
f 547/533/37 549/534/38 550/535/38 548/536/37
f 549/534/38 551/537/39 552/538/39 550/535/38
f 551/537/39 553/539/40 554/540/40 552/538/39
f 553/541/40 555/542/41 556/543/41 554/544/40
f 555/545/41 557/546/42 558/547/42 556/548/41
f 557/546/42 559/549/43 560/550/43 558/547/42
f 559/549/43 561/551/44 562/552/44 560/550/43
f 561/551/44 563/553/45 564/554/45 562/552/44
f 563/553/45 565/555/46 566/556/46 564/554/45
f 565/555/46 567/557/47 568/558/47 566/556/46
f 567/557/47 569/559/48 570/560/48 568/558/47
f 569/559/48 571/561/49 572/562/49 570/560/48
f 571/561/49 573/563/50 574/564/50 572/562/49
f 573/563/50 575/565/51 576/566/51 574/564/50
f 575/565/51 577/567/52 578/568/52 576/566/51
f 577/569/52 579/570/53 580/571/53 578/572/52
f 579/570/53 581/573/54 582/574/54 580/571/53
f 581/573/54 583/575/55 584/576/55 582/574/54
f 583/575/55 585/577/56 586/578/56 584/576/55
f 585/577/56 587/579/57 588/580/57 586/578/56
f 587/579/57 589/581/58 590/582/58 588/580/57
f 589/581/58 591/583/59 592/584/59 590/582/58
f 591/583/59 593/585/60 594/586/60 592/584/59
f 593/585/60 595/587/61 596/588/61 594/586/60
f 595/589/61 597/590/62 598/591/62 596/592/61
f 597/590/62 599/593/63 600/594/63 598/591/62
f 599/595/63 601/596/64 602/597/64 600/598/63
f 601/596/64 603/599/65 604/600/65 602/597/64
f 603/599/65 605/601/66 606/602/66 604/600/65
f 605/601/66 607/603/67 608/604/67 606/602/66
f 607/603/67 609/605/68 610/606/68 608/604/67
f 609/605/68 611/607/69 612/608/69 610/606/68
f 611/607/69 613/609/70 614/610/70 612/608/69
f 613/609/70 615/611/71 616/612/71 614/610/70
f 615/611/71 617/613/72 618/614/72 616/612/71
f 617/613/72 619/615/73 620/616/73 618/614/72
f 619/615/73 621/617/74 622/618/74 620/616/73
f 621/617/74 623/619/75 624/620/75 622/618/74
f 623/619/75 625/621/76 626/622/76 624/620/75
f 625/623/76 627/624/77 628/625/77 626/626/76
f 627/624/77 629/627/78 630/628/78 628/625/77
f 629/627/78 631/629/79 632/630/79 630/628/78
f 631/629/79 633/631/80 634/632/80 632/630/79
f 633/631/80 635/633/81 636/634/81 634/632/80
f 635/633/81 637/635/82 638/636/82 636/634/81
f 637/635/82 639/637/83 640/638/83 638/636/82
f 639/637/83 641/568/84 642/567/84 640/638/83
f 641/639/84 643/640/85 644/641/85 642/642/84
f 643/640/85 645/643/86 646/644/86 644/641/85
f 645/643/86 647/645/87 648/646/87 646/644/86
f 647/645/87 649/647/88 650/648/88 648/646/87
f 649/647/88 651/649/89 652/650/89 650/648/88
f 651/649/89 653/651/90 654/652/90 652/650/89
f 653/653/90 655/654/91 656/655/91 654/656/90
f 655/654/91 657/657/92 658/658/92 656/655/91
f 657/657/92 659/659/93 660/660/93 658/658/92
f 659/659/93 661/661/94 662/662/94 660/660/93
f 661/661/94 663/663/95 664/664/95 662/662/94
f 663/663/95 665/665/96 666/666/96 664/664/95
f 665/665/96 667/667/97 668/668/97 666/666/96
f 667/667/97 669/669/98 670/670/98 668/668/97
f 669/669/98 671/671/99 672/672/99 670/670/98
f 671/671/99 673/595/100 674/598/100 672/672/99
f 673/622/100 675/673/101 676/674/101 674/675/100
f 675/673/101 677/676/102 678/677/102 676/674/101
f 677/676/102 679/678/103 680/679/103 678/677/102
f 679/678/103 681/680/104 682/681/105 680/679/103
f 681/680/104 683/682/106 684/683/106 682/681/105
f 683/682/106 685/684/107 686/685/108 684/683/106
f 685/684/107 687/686/109 688/687/109 686/685/108
f 687/686/109 689/688/110 690/689/110 688/687/109
f 689/688/110 691/690/111 692/691/112 690/689/110
f 691/690/111 693/692/113 694/693/113 692/691/112
f 693/692/113 695/694/114 696/695/114 694/693/113
f 695/694/114 697/696/115 698/697/116 696/695/114
f 697/698/115 699/699/117 700/700/118 698/701/116
f 699/699/117 701/702/119 702/703/119 700/700/118
f 701/702/119 703/704/120 704/705/121 702/703/119
f 703/704/120 705/706/122 706/707/123 704/705/121
f 705/706/122 707/708/124 708/709/125 706/707/123
f 707/708/124 709/710/126 710/711/127 708/709/125
f 709/710/126 711/712/128 712/713/128 710/711/127
f 711/712/128 713/714/129 714/715/129 712/713/128
f 713/714/129 715/716/130 716/717/131 714/715/129
f 715/716/130 717/718/132 718/719/132 716/717/131
f 717/718/132 719/720/133 720/721/134 718/719/132
f 719/720/133 721/722/135 722/723/136 720/721/134
f 721/722/135 723/697/137 724/724/138 722/723/136
f 723/725/137 725/726/139 726/727/139 724/728/138
f 725/726/139 727/729/140 728/730/140 726/727/139
f 727/729/140 729/731/141 730/732/141 728/730/140
f 729/731/141 731/733/142 732/734/142 730/732/141
f 731/733/142 733/735/143 734/736/143 732/734/142
f 733/735/143 735/737/144 736/738/144 734/736/143
f 735/737/144 737/739/145 738/740/146 736/738/144
f 737/739/145 739/741/147 740/742/147 738/740/146
f 739/741/147 741/743/148 742/744/148 740/742/147
f 741/743/148 743/745/149 744/746/149 742/744/148
f 743/745/149 745/747/150 746/748/150 744/746/149
f 745/747/150 747/532/151 748/531/151 746/748/150
f 747/652/151 749/749/152 750/750/152 748/751/151
f 749/749/152 751/752/153 752/753/153 750/750/152
f 751/752/153 753/754/154 754/755/154 752/753/153
f 753/754/154 755/756/155 756/757/155 754/755/154
f 755/756/155 757/758/156 758/759/156 756/757/155
f 757/758/156 759/760/157 760/761/157 758/759/156
f 759/760/157 761/762/158 762/763/158 760/761/157
f 761/762/158 763/764/159 764/765/159 762/763/158
f 763/764/159 765/766/160 766/767/160 764/765/159
f 765/766/160 767/768/161 768/769/161 766/767/160
f 767/768/161 769/770/162 770/771/162 768/769/161
f 769/770/162 771/486/163 772/696/163 770/771/162
f 771/544/163 773/772/164 774/773/164 772/541/163
f 773/772/164 775/774/165 776/775/165 774/773/164
f 775/626/165 777/776/166 778/777/166 776/623/165
f 777/776/166 779/778/167 780/779/167 778/777/166
f 779/778/167 781/780/168 782/781/168 780/779/167
f 781/780/168 783/782/169 784/783/169 782/781/168
f 783/782/169 785/784/170 786/785/170 784/783/169
f 785/784/170 787/786/171 788/787/171 786/785/170
f 787/786/171 789/788/172 790/789/172 788/787/171
f 789/788/172 791/790/173 792/791/173 790/789/172
f 791/790/173 793/792/174 794/793/174 792/791/173
f 793/792/174 795/653/175 796/656/175 794/793/174
f 795/539/175 797/794/176 798/795/176 796/540/175
f 797/794/176 799/796/177 800/797/177 798/795/176
f 799/796/177 801/798/178 802/799/178 800/797/177
f 801/798/178 803/800/179 804/801/179 802/799/178
f 803/800/179 805/802/180 806/803/180 804/801/179
f 805/802/180 807/804/181 808/805/181 806/803/180
f 807/804/181 809/806/182 810/807/182 808/805/181
f 809/806/182 811/808/183 812/809/183 810/807/182
f 811/808/183 813/810/184 814/811/184 812/809/183
f 813/810/184 815/812/185 816/813/185 814/811/184
f 815/812/185 817/814/186 818/815/186 816/813/185
f 817/814/186 819/816/187 820/817/187 818/815/186
f 819/818/187 821/819/188 822/820/188 820/589/187
f 821/819/188 823/821/189 824/822/189 822/820/188
f 823/821/189 825/823/190 826/824/190 824/822/189
f 825/823/190 827/825/191 828/826/191 826/824/190
f 827/825/191 829/827/192 830/828/192 828/826/191
f 829/827/192 831/829/193 832/830/193 830/828/192
f 831/829/193 833/831/194 834/832/194 832/830/193
f 833/831/194 835/833/195 836/834/195 834/832/194
f 835/833/195 837/835/196 838/836/196 836/834/195
f 837/835/196 839/837/197 840/838/197 838/836/196
f 839/837/197 841/839/198 842/840/198 840/838/197
f 841/839/198 843/841/199 844/842/199 842/840/198
f 843/841/199 845/843/200 846/844/200 844/842/199
f 845/843/200 847/845/201 848/516/201 846/844/200
f 847/846/201 849/847/202 850/848/202 848/849/201
f 849/847/202 851/850/203 852/851/203 850/848/202
f 851/850/203 853/852/204 854/853/204 852/851/203
f 853/852/204 855/854/205 856/855/205 854/853/204
f 855/854/205 857/856/206 858/857/206 856/855/205
f 857/856/206 859/858/207 860/859/207 858/857/206
f 859/858/207 861/860/208 862/861/208 860/859/207
f 861/860/208 863/862/209 864/863/209 862/861/208
f 863/862/209 865/864/210 866/865/210 864/863/209
f 865/864/210 867/866/211 868/698/211 866/865/210
f 867/867/211 869/868/212 870/869/212 868/870/211
f 869/868/212 871/871/213 872/872/213 870/869/212
f 871/871/213 873/873/214 874/874/214 872/872/213
f 873/873/214 875/875/215 876/876/215 874/874/214
f 875/875/215 877/877/216 878/878/216 876/876/215
f 877/877/216 879/879/217 880/880/217 878/878/216
f 879/879/217 881/881/218 882/882/218 880/880/217
f 881/881/218 883/883/219 884/884/219 882/882/218
f 883/883/219 885/885/220 886/886/220 884/884/219
f 885/885/220 887/887/221 888/888/221 886/886/220
f 887/887/221 889/889/222 890/890/222 888/888/221
f 889/889/222 891/891/223 892/892/223 890/890/222
f 891/891/223 893/893/224 894/894/224 892/892/223
f 893/893/224 895/895/225 896/572/225 894/894/224
f 895/849/225 897/896/226 898/897/226 896/846/225
f 897/896/226 899/898/227 900/899/227 898/897/226
f 899/898/227 901/900/228 902/901/228 900/899/227
f 901/900/228 903/902/229 904/903/229 902/901/228
f 903/902/229 905/904/230 906/905/230 904/903/229
f 905/904/230 907/906/231 908/907/231 906/905/230
f 907/906/231 909/908/232 910/909/232 908/907/231
f 909/908/232 911/817/233 912/816/233 910/909/232
f 911/910/233 913/911/234 914/912/234 912/639/233
f 913/911/234 915/913/235 916/914/235 914/912/234
f 915/915/235 459/437/3 462/440/3 916/916/235
