# Blender 5.2.1 LTS
# www.blender.org
mtllib palanquin.mtl
o Palanquin
v 0.000000 0.032708 0.150302
v 0.000000 0.032708 -0.150302
v 0.000000 0.705344 0.150302
v 0.000000 0.705344 -0.150302
v 0.000000 0.735352 0.150302
v 0.000000 0.735352 -0.150302
v -0.176008 0.683401 -0.150302
v -0.176008 0.683401 0.150302
v -0.283936 0.689468 -0.000000
v 0.000000 0.720540 -0.150302
v 0.000000 0.720540 0.150302
v -0.158960 0.701889 -0.150302
v -0.158960 0.701889 0.150302
v -0.328905 0.667835 -0.000000
v -0.141913 0.719962 -0.000000
v -0.087948 0.698979 -0.150302
v -0.273171 0.664188 0.150302
v -0.283936 0.689468 -0.075151
v -0.070901 0.731015 -0.150302
v 0.000000 0.727996 -0.150302
v 0.000000 0.712988 0.150302
v -0.273172 0.664188 -0.150302
v -0.087948 0.698979 0.150302
v -0.283936 0.689468 0.075151
v -0.070901 0.731015 0.150302
v 0.000000 0.712988 -0.150302
v 0.000000 0.727996 0.150302
v -0.150957 0.705522 -0.150302
v -0.167484 0.692691 -0.150302
v -0.079425 0.715203 -0.150302
v -0.238496 0.684723 -0.150302
v -0.151477 0.705262 0.150302
v -0.167484 0.692691 0.150302
v -0.238496 0.684723 0.150302
v -0.079425 0.715203 0.150302
v -0.307759 0.678585 -0.000000
v -0.348597 0.657270 -0.000000
v -0.328905 0.667835 -0.075151
v -0.328905 0.667835 0.075151
v -0.141913 0.719962 0.075151
v -0.141913 0.719962 -0.075151
v -0.212924 0.705134 -0.000000
v -0.212924 0.705134 -0.075151
v -0.348597 0.657270 0.075151
v -0.348597 0.657270 -0.075151
v -0.307759 0.678585 -0.075151
v -0.083687 0.707141 0.150302
v -0.253700 0.674458 0.150302
v -0.227271 0.691576 0.150302
v -0.253700 0.674458 -0.150302
v -0.083687 0.707141 -0.150302
v -0.075163 0.723163 -0.150302
v -0.226750 0.691836 -0.150302
v -0.075163 0.723163 0.150302
v -0.307759 0.678585 0.075151
v -0.212924 0.705134 0.075151
v -0.291774 0.032708 -0.150302
v -0.199935 0.032708 -0.150302
v -0.103673 0.032708 -0.150302
v -0.103673 0.032708 0.150302
v -0.199935 0.032708 0.150302
v -0.291774 0.032708 0.150302
v 0.000000 0.537185 -0.150302
v 0.000000 0.369026 -0.150302
v 0.000000 0.200867 -0.150302
v 0.000000 0.537185 0.150302
v 0.000000 0.369026 0.150302
v 0.000000 0.200867 0.150302
v -0.320338 -0.000007 -0.075151
v -0.320338 -0.000007 -0.000000
v -0.320338 -0.000007 0.075151
v 0.000000 -0.000007 0.075151
v 0.000000 -0.000007 -0.000000
v 0.000000 -0.000007 -0.075151
v -0.244592 -0.000007 -0.075151
v -0.244592 -0.000007 -0.000000
v -0.244592 -0.000007 0.075151
v -0.166423 -0.000007 -0.075151
v -0.166423 -0.000007 -0.000000
v -0.166423 -0.000007 0.075151
v -0.082687 -0.000007 -0.075151
v -0.082687 -0.000007 -0.000000
v -0.082687 -0.000007 0.075151
v -0.384228 0.186267 -0.075151
v -0.384228 0.339826 -0.075151
v -0.380983 0.493384 -0.075151
v -0.384228 0.186267 -0.000000
v -0.384228 0.339826 -0.000000
v -0.380983 0.493384 -0.000000
v -0.384228 0.186267 0.075151
v -0.384228 0.339826 0.075151
v -0.380983 0.493384 0.075151
v -0.295137 0.189917 0.150302
v -0.295132 0.347126 0.150302
v -0.291241 0.504334 0.150302
v -0.203754 0.193567 0.150302
v -0.203730 0.354426 0.150302
v -0.198637 0.515285 0.150302
v -0.109021 0.197217 0.150302
v -0.108949 0.361726 0.150302
v -0.100341 0.526235 0.150302
v -0.109021 0.197217 -0.150302
v -0.108949 0.361726 -0.150302
v -0.100341 0.526235 -0.150302
v -0.203754 0.193567 -0.150302
v -0.203730 0.354426 -0.150302
v -0.198637 0.515285 -0.150302
v -0.295137 0.189917 -0.150302
v -0.295132 0.347126 -0.150302
v -0.291242 0.504334 -0.150302
v -0.070901 0.810480 -0.000000
v -0.070901 0.810480 -0.075151
v -0.070901 0.810480 0.075151
v -0.141913 0.854158 -0.000000
v -0.131927 0.858977 -0.000000
v -0.131927 0.858977 0.075151
v -0.141913 0.854158 0.075151
v -0.131927 0.858977 -0.075151
v -0.141913 0.854158 -0.075151
v 0.176008 0.683401 -0.150302
v 0.176008 0.683401 0.150302
v 0.283936 0.689468 -0.000000
v 0.158960 0.701889 -0.150302
v 0.158960 0.701889 0.150302
v 0.328905 0.667835 -0.000000
v 0.141913 0.719962 -0.000000
v 0.087948 0.698979 -0.150302
v 0.273171 0.664188 0.150302
v 0.283936 0.689468 -0.075151
v 0.070901 0.731015 -0.150302
v 0.273172 0.664188 -0.150302
v 0.087948 0.698979 0.150302
v 0.283936 0.689468 0.075151
v 0.070901 0.731015 0.150302
v 0.150957 0.705522 -0.150302
v 0.167484 0.692691 -0.150302
v 0.079425 0.715203 -0.150302
v 0.238496 0.684723 -0.150302
v 0.151477 0.705262 0.150302
v 0.167484 0.692691 0.150302
v 0.238496 0.684723 0.150302
v 0.079425 0.715203 0.150302
v 0.307759 0.678585 -0.000000
v 0.348597 0.657270 -0.000000
v 0.328905 0.667835 -0.075151
v 0.328905 0.667835 0.075151
v 0.141913 0.719962 0.075151
v 0.141913 0.719962 -0.075151
v 0.212924 0.705134 -0.000000
v 0.212924 0.705134 -0.075151
v 0.348597 0.657270 0.075151
v 0.348597 0.657270 -0.075151
v 0.307759 0.678585 -0.075151
v 0.083687 0.707141 0.150302
v 0.253700 0.674458 0.150302
v 0.227271 0.691576 0.150302
v 0.253700 0.674458 -0.150302
v 0.083687 0.707141 -0.150302
v 0.075163 0.723163 -0.150302
v 0.226750 0.691836 -0.150302
v 0.075163 0.723163 0.150302
v 0.307759 0.678585 0.075151
v 0.212924 0.705134 0.075151
v 0.291774 0.032708 -0.150302
v 0.199935 0.032708 -0.150302
v 0.103673 0.032708 -0.150302
v 0.103673 0.032708 0.150302
v 0.199935 0.032708 0.150302
v 0.291774 0.032708 0.150302
v 0.320338 -0.000007 -0.075151
v 0.320338 -0.000007 -0.000000
v 0.320338 -0.000007 0.075151
v 0.244592 -0.000007 -0.075151
v 0.244592 -0.000007 -0.000000
v 0.244592 -0.000007 0.075151
v 0.166423 -0.000007 -0.075151
v 0.166423 -0.000007 -0.000000
v 0.166423 -0.000007 0.075151
v 0.082687 -0.000007 -0.075151
v 0.082687 -0.000007 -0.000000
v 0.082687 -0.000007 0.075151
v 0.384228 0.186267 -0.075151
v 0.384228 0.339826 -0.075151
v 0.380983 0.493384 -0.075151
v 0.384228 0.186267 -0.000000
v 0.384228 0.339826 -0.000000
v 0.380983 0.493384 -0.000000
v 0.384228 0.186267 0.075151
v 0.384228 0.339826 0.075151
v 0.380983 0.493384 0.075151
v 0.295137 0.189917 0.150302
v 0.295132 0.347126 0.150302
v 0.291241 0.504334 0.150302
v 0.203754 0.193567 0.150302
v 0.203730 0.354426 0.150302
v 0.198637 0.515285 0.150302
v 0.109021 0.197217 0.150302
v 0.108949 0.361726 0.150302
v 0.100341 0.526235 0.150302
v 0.109021 0.197217 -0.150302
v 0.108949 0.361726 -0.150302
v 0.100341 0.526235 -0.150302
v 0.203754 0.193567 -0.150302
v 0.203730 0.354426 -0.150302
v 0.198637 0.515285 -0.150302
v 0.295137 0.189917 -0.150302
v 0.295132 0.347126 -0.150302
v 0.291242 0.504334 -0.150302
v 0.070901 0.810480 -0.000000
v 0.070901 0.810480 -0.075151
v 0.070901 0.810480 0.075151
v 0.141913 0.854158 -0.000000
v 0.131927 0.858977 -0.000000
v 0.131927 0.858977 0.075151
v 0.141913 0.854158 0.075151
v 0.131927 0.858977 -0.075151
v 0.141913 0.854158 -0.075151
v 0.000000 0.865263 0.150302
v 0.000000 0.864889 -0.150302
v -0.006446 0.875773 -0.000000
v 0.006446 0.875773 -0.000000
v 0.006446 0.875773 0.075151
v -0.006446 0.875773 0.075151
v 0.006446 0.875773 -0.075151
v -0.006446 0.875773 -0.075151
v -0.381222 0.044012 0.138996
v -0.381222 0.044012 -0.138996
v -0.368578 0.635680 0.138996
v -0.354364 0.649360 0.150302
v -0.357662 0.652343 0.138996
v -0.368578 0.635680 -0.138996
v -0.357662 0.652343 -0.138996
v -0.354364 0.649360 -0.150302
v -0.283936 0.689468 0.138996
v -0.291488 0.682876 0.150302
v -0.281866 0.685216 -0.150302
v -0.283936 0.689468 -0.138996
v -0.357662 0.652343 -0.000000
v -0.368578 0.635680 -0.000000
v -0.141913 0.719962 -0.138996
v -0.132427 0.716890 -0.150302
v -0.131907 0.716890 0.150302
v -0.141913 0.719962 0.138996
v -0.312278 0.670938 0.150302
v -0.328905 0.667835 0.138996
v -0.308117 0.671718 -0.150302
v -0.328905 0.667835 -0.138996
v -0.368578 0.635680 -0.075151
v -0.357662 0.652343 -0.075151
v -0.223196 0.696581 0.150302
v -0.212924 0.705134 0.138996
v -0.307759 0.678585 0.138996
v -0.302490 0.676299 0.150302
v -0.348597 0.657270 -0.138996
v -0.331110 0.660438 -0.150302
v -0.368578 0.635680 0.075151
v -0.357662 0.652343 0.075151
v -0.223976 0.696061 -0.150302
v -0.212924 0.705134 -0.138996
v -0.348597 0.657270 0.138996
v -0.331110 0.660438 0.150302
v -0.307759 0.678585 -0.138996
v -0.294689 0.677860 -0.150302
v -0.381222 0.044012 0.075151
v -0.369112 0.026304 0.075151
v -0.381222 0.044012 -0.000000
v -0.371033 0.027340 -0.000000
v -0.369112 0.026304 -0.075151
v -0.381222 0.044012 -0.075151
v -0.384228 0.186267 -0.138996
v -0.372201 0.186759 -0.150302
v -0.384228 0.339826 -0.138996
v -0.371918 0.340834 -0.150302
v -0.368299 0.494932 -0.150302
v -0.380983 0.493384 -0.138996
v -0.372201 0.186759 0.150302
v -0.384228 0.186267 0.138996
v -0.371918 0.340834 0.150302
v -0.384228 0.339826 0.138996
v -0.380983 0.493384 0.138996
v -0.368299 0.494932 0.150302
v -0.070901 0.810480 -0.138996
v -0.070901 0.794453 -0.150302
v -0.070901 0.794453 0.150302
v -0.070901 0.810480 0.138996
v -0.134507 0.844720 -0.150302
v -0.141913 0.854158 -0.138996
v -0.130177 0.846954 -0.150302
v -0.131927 0.858977 -0.138996
v -0.130854 0.847006 0.150302
v -0.131927 0.858977 0.138996
v -0.135100 0.844813 0.150302
v -0.141913 0.854158 0.138996
v 0.381222 0.044012 0.138996
v 0.381222 0.044012 -0.138996
v 0.368578 0.635680 0.138996
v 0.357662 0.652343 0.138996
v 0.354364 0.649360 0.150302
v 0.368578 0.635680 -0.138996
v 0.354364 0.649360 -0.150302
v 0.357662 0.652343 -0.138996
v 0.291488 0.682876 0.150302
v 0.283936 0.689468 0.138996
v 0.281866 0.685216 -0.150302
v 0.283936 0.689468 -0.138996
v 0.368578 0.635680 -0.000000
v 0.357662 0.652343 -0.000000
v 0.132427 0.716890 -0.150302
v 0.141913 0.719962 -0.138996
v 0.141913 0.719962 0.138996
v 0.131907 0.716890 0.150302
v 0.328905 0.667835 0.138996
v 0.312278 0.670938 0.150302
v 0.328905 0.667835 -0.138996
v 0.308117 0.671718 -0.150302
v 0.357662 0.652343 -0.075151
v 0.368578 0.635680 -0.075151
v 0.212924 0.705134 0.138996
v 0.223196 0.696581 0.150302
v 0.302490 0.676299 0.150302
v 0.307759 0.678585 0.138996
v 0.331110 0.660438 -0.150302
v 0.348597 0.657270 -0.138996
v 0.357662 0.652343 0.075151
v 0.368578 0.635680 0.075151
v 0.212924 0.705134 -0.138996
v 0.223976 0.696061 -0.150302
v 0.331110 0.660438 0.150302
v 0.348597 0.657270 0.138996
v 0.294689 0.677860 -0.150302
v 0.307759 0.678585 -0.138996
v 0.369112 0.026304 0.075151
v 0.381222 0.044012 0.075151
v 0.371033 0.027340 -0.000000
v 0.381222 0.044012 -0.000000
v 0.381222 0.044012 -0.075151
v 0.369112 0.026304 -0.075151
v 0.372201 0.186759 -0.150302
v 0.384228 0.186267 -0.138996
v 0.371918 0.340834 -0.150302
v 0.384228 0.339826 -0.138996
v 0.380983 0.493384 -0.138996
v 0.368299 0.494932 -0.150302
v 0.384228 0.186267 0.138996
v 0.372201 0.186759 0.150302
v 0.384228 0.339826 0.138996
v 0.371918 0.340834 0.150302
v 0.368299 0.494932 0.150302
v 0.380983 0.493384 0.138996
v 0.070901 0.794453 -0.150302
v 0.070901 0.810480 -0.138996
v 0.070901 0.810480 0.138996
v 0.070901 0.794453 0.150302
v 0.134507 0.844720 -0.150302
v 0.141913 0.854158 -0.138996
v 0.130177 0.846954 -0.150302
v 0.131927 0.858977 -0.138996
v 0.130854 0.847006 0.150302
v 0.131927 0.858977 0.138996
v 0.135100 0.844813 0.150302
v 0.141913 0.854158 0.138996
v 0.005482 0.870587 0.150302
v 0.006446 0.875773 0.138996
v -0.006446 0.875773 0.138996
v -0.005482 0.870587 0.150302
v -0.005222 0.870848 -0.150302
v -0.006446 0.875773 -0.138996
v 0.006446 0.875773 -0.138996
v 0.005222 0.870848 -0.150302
v -0.317844 0.009871 0.150302
v -0.320338 -0.000007 0.140424
v -0.317844 0.009871 -0.150302
v -0.320338 -0.000007 -0.140424
v 0.000000 -0.000007 0.140424
v 0.000000 0.009871 0.150302
v 0.000000 0.009871 -0.150302
v 0.000000 -0.000007 -0.140424
v -0.082687 -0.000007 -0.140424
v -0.089024 0.009871 -0.150302
v -0.166423 -0.000007 -0.140424
v -0.176542 0.009871 -0.150302
v -0.258839 0.009871 -0.150302
v -0.244592 -0.000007 -0.140424
v -0.244592 -0.000007 0.140424
v -0.258839 0.009871 0.150302
v -0.166423 -0.000007 0.140424
v -0.176542 0.009871 0.150302
v -0.089024 0.009871 0.150302
v -0.082687 -0.000007 0.140424
v 0.317844 0.009871 0.150302
v 0.320338 -0.000007 0.140424
v 0.317844 0.009871 -0.150302
v 0.320338 -0.000007 -0.140424
v 0.089024 0.009871 -0.150302
v 0.082687 -0.000007 -0.140424
v 0.176542 0.009871 -0.150302
v 0.166423 -0.000007 -0.140424
v 0.244592 -0.000007 -0.140424
v 0.258839 0.009871 -0.150302
v 0.258839 0.009871 0.150302
v 0.244592 -0.000007 0.140424
v 0.176542 0.009871 0.150302
v 0.166423 -0.000007 0.140424
v 0.082687 -0.000007 0.140424
v 0.089024 0.009871 0.150302
v -0.369045 0.026268 0.140424
v -0.351015 0.027765 0.150302
v -0.369230 0.036139 0.150302
v -0.351015 0.027765 -0.150302
v -0.369045 0.026268 -0.140424
v -0.369230 0.036139 -0.150302
v 0.351015 0.027765 0.150302
v 0.369045 0.026268 0.140424
v 0.369230 0.036139 0.150302
v 0.369045 0.026268 -0.140424
v 0.351015 0.027765 -0.150302
v 0.369230 0.036139 -0.150302
vn -0.0000 -0.0000 1.0000
vn -0.0000 -0.0000 -1.0000
vn -0.4344 0.9007 -0.0000
vn -0.3172 0.9483 -0.0000
vn -0.4752 0.8799 -0.0000
vn -0.4630 0.8864 -0.0000
vn -0.2099 0.9777 -0.0000
vn -0.2044 0.9789 -0.0000
vn 0.2448 -0.9696 -0.0000
vn 0.6718 -0.7408 -0.0018
vn 0.6812 -0.7321 -0.0000
vn -0.2448 -0.9696 -0.0000
vn -0.6718 -0.7408 0.0018
vn -0.6812 -0.7321 -0.0000
vn -0.0000 -1.0000 -0.0000
vn -0.9999 0.0106 -0.0000
vn -0.9985 0.0540 -0.0000
vn -0.9999 -0.0106 -0.0000
vn -0.4347 0.9006 -0.0000
vn -1.0000 -0.0000 -0.0000
vn 0.6222 0.7829 -0.0000
vn 0.4344 0.9007 -0.0000
vn 0.3172 0.9483 -0.0000
vn 0.4752 0.8799 -0.0000
vn 0.4630 0.8864 -0.0000
vn 0.2099 0.9777 -0.0000
vn 0.2044 0.9789 -0.0000
vn 0.6718 -0.7408 0.0018
vn 0.9999 0.0106 -0.0000
vn 0.9985 0.0540 -0.0000
vn 0.9999 -0.0106 -0.0000
vn 0.4347 0.9006 -0.0000
vn -0.6718 -0.7408 -0.0018
vn 1.0000 -0.0000 -0.0000
vn -0.6222 0.7829 -0.0000
vn -0.0000 1.0000 -0.0000
vn 0.7117 0.7025 -0.0000
vn -0.7117 0.7025 -0.0000
vn -0.7797 0.5108 0.3622
vn -0.5693 0.7295 0.3790
vn -0.6186 0.6886 0.3784
vn -0.7797 0.5108 -0.3622
vn -0.6186 0.6886 -0.3784
vn -0.5693 0.7295 -0.3790
vn 0.7797 0.5108 0.3622
vn 0.6186 0.6886 0.3784
vn 0.5693 0.7295 0.3790
vn 0.7797 0.5108 -0.3622
vn 0.5693 0.7295 -0.3790
vn 0.6186 0.6886 -0.3784
vn -0.6672 0.0350 -0.7440
vn -0.6617 0.0587 -0.7475
vn -0.6664 0.0387 -0.7446
vn -0.6664 0.0387 0.7446
vn -0.6617 0.0587 0.7475
vn -0.6672 0.0350 0.7440
vn -0.1882 0.8751 0.4458
vn -0.2571 0.8786 0.4025
vn -0.3597 0.8691 0.3395
vn -0.1862 0.8768 0.4434
vn -0.4283 0.8411 0.3303
vn -0.4279 0.8345 0.3471
vn -0.4094 0.8053 -0.4288
vn -0.4115 0.8254 -0.3865
vn -0.1882 0.8720 -0.4519
vn -0.1909 0.8702 -0.4542
vn -0.1831 0.8754 -0.4475
vn -0.4286 0.7994 0.4211
vn -0.4280 0.8134 0.3941
vn -0.4313 0.7969 0.4229
vn -0.4163 0.8239 0.3845
vn -0.3961 0.7999 -0.4509
vn -0.3913 0.7942 -0.4648
vn -0.4048 0.7974 -0.4475
vn -0.3907 0.7957 -0.4627
vn -0.1893 0.8742 0.4472
vn -0.2954 0.8441 -0.4475
vn -0.2892 0.8462 -0.4476
vn -0.8320 -0.5547 0.0036
vn -0.8390 -0.5442 -0.0000
vn -0.8320 -0.5547 -0.0036
vn -0.6775 0.7355 -0.0000
vn -0.9449 0.3273 -0.0000
vn -0.6843 -0.0068 -0.7292
vn -0.6764 0.0075 -0.7365
vn -0.6760 0.0081 -0.7369
vn -0.6842 -0.0066 -0.7293
vn -0.6842 -0.0066 0.7293
vn -0.6760 0.0081 0.7369
vn -0.6764 0.0075 0.7365
vn -0.6843 -0.0068 0.7292
vn -0.3126 0.6344 0.7070
vn -0.3078 0.6248 -0.7176
vn -0.8028 -0.0064 -0.5962
vn 0.4779 0.5692 -0.6691
vn -0.8049 -0.0098 0.5933
vn 0.4718 0.5649 0.6770
vn 0.6664 0.0387 -0.7446
vn 0.6617 0.0587 -0.7475
vn 0.6672 0.0350 -0.7440
vn 0.6672 0.0350 0.7440
vn 0.6617 0.0587 0.7475
vn 0.6664 0.0387 0.7446
vn 0.1862 0.8768 0.4434
vn 0.3597 0.8691 0.3395
vn 0.2571 0.8786 0.4025
vn 0.1882 0.8751 0.4458
vn 0.4279 0.8345 0.3471
vn 0.4283 0.8411 0.3303
vn 0.4115 0.8254 -0.3865
vn 0.4094 0.8053 -0.4288
vn 0.1831 0.8754 -0.4475
vn 0.1909 0.8702 -0.4542
vn 0.1882 0.8720 -0.4519
vn 0.4163 0.8239 0.3845
vn 0.4313 0.7969 0.4230
vn 0.4280 0.8134 0.3941
vn 0.4286 0.7994 0.4211
vn 0.3907 0.7957 -0.4627
vn 0.4048 0.7974 -0.4475
vn 0.3913 0.7942 -0.4648
vn 0.3961 0.7999 -0.4509
vn 0.1893 0.8742 0.4472
vn 0.2892 0.8462 -0.4476
vn 0.2954 0.8441 -0.4475
vn 0.8390 -0.5442 -0.0000
vn 0.8320 -0.5547 0.0036
vn 0.8320 -0.5547 -0.0036
vn 0.9449 0.3273 -0.0000
vn 0.6775 0.7355 -0.0000
vn 0.6842 -0.0066 -0.7293
vn 0.6760 0.0081 -0.7369
vn 0.6764 0.0075 -0.7365
vn 0.6843 -0.0068 -0.7292
vn 0.6843 -0.0068 0.7292
vn 0.6764 0.0075 0.7365
vn 0.6760 0.0081 0.7369
vn 0.6842 -0.0066 0.7293
vn 0.3126 0.6344 0.7070
vn 0.3078 0.6248 -0.7176
vn 0.8028 -0.0064 -0.5962
vn -0.4779 0.5692 -0.6691
vn 0.8049 -0.0098 0.5933
vn -0.4718 0.5649 0.6770
vn -0.0000 0.9090 0.4169
vn -0.0000 0.9168 -0.3994
vn 0.6131 0.5630 0.5543
vn -0.6131 0.5630 0.5543
vn 0.6128 0.5628 -0.5547
vn -0.6128 0.5628 -0.5547
vn -0.9998 -0.0211 -0.0000
vn 0.9998 -0.0211 -0.0000
vn -0.5426 -0.5992 0.5886
vn -0.4903 -0.6088 0.6237
vn -0.3845 -0.6202 0.6837
vn -0.0000 -0.7071 -0.7071
vn -0.1704 -0.6749 -0.7179
vn -0.0000 -0.7071 0.7071
vn -0.1704 -0.6749 0.7179
vn 0.1704 -0.6749 -0.7179
vn 0.1704 -0.6749 0.7179
vn -0.3845 -0.6202 -0.6837
vn -0.4903 -0.6088 -0.6237
vn 0.4903 -0.6088 0.6237
vn 0.3845 -0.6202 0.6837
vn 0.3845 -0.6202 -0.6837
vn 0.4903 -0.6088 -0.6237
vn -0.6647 -0.7471 0.0001
vn -0.6647 -0.7471 -0.0001
vn 0.6647 -0.7471 0.0001
vn 0.6647 -0.7471 -0.0001
vn -0.6877 -0.0140 0.7259
vn -0.8250 -0.5652 0.0003
vn -0.6877 -0.0140 -0.7259
vn 0.5426 -0.5992 -0.5886
vn 0.6877 -0.0140 0.7259
vn 0.8250 -0.5652 0.0003
vn 0.6877 -0.0140 -0.7259
vn -0.5426 -0.5992 -0.5886
vn -0.8250 -0.5652 -0.0003
vn 0.8250 -0.5652 -0.0003
vn 0.5426 -0.5992 0.5886
vt 0.584766 0.581902
vt 0.500000 0.591153
vt 0.500000 0.733211
vt 0.574297 0.727834
vt 0.563496 0.748264
vt 0.500000 0.752347
vt 0.500000 0.758562
vt 0.559896 0.754897
vt 0.570697 0.734729
vt 0.641488 0.722522
vt 0.634287 0.730292
vt 0.567097 0.741540
vt 0.714322 0.707119
vt 0.701478 0.715791
vt 0.500000 0.739669
vt 0.500000 0.746048
vt 0.759991 0.710606
vt 0.739865 0.719799
vt 0.794490 0.692599
vt 0.777854 0.701524
vt 0.679876 0.733033
vt 0.619886 0.745560
vt 0.229383 0.137340
vt 0.188180 0.159567
vt 0.186557 0.160443
vt 0.648689 0.714674
vt 0.770617 0.137340
vt 0.811820 0.159567
vt 0.813443 0.160443
vt 0.730771 0.698443
vt 0.627965 0.733142
vt 0.691995 0.721580
vt 0.627526 0.733361
vt 0.691556 0.721800
vt 0.706628 0.137340
vt 0.640592 0.137340
vt 0.569853 0.137340
vt 0.500000 0.137340
vt 0.587581 0.164978
vt 0.500000 0.164978
vt 0.500000 0.307036
vt 0.592099 0.303952
vt 0.500000 0.449094
vt 0.592039 0.442927
vt 0.824591 0.424426
vt 0.821849 0.554150
vt 0.824591 0.294702
vt 0.824591 0.294702
vt 0.749323 0.430593
vt 0.672108 0.436760
vt 0.667805 0.572652
vt 0.746037 0.563401
vt 0.749328 0.297785
vt 0.672129 0.300869
vt 0.746487 0.164978
vt 0.668902 0.164978
vt 0.592039 0.442927
vt 0.500000 0.164977
vt 0.587581 0.164977
vt 0.672108 0.436760
vt 0.667805 0.572652
vt 0.668902 0.164977
vt 0.746037 0.563401
vt 0.746487 0.164977
vt 0.619886 0.858927
vt 0.611450 0.862998
vt 0.559896 0.822029
vt 0.415233 0.581902
vt 0.425702 0.727834
vt 0.436504 0.748264
vt 0.440104 0.754897
vt 0.429303 0.734729
vt 0.432903 0.741540
vt 0.365713 0.730292
vt 0.358512 0.722522
vt 0.285678 0.707119
vt 0.298522 0.715791
vt 0.240009 0.710606
vt 0.260135 0.719799
vt 0.205510 0.692599
vt 0.222146 0.701524
vt 0.320124 0.733033
vt 0.380114 0.745560
vt 0.351311 0.714674
vt 0.269229 0.698443
vt 0.308005 0.721580
vt 0.372035 0.733142
vt 0.440104 0.754897
vt 0.372474 0.733361
vt 0.308444 0.721800
vt 0.293372 0.137340
vt 0.359408 0.137340
vt 0.430147 0.137340
vt 0.412419 0.164978
vt 0.407901 0.303952
vt 0.407961 0.442927
vt 0.175409 0.424426
vt 0.178151 0.554150
vt 0.175409 0.294702
vt 0.175409 0.294702
vt 0.250677 0.430593
vt 0.253963 0.563401
vt 0.332195 0.572652
vt 0.327892 0.436760
vt 0.250672 0.297785
vt 0.327871 0.300869
vt 0.253513 0.164978
vt 0.331098 0.164978
vt 0.407961 0.442927
vt 0.412419 0.164977
vt 0.332195 0.572652
vt 0.327892 0.436760
vt 0.331098 0.164977
vt 0.253963 0.563401
vt 0.250677 0.430593
vt 0.253513 0.164977
vt 0.380114 0.858927
vt 0.388550 0.862998
vt 0.440104 0.822029
vt 0.440104 0.822029
vt 0.505445 0.877187
vt 0.494555 0.877187
vt 0.811369 0.674359
vt 0.799362 0.685916
vt 0.802148 0.688436
vt 0.188631 0.674359
vt 0.197852 0.688436
vt 0.200638 0.685916
vt 0.811134 0.555458
vt 0.811134 0.555458
vt 0.746245 0.714230
vt 0.688553 0.725808
vt 0.755540 0.708674
vt 0.779717 0.695275
vt 0.611872 0.742965
vt 0.689212 0.725369
vt 0.763808 0.704145
vt 0.748949 0.709993
vt 0.760293 0.704805
vt 0.619886 0.745560
vt 0.611433 0.742965
vt 0.738116 0.716207
vt 0.822051 0.174527
vt 0.814191 0.425278
vt 0.814430 0.295118
vt 0.614131 0.851033
vt 0.610543 0.852885
vt 0.619886 0.858927
vt 0.609972 0.852841
vt 0.613630 0.850954
vt 0.559896 0.808489
vt 0.188866 0.555458
vt 0.188866 0.555458
vt 0.311447 0.725808
vt 0.253755 0.714230
vt 0.244460 0.708674
vt 0.220283 0.695275
vt 0.310788 0.725369
vt 0.388128 0.742965
vt 0.236192 0.704145
vt 0.239707 0.704805
vt 0.251051 0.709993
vt 0.388567 0.742965
vt 0.380114 0.745560
vt 0.261884 0.716207
vt 0.177949 0.174527
vt 0.185570 0.295118
vt 0.185809 0.425278
vt 0.380114 0.858927
vt 0.389457 0.852885
vt 0.385869 0.851033
vt 0.386370 0.850954
vt 0.390028 0.852841
vt 0.440104 0.808489
vt 0.440104 0.808489
vt 0.504631 0.872806
vt 0.495369 0.872806
vt 0.495589 0.873026
vt 0.504411 0.873026
vt 0.500000 0.867992
vt 0.500000 0.868309
vt 0.811920 0.167876
vt 0.811764 0.159537
vt 0.796533 0.160802
vt 0.706628 0.137340
vt 0.770617 0.137340
vt 0.768510 0.145685
vt 0.718663 0.145685
vt 0.500000 0.145685
vt 0.575206 0.145685
vt 0.500000 0.137340
vt 0.569853 0.137340
vt 0.640592 0.137340
vt 0.649140 0.145685
vt 0.281337 0.145685
vt 0.231490 0.145685
vt 0.229383 0.137340
vt 0.293372 0.137340
vt 0.424794 0.145685
vt 0.430147 0.137340
vt 0.350860 0.145685
vt 0.359408 0.137340
vt 0.188236 0.159537
vt 0.203467 0.160802
vt 0.188080 0.167876
s 1
usemtl Palanquin
f 101/1/1 66/2/1 3/3/1 23/4/1
f 54/5/1 27/6/1 5/7/1 25/8/1
f 51/9/2 29/10/2 12/11/2 30/12/2
f 48/13/1 33/10/1 13/11/1 34/14/1
f 47/9/1 21/15/1 11/16/1 35/12/1
f 46/17/3 36/17/3 9/18/4 18/18/4
f 45/19/5 37/19/5 14/20/6 38/20/6
f 43/21/7 18/18/4 9/18/4 42/21/7
f 41/22/8 43/21/7 42/21/7 15/22/8
f 37/19/5 44/19/5 39/20/6 14/20/6
f 171/23/9 170/23/9 337/24/10 334/25/11
f 38/20/6 14/20/6 36/17/3 46/17/3
f 33/10/1 47/9/1 35/12/1 13/11/1
f 8/26/1 23/4/1 47/9/1 33/10/1
f 23/4/1 3/3/1 21/15/1 47/9/1
f 71/27/12 265/28/13 267/29/14 70/27/12
f 17/30/1 8/26/1 33/10/1 48/13/1
f 34/14/1 13/11/1 32/31/1 49/32/1
f 29/10/2 50/13/2 31/14/2 12/11/2
f 7/26/2 22/30/2 50/13/2 29/10/2
f 26/15/2 51/9/2 30/12/2 10/16/2
f 4/3/2 16/4/2 51/9/2 26/15/2
f 16/4/2 7/26/2 29/10/2 51/9/2
f 20/6/2 52/5/2 19/8/2 6/7/2
f 10/16/2 30/12/2 52/5/2 20/6/2
f 30/12/2 12/11/2 28/33/2 52/5/2
f 12/11/2 31/14/2 53/34/2 28/33/2
f 13/11/1 35/12/1 54/5/1 32/31/1
f 35/12/1 11/16/1 27/6/1 54/5/1
f 36/17/3 55/17/3 24/18/4 9/18/4
f 14/20/6 39/20/6 55/17/3 36/17/3
f 15/22/8 42/21/7 56/21/7 40/22/8
f 42/21/7 9/18/4 24/18/4 56/21/7
f 69/27/12 75/35/15 76/35/15 70/27/12
f 70/27/12 76/35/15 77/35/15 71/27/12
f 75/35/15 78/36/15 79/36/15 76/35/15
f 76/35/15 79/36/15 80/36/15 77/35/15
f 78/36/15 81/37/15 82/37/15 79/36/15
f 79/36/15 82/37/15 83/37/15 80/36/15
f 81/37/15 74/38/15 73/38/15 82/37/15
f 82/37/15 73/38/15 72/38/15 83/37/15
f 60/39/1 1/40/1 68/41/1 99/42/1
f 99/42/1 68/41/1 67/43/1 100/44/1
f 100/44/1 67/43/1 66/2/1 101/1/1
f 85/45/16 88/45/16 89/46/17 86/46/17
f 84/47/18 87/48/18 88/45/16 85/45/16
f 88/45/16 91/45/16 92/46/17 89/46/17
f 87/48/18 90/48/18 91/45/16 88/45/16
f 94/49/1 97/50/1 98/51/1 95/52/1
f 93/53/1 96/54/1 97/50/1 94/49/1
f 62/55/1 61/56/1 96/54/1 93/53/1
f 95/52/1 98/51/1 8/26/1 17/30/1
f 97/50/1 100/44/1 101/1/1 98/51/1
f 96/54/1 99/42/1 100/44/1 97/50/1
f 61/56/1 60/39/1 99/42/1 96/54/1
f 98/51/1 101/1/1 23/4/1 8/26/1
f 64/43/2 103/57/2 104/1/2 63/2/2
f 65/41/2 102/42/2 103/57/2 64/43/2
f 2/58/2 59/59/2 102/42/2 65/41/2
f 63/2/2 104/1/2 16/4/2 4/3/2
f 103/57/2 106/60/2 107/61/2 104/1/2
f 102/42/2 105/54/2 106/60/2 103/57/2
f 59/59/2 58/62/2 105/54/2 102/42/2
f 104/1/2 107/61/2 7/26/2 16/4/2
f 106/60/2 109/49/2 110/63/2 107/61/2
f 105/54/2 108/53/2 109/49/2 106/60/2
f 58/62/2 57/64/2 108/53/2 105/54/2
f 107/61/2 110/63/2 22/30/2 7/26/2
f 119/65/19 114/65/19 115/66/19 118/66/19
f 114/65/19 117/65/19 116/66/19 115/66/19
f 41/22/20 15/22/20 114/65/20 119/65/20
f 111/67/21 115/66/21 116/66/21 113/67/21
f 112/67/21 118/66/21 115/66/21 111/67/21
f 15/22/20 40/22/20 117/65/20 114/65/20
f 199/68/1 132/69/1 3/3/1 66/2/1
f 161/70/1 134/71/1 5/7/1 27/6/1
f 158/72/2 137/73/2 123/74/2 136/75/2
f 155/76/1 141/77/1 124/74/1 140/75/1
f 154/72/1 142/73/1 11/16/1 21/15/1
f 153/78/22 129/79/23 122/79/23 143/78/22
f 152/80/24 145/81/25 125/81/25 144/80/24
f 150/82/26 149/82/26 122/79/23 129/79/23
f 148/83/27 126/83/27 149/82/26 150/82/26
f 144/80/24 125/81/25 146/81/25 151/80/24
f 145/81/25 153/78/22 143/78/22 125/81/25
f 140/75/1 124/74/1 142/73/1 154/72/1
f 121/84/1 140/75/1 154/72/1 132/69/1
f 132/69/1 154/72/1 21/15/1 3/3/1
f 128/85/1 155/76/1 140/75/1 121/84/1
f 141/77/1 156/86/1 139/87/1 124/74/1
f 136/75/2 123/74/2 138/77/2 157/76/2
f 120/84/2 136/75/2 157/76/2 131/85/2
f 26/15/2 10/16/2 137/73/2 158/72/2
f 4/3/2 26/15/2 158/72/2 127/69/2
f 127/69/2 158/72/2 136/75/2 120/84/2
f 20/6/2 6/7/2 130/88/2 159/70/2
f 10/16/2 20/6/2 159/70/2 137/73/2
f 137/73/2 159/70/2 135/89/2 123/74/2
f 123/74/2 135/89/2 160/90/2 138/77/2
f 124/74/1 139/87/1 161/70/1 142/73/1
f 142/73/1 161/70/1 27/6/1 11/16/1
f 143/78/22 122/79/23 133/79/23 162/78/22
f 125/81/25 143/78/22 162/78/22 146/81/25
f 126/83/27 147/83/27 163/82/26 149/82/26
f 149/82/26 163/82/26 133/79/23 122/79/23
f 170/23/9 171/23/9 174/91/15 173/91/15
f 171/23/9 172/23/9 175/91/15 174/91/15
f 173/91/15 174/91/15 177/92/15 176/92/15
f 174/91/15 175/91/15 178/92/15 177/92/15
f 176/92/15 177/92/15 180/93/15 179/93/15
f 177/92/15 178/92/15 181/93/15 180/93/15
f 179/93/15 180/93/15 73/38/15 74/38/15
f 180/93/15 181/93/15 72/38/15 73/38/15
f 167/94/1 197/95/1 68/41/1 1/40/1
f 197/95/1 198/96/1 67/43/1 68/41/1
f 172/23/9 171/23/9 334/25/11 332/24/28
f 198/96/1 199/68/1 66/2/1 67/43/1
f 183/97/29 184/98/30 187/98/30 186/97/29
f 182/99/31 183/97/29 186/97/29 185/100/31
f 186/97/29 187/98/30 190/98/30 189/97/29
f 185/100/31 186/97/29 189/97/29 188/100/31
f 192/101/1 193/102/1 196/103/1 195/104/1
f 191/105/1 192/101/1 195/104/1 194/106/1
f 169/107/1 191/105/1 194/106/1 168/108/1
f 193/102/1 128/85/1 121/84/1 196/103/1
f 195/104/1 196/103/1 199/68/1 198/96/1
f 194/106/1 195/104/1 198/96/1 197/95/1
f 168/108/1 194/106/1 197/95/1 167/94/1
f 196/103/1 121/84/1 132/69/1 199/68/1
f 64/43/2 63/2/2 202/68/2 201/109/2
f 65/41/2 64/43/2 201/109/2 200/95/2
f 2/58/2 65/41/2 200/95/2 166/110/2
f 63/2/2 4/3/2 127/69/2 202/68/2
f 201/109/2 202/68/2 205/111/2 204/112/2
f 200/95/2 201/109/2 204/112/2 203/106/2
f 166/110/2 200/95/2 203/106/2 165/113/2
f 202/68/2 127/69/2 120/84/2 205/111/2
f 204/112/2 205/111/2 208/114/2 207/115/2
f 203/106/2 204/112/2 207/115/2 206/105/2
f 165/113/2 203/106/2 206/105/2 164/116/2
f 205/111/2 120/84/2 131/85/2 208/114/2
f 217/117/32 216/118/32 213/118/32 212/117/32
f 212/117/32 213/118/32 214/118/32 215/117/32
f 70/27/12 267/29/14 268/28/33 69/27/12
f 148/83/34 217/117/34 212/117/34 126/83/34
f 209/119/35 211/120/35 214/118/35 213/118/35
f 210/119/35 209/119/35 213/118/35 216/118/35
f 126/83/34 212/117/34 215/117/34 147/83/34
f 225/121/36 220/121/36 221/122/36 224/122/36
f 220/121/36 223/121/36 222/122/36 221/122/36
f 224/122/37 221/122/37 209/119/37 210/119/37
f 225/121/38 112/67/38 111/67/38 220/121/38
f 220/121/38 111/67/38 113/67/38 223/121/38
f 221/122/37 222/122/37 211/120/37 209/119/37
f 228/123/39 229/124/40 230/125/41
f 231/123/42 232/125/43 233/124/44
f 296/126/45 297/127/46 298/128/47
f 299/126/48 300/128/49 301/127/50
f 275/46/51 231/123/52 233/124/52 274/129/53
f 281/130/54 229/124/55 228/123/55 280/46/56
f 251/21/57 234/18/58 235/131/59 250/132/60
f 253/133/61 235/131/59 234/18/58 252/17/62
f 255/134/63 233/124/44 232/125/43 254/19/64
f 259/21/65 240/22/66 241/135/66 258/136/67
f 261/134/68 244/137/69 245/20/70 260/19/71
f 263/138/72 246/139/73 247/20/74 262/17/75
f 243/140/76 251/21/57 250/132/60 242/141/76
f 244/137/69 253/133/61 252/17/62 245/20/70
f 246/139/73 255/134/63 254/19/64 247/20/74
f 237/18/77 259/21/65 258/136/67 236/142/78
f 229/124/40 261/134/68 260/19/71 230/125/41
f 236/142/78 263/138/72 262/17/75 237/18/77
f 264/143/79 266/143/80 267/29/14 265/28/13
f 266/143/80 269/143/81 268/28/33 267/29/14
f 249/125/82 232/125/82 231/123/83 248/123/83
f 270/47/84 272/45/85 273/144/86 271/145/87
f 272/45/85 275/46/51 274/129/53 273/144/86
f 276/145/88 278/144/89 279/45/90 277/48/91
f 278/144/89 281/130/54 280/46/56 279/45/90
f 257/125/82 238/125/82 239/123/83 256/123/83
f 238/125/82 249/125/82 248/123/83 239/123/83
f 230/125/82 257/125/82 256/123/83 228/123/83
f 292/146/92 290/147/92 291/66/92 293/148/92
f 288/149/93 286/150/93 287/65/93 289/66/93
f 240/22/94 287/65/94 286/150/94 241/135/94
f 289/66/95 282/67/95 283/151/95 288/149/95
f 293/148/96 243/140/96 242/141/96 292/146/96
f 285/67/97 291/66/97 290/147/97 284/151/97
f 343/152/98 300/128/99 299/126/99 342/98/100
f 349/98/101 296/126/102 298/128/102 348/153/103
f 319/154/104 302/155/105 303/79/106 318/82/107
f 321/78/108 303/79/106 302/155/105 320/156/109
f 323/80/110 301/127/50 300/128/49 322/157/111
f 327/158/112 308/159/113 309/83/113 326/82/114
f 329/80/115 312/81/116 313/160/117 328/157/118
f 331/78/119 314/81/120 315/161/121 330/162/122
f 311/163/123 319/154/104 318/82/107 310/164/123
f 312/81/116 321/78/108 320/156/109 313/160/117
f 314/81/120 323/80/110 322/157/111 315/161/121
f 304/165/124 327/158/112 326/82/114 305/79/125
f 297/127/46 329/80/115 328/157/118 298/128/47
f 305/79/125 331/78/119 330/162/122 304/165/124
f 332/24/28 334/25/11 335/166/126 333/166/127
f 334/25/11 337/24/10 336/166/128 335/166/126
f 317/126/129 299/126/129 301/127/130 316/127/130
f 338/167/131 340/168/132 341/97/133 339/99/134
f 340/168/132 343/152/98 342/98/100 341/97/133
f 344/100/135 346/97/136 347/168/137 345/167/138
f 346/97/136 349/98/101 348/153/103 347/168/137
f 325/126/129 306/126/129 307/127/130 324/127/130
f 306/126/129 317/126/129 316/127/130 307/127/130
f 296/126/129 325/126/129 324/127/130 297/127/130
f 361/169/139 359/118/139 358/170/139 360/171/139
f 357/118/140 355/117/140 354/172/140 356/173/140
f 308/159/141 354/172/141 355/117/141 309/83/141
f 356/173/142 350/174/142 351/119/142 357/118/142
f 360/171/143 311/163/143 310/164/143 361/169/143
f 353/175/144 358/170/144 359/118/144 352/120/144
f 363/122/145 364/121/145 365/176/145 362/177/145
f 367/121/146 368/122/146 369/178/146 366/179/146
f 352/120/147 363/122/147 362/177/147 353/175/147
f 284/151/148 365/176/148 364/121/148 285/67/148
f 368/122/149 351/119/149 350/174/149 369/178/149
f 282/67/150 367/121/150 366/179/150 283/151/150
f 264/143/151 226/143/151 277/48/18 90/48/18
f 227/143/151 269/143/151 84/47/18 270/47/18
f 281/130/1 95/52/1 17/30/1 229/124/1
f 257/125/82 230/125/82 260/19/5 44/19/5
f 92/46/17 280/46/17 228/123/83 256/123/83
f 229/124/1 17/30/1 48/13/1 261/134/1
f 275/46/17 86/46/17 248/123/83 231/123/83
f 22/30/2 233/124/2 255/134/2 50/13/2
f 110/63/2 274/129/2 233/124/2 22/30/2
f 232/125/82 249/125/82 45/19/5 254/19/5
f 253/133/1 49/32/1 250/132/1 235/131/1
f 55/17/3 252/17/3 234/18/4 24/18/4
f 56/21/7 24/18/4 234/18/4 251/21/7
f 262/17/3 46/17/3 18/18/4 237/18/4
f 259/21/7 237/18/4 18/18/4 43/21/7
f 53/34/2 263/138/2 236/142/2 258/136/2
f 249/125/82 238/125/82 37/19/5 45/19/5
f 238/125/82 257/125/82 44/19/5 37/19/5
f 86/46/17 89/46/17 239/123/83 248/123/83
f 89/46/17 92/46/17 256/123/83 239/123/83
f 28/33/2 53/34/2 258/136/2 241/135/2
f 52/5/2 28/33/2 241/135/2 19/8/2
f 240/22/20 41/22/20 119/65/20 287/65/20
f 19/8/2 241/135/2 286/150/2 288/149/2 283/151/2
f 240/22/8 259/21/7 43/21/7 41/22/8
f 242/141/1 25/8/1 284/151/1 290/147/1 292/146/1
f 32/31/1 54/5/1 25/8/1 242/141/1
f 40/22/8 56/21/7 251/21/7 243/140/8
f 49/32/1 32/31/1 242/141/1 250/132/1
f 40/22/20 243/140/20 293/148/20 117/65/20
f 261/134/1 48/13/1 34/14/1 244/137/1
f 244/137/1 34/14/1 49/32/1 253/133/1
f 39/20/6 245/20/6 252/17/3 55/17/3
f 44/19/5 260/19/5 245/20/6 39/20/6
f 31/14/2 246/139/2 263/138/2 53/34/2
f 247/20/6 38/20/6 46/17/3 262/17/3
f 254/19/5 45/19/5 38/20/6 247/20/6
f 50/13/2 255/134/2 246/139/2 31/14/2
f 266/143/151 264/143/151 90/48/18 87/48/18
f 269/143/151 266/143/151 87/48/18 84/47/18
f 108/53/2 271/145/2 273/144/2 109/49/2
f 270/47/18 84/47/18 85/45/16 272/45/16
f 109/49/2 273/144/2 274/129/2 110/63/2
f 272/45/16 85/45/16 86/46/17 275/46/17
f 90/48/18 277/48/18 279/45/16 91/45/16
f 276/145/1 93/53/1 94/49/1 278/144/1
f 91/45/16 279/45/16 280/46/17 92/46/17
f 278/144/1 94/49/1 95/52/1 281/130/1
f 6/7/2 19/8/2 283/151/2 366/179/2 219/180/2
f 367/121/38 282/67/38 112/67/38 225/121/38
f 282/67/21 289/66/21 118/66/21 112/67/21
f 25/8/1 5/7/1 218/181/1 365/176/1 284/151/1
f 113/67/21 116/66/21 291/66/21 285/67/21
f 223/121/38 113/67/38 285/67/38 364/121/38
f 287/65/19 119/65/19 118/66/19 289/66/19
f 117/65/19 293/148/19 291/66/19 116/66/19
f 333/166/152 188/100/31 344/100/31 294/166/152
f 295/166/152 339/99/31 182/99/31 336/166/152
f 348/153/1 298/128/1 128/85/1 193/102/1
f 190/98/30 325/126/129 296/126/129 349/98/30
f 298/128/1 328/157/1 155/76/1 128/85/1
f 324/127/130 151/80/24 329/80/24 297/127/130
f 342/98/30 299/126/129 317/126/129 184/98/30
f 208/114/2 131/85/2 300/128/2 343/152/2
f 301/127/130 323/80/24 152/80/24 316/127/130
f 131/85/2 157/76/2 322/157/2 300/128/2
f 320/156/1 302/155/1 319/154/1 156/86/1
f 162/78/22 133/79/23 303/79/23 321/78/22
f 163/82/26 318/82/26 303/79/23 133/79/23
f 331/78/22 305/79/23 129/79/23 153/78/22
f 326/82/26 150/82/26 129/79/23 305/79/23
f 160/90/2 327/158/2 304/165/2 330/162/2
f 316/127/130 152/80/24 144/80/24 307/127/130
f 184/98/30 317/126/129 306/126/129 187/98/30
f 307/127/130 144/80/24 151/80/24 324/127/130
f 187/98/30 306/126/129 325/126/129 190/98/30
f 135/89/2 308/159/2 327/158/2 160/90/2
f 159/70/2 130/88/2 308/159/2 135/89/2
f 130/88/2 350/174/2 356/173/2 354/172/2 308/159/2
f 309/83/27 148/83/27 150/82/26 326/82/26
f 309/83/34 355/117/34 217/117/34 148/83/34
f 311/163/1 360/171/1 358/170/1 353/175/1 134/71/1
f 139/87/1 311/163/1 134/71/1 161/70/1
f 156/86/1 319/154/1 311/163/1 139/87/1
f 147/83/34 215/117/34 361/169/34 310/164/34
f 147/83/27 310/164/27 318/82/26 163/82/26
f 328/157/1 313/160/1 141/77/1 155/76/1
f 313/160/1 320/156/1 156/86/1 141/77/1
f 146/81/25 162/78/22 321/78/22 312/81/25
f 151/80/24 146/81/25 312/81/25 329/80/24
f 138/77/2 160/90/2 330/162/2 315/161/2
f 314/81/25 331/78/22 153/78/22 145/81/25
f 323/80/24 314/81/25 145/81/25 152/80/24
f 157/76/2 138/77/2 315/161/2 322/157/2
f 335/166/152 185/100/31 188/100/31 333/166/152
f 336/166/152 182/99/31 185/100/31 335/166/152
f 206/105/2 207/115/2 340/168/2 338/167/2
f 339/99/31 341/97/29 183/97/29 182/99/31
f 207/115/2 208/114/2 343/152/2 340/168/2
f 341/97/29 342/98/30 184/98/30 183/97/29
f 188/100/31 189/97/29 346/97/29 344/100/31
f 345/167/1 347/168/1 192/101/1 191/105/1
f 189/97/29 190/98/30 349/98/30 346/97/29
f 347/168/1 348/153/1 193/102/1 192/101/1
f 6/7/2 219/180/2 369/178/2 350/174/2 130/88/2
f 351/119/35 210/119/35 216/118/35 357/118/35
f 368/122/37 224/122/37 210/119/37 351/119/37
f 134/71/1 353/175/1 362/177/1 218/181/1 5/7/1
f 222/122/37 363/122/37 352/120/37 211/120/37
f 211/120/35 352/120/35 359/118/35 214/118/35
f 355/117/32 357/118/32 216/118/32 217/117/32
f 215/117/32 214/118/32 359/118/32 361/169/32
f 362/177/1 365/176/1 218/181/1
f 223/121/36 364/121/36 363/122/36 222/122/36
f 366/179/2 369/178/2 219/180/2
f 367/121/36 225/121/36 224/122/36 368/122/36
f 408/182/153 226/143/153 406/183/154 407/184/155
f 383/185/156 373/186/157 372/187/157 382/188/156
f 389/37/158 374/38/158 375/189/158 388/190/158
f 377/191/156 378/192/156 379/190/156 376/189/156
f 378/192/156 380/193/156 381/194/156 379/190/156
f 380/193/156 383/185/156 382/188/156 381/194/156
f 371/27/159 384/35/158 385/188/158 370/187/159
f 384/35/158 386/36/158 387/194/158 385/188/158
f 386/36/158 389/37/158 388/190/158 387/194/158
f 399/195/156 392/196/160 393/197/160 398/198/156
f 405/199/158 375/189/158 374/38/158 404/93/158
f 376/189/156 394/199/156 395/200/156 377/191/156
f 394/199/156 396/201/156 397/202/156 395/200/156
f 396/201/156 399/195/156 398/198/156 397/202/156
f 390/196/161 400/195/158 401/91/158 391/23/161
f 400/195/158 402/201/158 403/92/158 401/91/158
f 402/201/158 405/199/158 404/93/158 403/92/158
f 406/183/154 371/27/159 370/187/159 407/184/155
f 409/184/162 372/187/157 373/186/157 410/183/163
f 391/23/161 413/203/164 412/204/165 390/196/161
f 392/196/160 416/204/166 415/203/167 393/197/160
f 71/27/12 77/35/15 384/35/15 371/27/12
f 385/188/1 62/55/1 407/184/1 370/187/1
f 371/27/12 406/183/168 265/28/13 71/27/12
f 373/186/12 383/185/15 75/35/15 69/27/12
f 69/27/12 268/28/33 410/183/169 373/186/12
f 372/187/2 409/184/2 57/64/2 382/188/2
f 375/189/1 1/40/1 60/39/1 388/190/1
f 83/37/15 72/38/15 374/38/15 389/37/15
f 181/93/15 404/93/15 374/38/15 72/38/15
f 375/189/1 405/199/1 167/94/1 1/40/1
f 166/110/2 394/199/2 376/189/2 2/58/2
f 378/192/15 377/191/15 74/38/15 81/37/15
f 379/190/2 59/59/2 2/58/2 376/189/2
f 395/200/15 179/93/15 74/38/15 377/191/15
f 381/194/2 58/62/2 59/59/2 379/190/2
f 380/193/15 378/192/15 81/37/15 78/36/15
f 382/188/2 57/64/2 58/62/2 381/194/2
f 383/185/15 380/193/15 78/36/15 75/35/15
f 387/194/1 61/56/1 62/55/1 385/188/1
f 77/35/15 80/36/15 386/36/15 384/35/15
f 388/190/1 60/39/1 61/56/1 387/194/1
f 80/36/15 83/37/15 389/37/15 386/36/15
f 172/23/9 391/23/9 401/91/15 175/91/15
f 400/195/1 390/196/1 412/204/1 169/107/1
f 391/23/9 172/23/9 332/24/28 413/203/170
f 392/196/2 399/195/2 164/116/2 416/204/2
f 393/197/9 170/23/9 173/91/15 398/198/15
f 170/23/9 393/197/9 415/203/171 337/24/10
f 397/202/15 176/92/15 179/93/15 395/200/15
f 165/113/2 396/201/2 394/199/2 166/110/2
f 399/195/2 396/201/2 165/113/2 164/116/2
f 398/198/15 173/91/15 176/92/15 397/202/15
f 175/91/15 401/91/15 403/92/15 178/92/15
f 402/201/1 400/195/1 169/107/1 168/108/1
f 405/199/1 402/201/1 168/108/1 167/94/1
f 178/92/15 403/92/15 404/93/15 181/93/15
f 408/182/172 276/145/88 277/48/91 226/143/172
f 408/182/1 407/184/1 62/55/1
f 226/143/173 264/143/79 265/28/13 406/183/168
f 227/143/174 270/47/84 271/145/87 411/182/174
f 417/205/175 295/166/175 415/203/167 416/204/166
f 57/64/2 409/184/2 411/182/2
f 294/166/176 344/100/135 345/167/138 414/205/176
f 413/203/170 332/24/28 333/166/127 294/166/177
f 414/205/1 345/167/1 191/105/1 169/107/1
f 417/205/178 338/167/131 339/99/134 295/166/178
f 164/116/2 206/105/2 338/167/2 417/205/2
f 276/145/1 408/182/1 62/55/1 93/53/1
f 410/183/163 227/143/179 411/182/179 409/184/162
f 269/143/81 227/143/180 410/183/169 268/28/33
f 108/53/2 57/64/2 411/182/2 271/145/2
f 416/204/2 164/116/2 417/205/2
f 337/24/10 415/203/171 295/166/181 336/166/128
f 412/204/1 414/205/1 169/107/1
f 413/203/164 294/166/182 414/205/182 412/204/165
