# Blender 5.2.1 LTS
# www.blender.org
mtllib palanquin2.mtl
o Palanquin
v 0.000000 0.032708 0.150302
v 0.000000 0.032708 -0.150302
v 0.000000 0.705344 0.150302
v 0.000000 0.705344 -0.150302
v 0.000000 0.735352 0.150302
v 0.000000 0.735352 -0.150302
v -0.176008 0.683401 -0.150302
v -0.176008 0.683401 0.150302
v -0.283936 0.689468 -0.000000
v 0.000000 0.720540 -0.150302
v 0.000000 0.720540 0.150302
v -0.158960 0.701889 -0.150302
v -0.158960 0.701889 0.150302
v -0.328905 0.667835 -0.000000
v -0.141913 0.719962 -0.000000
v -0.087948 0.698979 -0.150302
v -0.273171 0.664188 0.150302
v -0.283936 0.689468 -0.075151
v -0.070901 0.731015 -0.150302
v 0.000000 0.727996 -0.150302
v 0.000000 0.712988 0.150302
v -0.273172 0.664188 -0.150302
v -0.087948 0.698979 0.150302
v -0.283936 0.689468 0.075151
v -0.070901 0.731015 0.150302
v 0.000000 0.712988 -0.150302
v 0.000000 0.727996 0.150302
v -0.150957 0.705522 -0.150302
v -0.167484 0.692691 -0.150302
v -0.079425 0.715203 -0.150302
v -0.238496 0.684723 -0.150302
v -0.151477 0.705262 0.150302
v -0.167484 0.692691 0.150302
v -0.238496 0.684723 0.150302
v -0.079425 0.715203 0.150302
v -0.307759 0.678585 -0.000000
v -0.348597 0.657270 -0.000000
v -0.328905 0.667835 -0.075151
v -0.328905 0.667835 0.075151
v -0.141913 0.719962 0.075151
v -0.141913 0.719962 -0.075151
v -0.212924 0.705134 -0.000000
v -0.212924 0.705134 -0.075151
v -0.348597 0.657270 0.075151
v -0.348597 0.657270 -0.075151
v -0.307759 0.678585 -0.075151
v -0.083687 0.707141 0.150302
v -0.253700 0.674458 0.150302
v -0.227271 0.691576 0.150302
v -0.253700 0.674458 -0.150302
v -0.083687 0.707141 -0.150302
v -0.075163 0.723163 -0.150302
v -0.226750 0.691836 -0.150302
v -0.075163 0.723163 0.150302
v -0.307759 0.678585 0.075151
v -0.212924 0.705134 0.075151
v -0.291774 0.032708 -0.150302
v -0.199935 0.032708 -0.150302
v -0.103673 0.032708 -0.150302
v -0.103673 0.032708 0.150302
v -0.199935 0.032708 0.150302
v -0.291774 0.032708 0.150302
v 0.000000 0.537185 -0.150302
v 0.000000 0.369026 -0.150302
v 0.000000 0.200867 -0.150302
v 0.000000 0.537185 0.150302
v 0.000000 0.369026 0.150302
v 0.000000 0.200867 0.150302
v -0.320338 -0.000007 -0.075151
v -0.320338 -0.000007 0.000000
v -0.320338 -0.000007 0.075151
v 0.000000 -0.000007 0.075151
v 0.000000 -0.000007 0.000000
v 0.000000 -0.000007 -0.075151
v -0.244592 -0.000007 -0.075151
v -0.244592 -0.000007 0.000000
v -0.244592 -0.000007 0.075151
v -0.166423 -0.000007 -0.075151
v -0.166423 -0.000007 0.000000
v -0.166423 -0.000007 0.075151
v -0.082687 -0.000007 -0.075151
v -0.082687 -0.000007 0.000000
v -0.082687 -0.000007 0.075151
v -0.384228 0.186267 -0.075151
v -0.384228 0.339826 -0.075151
v -0.380983 0.493384 -0.075151
v -0.384228 0.186267 -0.000000
v -0.384228 0.339826 -0.000000
v -0.380983 0.493384 -0.000000
v -0.384228 0.186267 0.075151
v -0.384228 0.339826 0.075151
v -0.380983 0.493384 0.075151
v -0.295137 0.189917 0.150302
v -0.295132 0.347126 0.150302
v -0.291241 0.504334 0.150302
v -0.203754 0.193567 0.150302
v -0.203730 0.354426 0.150302
v -0.198637 0.515285 0.150302
v -0.109021 0.197217 0.150302
v -0.108949 0.361726 0.150302
v -0.100341 0.526235 0.150302
v -0.109021 0.197217 -0.150302
v -0.108949 0.361726 -0.150302
v -0.100341 0.526235 -0.150302
v -0.203754 0.193567 -0.150302
v -0.203730 0.354426 -0.150302
v -0.198637 0.515285 -0.150302
v -0.295137 0.189917 -0.150302
v -0.295132 0.347126 -0.150302
v -0.291242 0.504334 -0.150302
v -0.070901 0.810480 -0.000000
v -0.070901 0.810480 -0.075151
v -0.070901 0.810480 0.075151
v -0.141913 0.854158 -0.000000
v -0.131927 0.858977 -0.000000
v -0.131927 0.858977 0.075151
v -0.141913 0.854158 0.075151
v -0.131927 0.858977 -0.075151
v -0.141913 0.854158 -0.075151
v 0.176008 0.683401 -0.150302
v 0.176008 0.683401 0.150302
v 0.283936 0.689468 -0.000000
v 0.158960 0.701889 -0.150302
v 0.158960 0.701889 0.150302
v 0.328905 0.667835 -0.000000
v 0.141913 0.719962 -0.000000
v 0.087948 0.698979 -0.150302
v 0.273171 0.664188 0.150302
v 0.283936 0.689468 -0.075151
v 0.070901 0.731015 -0.150302
v 0.273172 0.664188 -0.150302
v 0.087948 0.698979 0.150302
v 0.283936 0.689468 0.075151
v 0.070901 0.731015 0.150302
v 0.150957 0.705522 -0.150302
v 0.167484 0.692691 -0.150302
v 0.079425 0.715203 -0.150302
v 0.238496 0.684723 -0.150302
v 0.151477 0.705262 0.150302
v 0.167484 0.692691 0.150302
v 0.238496 0.684723 0.150302
v 0.079425 0.715203 0.150302
v 0.307759 0.678585 -0.000000
v 0.348597 0.657270 -0.000000
v 0.328905 0.667835 -0.075151
v 0.328905 0.667835 0.075151
v 0.141913 0.719962 0.075151
v 0.141913 0.719962 -0.075151
v 0.212924 0.705134 -0.000000
v 0.212924 0.705134 -0.075151
v 0.348597 0.657270 0.075151
v 0.348597 0.657270 -0.075151
v 0.307759 0.678585 -0.075151
v 0.083687 0.707141 0.150302
v 0.253700 0.674458 0.150302
v 0.227271 0.691576 0.150302
v 0.253700 0.674458 -0.150302
v 0.083687 0.707141 -0.150302
v 0.075163 0.723163 -0.150302
v 0.226750 0.691836 -0.150302
v 0.075163 0.723163 0.150302
v 0.307759 0.678585 0.075151
v 0.212924 0.705134 0.075151
v 0.291774 0.032708 -0.150302
v 0.199935 0.032708 -0.150302
v 0.103673 0.032708 -0.150302
v 0.103673 0.032708 0.150302
v 0.199935 0.032708 0.150302
v 0.291774 0.032708 0.150302
v 0.320338 -0.000007 -0.075151
v 0.320338 -0.000007 0.000000
v 0.320338 -0.000007 0.075151
v 0.244592 -0.000007 -0.075151
v 0.244592 -0.000007 0.000000
v 0.244592 -0.000007 0.075151
v 0.166423 -0.000007 -0.075151
v 0.166423 -0.000007 0.000000
v 0.166423 -0.000007 0.075151
v 0.082687 -0.000007 -0.075151
v 0.082687 -0.000007 0.000000
v 0.082687 -0.000007 0.075151
v 0.384228 0.186267 -0.075151
v 0.384228 0.339826 -0.075151
v 0.380983 0.493384 -0.075151
v 0.384228 0.186267 -0.000000
v 0.384228 0.339826 -0.000000
v 0.380983 0.493384 -0.000000
v 0.384228 0.186267 0.075151
v 0.384228 0.339826 0.075151
v 0.380983 0.493384 0.075151
v 0.295137 0.189917 0.150302
v 0.295132 0.347126 0.150302
v 0.291241 0.504334 0.150302
v 0.203754 0.193567 0.150302
v 0.203730 0.354426 0.150302
v 0.198637 0.515285 0.150302
v 0.109021 0.197217 0.150302
v 0.108949 0.361726 0.150302
v 0.100341 0.526235 0.150302
v 0.109021 0.197217 -0.150302
v 0.108949 0.361726 -0.150302
v 0.100341 0.526235 -0.150302
v 0.203754 0.193567 -0.150302
v 0.203730 0.354426 -0.150302
v 0.198637 0.515285 -0.150302
v 0.295137 0.189917 -0.150302
v 0.295132 0.347126 -0.150302
v 0.291242 0.504334 -0.150302
v 0.070901 0.810480 -0.000000
v 0.070901 0.810480 -0.075151
v 0.070901 0.810480 0.075151
v 0.141913 0.854158 -0.000000
v 0.131927 0.858977 -0.000000
v 0.131927 0.858977 0.075151
v 0.141913 0.854158 0.075151
v 0.131927 0.858977 -0.075151
v 0.141913 0.854158 -0.075151
v 0.000000 0.865263 0.150302
v 0.000000 0.864889 -0.150302
v -0.006446 0.875773 -0.000000
v 0.006446 0.875773 -0.000000
v 0.006446 0.875773 0.075151
v -0.006446 0.875773 0.075151
v 0.006446 0.875773 -0.075151
v -0.006446 0.875773 -0.075151
v -0.381222 0.044012 0.138996
v -0.381222 0.044012 -0.138996
v -0.368578 0.635680 0.138996
v -0.354364 0.649360 0.150302
v -0.357662 0.652343 0.138996
v -0.368578 0.635680 -0.138996
v -0.357662 0.652343 -0.138996
v -0.354364 0.649360 -0.150302
v -0.283936 0.689468 0.138996
v -0.291488 0.682876 0.150302
v -0.281866 0.685216 -0.150302
v -0.283936 0.689468 -0.138996
v -0.357662 0.652343 -0.000000
v -0.368578 0.635680 -0.000000
v -0.141913 0.719962 -0.138996
v -0.132427 0.716890 -0.150302
v -0.131907 0.716890 0.150302
v -0.141913 0.719962 0.138996
v -0.312278 0.670938 0.150302
v -0.328905 0.667835 0.138996
v -0.308117 0.671718 -0.150302
v -0.328905 0.667835 -0.138996
v -0.368578 0.635680 -0.075151
v -0.357662 0.652343 -0.075151
v -0.223196 0.696581 0.150302
v -0.212924 0.705134 0.138996
v -0.307759 0.678585 0.138996
v -0.302490 0.676299 0.150302
v -0.348597 0.657270 -0.138996
v -0.331110 0.660438 -0.150302
v -0.368578 0.635680 0.075151
v -0.357662 0.652343 0.075151
v -0.223976 0.696061 -0.150302
v -0.212924 0.705134 -0.138996
v -0.348597 0.657270 0.138996
v -0.331110 0.660438 0.150302
v -0.307759 0.678585 -0.138996
v -0.294689 0.677860 -0.150302
v -0.381222 0.044012 0.075151
v -0.369112 0.026304 0.075151
v -0.381222 0.044012 -0.000000
v -0.371033 0.027340 -0.000000
v -0.369112 0.026304 -0.075151
v -0.381222 0.044012 -0.075151
v -0.384228 0.186267 -0.138996
v -0.372201 0.186759 -0.150302
v -0.384228 0.339826 -0.138996
v -0.371918 0.340834 -0.150302
v -0.368299 0.494932 -0.150302
v -0.380983 0.493384 -0.138996
v -0.372201 0.186759 0.150302
v -0.384228 0.186267 0.138996
v -0.371918 0.340834 0.150302
v -0.384228 0.339826 0.138996
v -0.380983 0.493384 0.138996
v -0.368299 0.494932 0.150302
v -0.070901 0.810480 -0.138996
v -0.070901 0.794453 -0.150302
v -0.070901 0.794453 0.150302
v -0.070901 0.810480 0.138996
v -0.134507 0.844720 -0.150302
v -0.141913 0.854158 -0.138996
v -0.130177 0.846954 -0.150302
v -0.131927 0.858977 -0.138996
v -0.130854 0.847006 0.150302
v -0.131927 0.858977 0.138996
v -0.135100 0.844813 0.150302
v -0.141913 0.854158 0.138996
v 0.381222 0.044012 0.138996
v 0.381222 0.044012 -0.138996
v 0.368578 0.635680 0.138996
v 0.357662 0.652343 0.138996
v 0.354364 0.649360 0.150302
v 0.368578 0.635680 -0.138996
v 0.354364 0.649360 -0.150302
v 0.357662 0.652343 -0.138996
v 0.291488 0.682876 0.150302
v 0.283936 0.689468 0.138996
v 0.281866 0.685216 -0.150302
v 0.283936 0.689468 -0.138996
v 0.368578 0.635680 -0.000000
v 0.357662 0.652343 -0.000000
v 0.132427 0.716890 -0.150302
v 0.141913 0.719962 -0.138996
v 0.141913 0.719962 0.138996
v 0.131907 0.716890 0.150302
v 0.328905 0.667835 0.138996
v 0.312278 0.670938 0.150302
v 0.328905 0.667835 -0.138996
v 0.308117 0.671718 -0.150302
v 0.357662 0.652343 -0.075151
v 0.368578 0.635680 -0.075151
v 0.212924 0.705134 0.138996
v 0.223196 0.696581 0.150302
v 0.302490 0.676299 0.150302
v 0.307759 0.678585 0.138996
v 0.331110 0.660438 -0.150302
v 0.348597 0.657270 -0.138996
v 0.357662 0.652343 0.075151
v 0.368578 0.635680 0.075151
v 0.212924 0.705134 -0.138996
v 0.223976 0.696061 -0.150302
v 0.331110 0.660438 0.150302
v 0.348597 0.657270 0.138996
v 0.294689 0.677860 -0.150302
v 0.307759 0.678585 -0.138996
v 0.369112 0.026304 0.075151
v 0.381222 0.044012 0.075151
v 0.371033 0.027340 -0.000000
v 0.381222 0.044012 -0.000000
v 0.381222 0.044012 -0.075151
v 0.369112 0.026304 -0.075151
v 0.372201 0.186759 -0.150302
v 0.384228 0.186267 -0.138996
v 0.371918 0.340834 -0.150302
v 0.384228 0.339826 -0.138996
v 0.380983 0.493384 -0.138996
v 0.368299 0.494932 -0.150302
v 0.384228 0.186267 0.138996
v 0.372201 0.186759 0.150302
v 0.384228 0.339826 0.138996
v 0.371918 0.340834 0.150302
v 0.368299 0.494932 0.150302
v 0.380983 0.493384 0.138996
v 0.070901 0.794453 -0.150302
v 0.070901 0.810480 -0.138996
v 0.070901 0.810480 0.138996
v 0.070901 0.794453 0.150302
v 0.134507 0.844720 -0.150302
v 0.141913 0.854158 -0.138996
v 0.130177 0.846954 -0.150302
v 0.131927 0.858977 -0.138996
v 0.130854 0.847006 0.150302
v 0.131927 0.858977 0.138996
v 0.135100 0.844813 0.150302
v 0.141913 0.854158 0.138996
v 0.005482 0.870587 0.150302
v 0.006446 0.875773 0.138996
v -0.006446 0.875773 0.138996
v -0.005482 0.870587 0.150302
v -0.005222 0.870848 -0.150302
v -0.006446 0.875773 -0.138996
v 0.006446 0.875773 -0.138996
v 0.005222 0.870848 -0.150302
v -0.317844 0.009871 0.150302
v -0.320338 -0.000007 0.140424
v -0.317844 0.009871 -0.150302
v -0.320338 -0.000007 -0.140424
v 0.000000 -0.000007 0.140424
v 0.000000 0.009871 0.150302
v 0.000000 0.009871 -0.150302
v 0.000000 -0.000007 -0.140424
v -0.082687 -0.000007 -0.140424
v -0.089024 0.009871 -0.150302
v -0.166423 -0.000007 -0.140424
v -0.176542 0.009871 -0.150302
v -0.258839 0.009871 -0.150302
v -0.244592 -0.000007 -0.140424
v -0.244592 -0.000007 0.140424
v -0.258839 0.009871 0.150302
v -0.166423 -0.000007 0.140424
v -0.176542 0.009871 0.150302
v -0.089024 0.009871 0.150302
v -0.082687 -0.000007 0.140424
v 0.317844 0.009871 0.150302
v 0.320338 -0.000007 0.140424
v 0.317844 0.009871 -0.150302
v 0.320338 -0.000007 -0.140424
v 0.089024 0.009871 -0.150302
v 0.082687 -0.000007 -0.140424
v 0.176542 0.009871 -0.150302
v 0.166423 -0.000007 -0.140424
v 0.244592 -0.000007 -0.140424
v 0.258839 0.009871 -0.150302
v 0.258839 0.009871 0.150302
v 0.244592 -0.000007 0.140424
v 0.176542 0.009871 0.150302
v 0.166423 -0.000007 0.140424
v 0.082687 -0.000007 0.140424
v 0.089024 0.009871 0.150302
v -0.369045 0.026268 0.140424
v -0.351015 0.027765 0.150302
v -0.369230 0.036139 0.150302
v -0.351015 0.027765 -0.150302
v -0.369045 0.026268 -0.140424
v -0.369230 0.036139 -0.150302
v 0.351015 0.027765 0.150302
v 0.369045 0.026268 0.140424
v 0.369230 0.036139 0.150302
v 0.369045 0.026268 -0.140424
v 0.351015 0.027765 -0.150302
v 0.369230 0.036139 -0.150302
v -0.000000 0.032708 0.140302
v -0.000000 0.032708 -0.140302
v 0.000000 0.705344 0.140302
v 0.000000 0.705344 -0.140302
v 0.000000 0.735352 0.140302
v 0.000000 0.735352 -0.140302
v -0.176008 0.683401 -0.140302
v -0.176008 0.683401 0.140302
v -0.280764 0.679985 -0.000000
v -0.000000 0.720540 -0.140302
v 0.000000 0.720540 0.140302
v -0.158960 0.701889 -0.140302
v -0.158960 0.701889 0.140302
v -0.324275 0.658971 -0.000000
v -0.134153 0.713655 -0.000000
v -0.087948 0.698979 -0.140302
v -0.273171 0.664188 0.140302
v -0.280764 0.679985 -0.075151
v -0.070901 0.731015 -0.140302
v -0.000000 0.727996 -0.140302
v 0.000000 0.712988 0.140302
v -0.273172 0.664188 -0.140302
v -0.087948 0.698979 0.140302
v -0.280764 0.679985 0.075151
v -0.070901 0.731015 0.140302
v -0.000000 0.712988 -0.140302
v -0.000000 0.727996 0.140302
v -0.150957 0.705522 -0.140302
v -0.167484 0.692691 -0.140302
v -0.079425 0.715203 -0.140302
v -0.238496 0.684723 -0.140302
v -0.151477 0.705262 0.140302
v -0.167484 0.692691 0.140302
v -0.238496 0.684723 0.140302
v -0.079425 0.715203 0.140302
v -0.303415 0.669578 -0.000000
v -0.343845 0.648471 -0.000000
v -0.324275 0.658971 -0.075151
v -0.324275 0.658971 0.075151
v -0.134153 0.713655 0.075151
v -0.134153 0.713655 -0.075151
v -0.210825 0.695357 -0.000000
v -0.210825 0.695357 -0.075151
v -0.343845 0.648471 0.075151
v -0.343845 0.648471 -0.075151
v -0.303415 0.669578 -0.075151
v -0.083687 0.707141 0.140302
v -0.253700 0.674458 0.140302
v -0.227271 0.691576 0.140302
v -0.253700 0.674458 -0.140302
v -0.083687 0.707141 -0.140302
v -0.075163 0.723163 -0.140302
v -0.226750 0.691836 -0.140302
v -0.075163 0.723163 0.140302
v -0.303415 0.669578 0.075151
v -0.210825 0.695357 0.075151
v -0.291774 0.032708 -0.140302
v -0.199935 0.032708 -0.140302
v -0.103673 0.032708 -0.140302
v -0.103673 0.032708 0.140302
v -0.199935 0.032708 0.140302
v -0.291774 0.032708 0.140302
v 0.000000 0.537185 -0.140302
v 0.000000 0.369026 -0.140302
v 0.000000 0.200867 -0.140302
v 0.000000 0.537185 0.140302
v 0.000000 0.369026 0.140302
v 0.000000 0.200867 0.140302
v -0.317890 0.009689 -0.075151
v -0.317890 0.009689 -0.000000
v -0.317890 0.009689 0.075151
v 0.000000 0.009993 0.075151
v 0.000000 0.009993 -0.000000
v 0.000000 0.009993 -0.075151
v -0.244592 0.009993 -0.075151
v -0.244592 0.009993 -0.000000
v -0.244592 0.009993 0.075151
v -0.166423 0.009993 -0.075151
v -0.166423 0.009993 -0.000000
v -0.166423 0.009993 0.075151
v -0.082687 0.009993 -0.075151
v -0.082687 0.009993 -0.000000
v -0.082687 0.009993 0.075151
v -0.374229 0.186373 -0.075151
v -0.374229 0.339720 -0.075151
v -0.370998 0.492844 -0.075151
v -0.374229 0.186373 -0.000000
v -0.374229 0.339720 -0.000000
v -0.370998 0.492844 -0.000000
v -0.374229 0.186373 0.075151
v -0.374229 0.339720 0.075151
v -0.370998 0.492844 0.075151
v -0.295137 0.189917 0.140302
v -0.295132 0.347126 0.140302
v -0.291241 0.504334 0.140302
v -0.203754 0.193567 0.140302
v -0.203730 0.354426 0.140302
v -0.198637 0.515285 0.140302
v -0.109021 0.197217 0.140302
v -0.108949 0.361726 0.140302
v -0.100341 0.526235 0.140302
v -0.109021 0.197217 -0.140302
v -0.108949 0.361726 -0.140302
v -0.100341 0.526235 -0.140302
v -0.203754 0.193567 -0.140302
v -0.203730 0.354426 -0.140302
v -0.198637 0.515285 -0.140302
v -0.295137 0.189917 -0.140302
v -0.295132 0.347126 -0.140302
v -0.291242 0.504334 -0.140302
v -0.070300 0.800498 -0.000000
v -0.070300 0.800498 -0.075151
v -0.070300 0.800498 0.075151
v -0.133444 0.848841 -0.000000
v -0.133034 0.849038 -0.000000
v -0.133034 0.849038 0.075151
v -0.133444 0.848841 0.075151
v -0.133034 0.849038 -0.075151
v -0.133444 0.848841 -0.075151
v 0.176008 0.683401 -0.140302
v 0.176008 0.683401 0.140302
v 0.280764 0.679985 -0.000000
v 0.158960 0.701889 -0.140302
v 0.158960 0.701889 0.140302
v 0.324275 0.658971 -0.000000
v 0.134153 0.713655 -0.000000
v 0.087948 0.698979 -0.140302
v 0.273171 0.664188 0.140302
v 0.280764 0.679985 -0.075151
v 0.070901 0.731015 -0.140302
v 0.273172 0.664188 -0.140302
v 0.087948 0.698979 0.140302
v 0.280764 0.679985 0.075151
v 0.070901 0.731015 0.140302
v 0.150957 0.705522 -0.140302
v 0.167484 0.692691 -0.140302
v 0.079425 0.715203 -0.140302
v 0.238496 0.684723 -0.140302
v 0.151477 0.705262 0.140302
v 0.167484 0.692691 0.140302
v 0.238496 0.684723 0.140302
v 0.079425 0.715203 0.140302
v 0.303415 0.669578 -0.000000
v 0.343845 0.648471 -0.000000
v 0.324275 0.658971 -0.075151
v 0.324275 0.658971 0.075151
v 0.134153 0.713655 0.075151
v 0.134153 0.713655 -0.075151
v 0.210825 0.695357 -0.000000
v 0.210825 0.695357 -0.075151
v 0.343845 0.648471 0.075151
v 0.343845 0.648471 -0.075151
v 0.303415 0.669578 -0.075151
v 0.083687 0.707141 0.140302
v 0.253700 0.674458 0.140302
v 0.227271 0.691576 0.140302
v 0.253700 0.674458 -0.140302
v 0.083687 0.707141 -0.140302
v 0.075163 0.723163 -0.140302
v 0.226750 0.691836 -0.140302
v 0.075163 0.723163 0.140302
v 0.303415 0.669578 0.075151
v 0.210825 0.695357 0.075151
v 0.291774 0.032708 -0.140302
v 0.199935 0.032708 -0.140302
v 0.103673 0.032708 -0.140302
v 0.103673 0.032708 0.140302
v 0.199935 0.032708 0.140302
v 0.291774 0.032708 0.140302
v 0.317890 0.009689 -0.075151
v 0.317890 0.009689 -0.000000
v 0.317890 0.009689 0.075151
v 0.244592 0.009993 -0.075151
v 0.244592 0.009993 -0.000000
v 0.244592 0.009993 0.075151
v 0.166423 0.009993 -0.075151
v 0.166423 0.009993 -0.000000
v 0.166423 0.009993 0.075151
v 0.082687 0.009993 -0.075151
v 0.082687 0.009993 -0.000000
v 0.082687 0.009993 0.075151
v 0.374229 0.186373 -0.075151
v 0.374229 0.339720 -0.075151
v 0.370998 0.492844 -0.075151
v 0.374229 0.186373 -0.000000
v 0.374229 0.339720 -0.000000
v 0.370998 0.492844 -0.000000
v 0.374229 0.186373 0.075151
v 0.374229 0.339720 0.075151
v 0.370998 0.492844 0.075151
v 0.295137 0.189917 0.140302
v 0.295132 0.347126 0.140302
v 0.291241 0.504334 0.140302
v 0.203754 0.193567 0.140302
v 0.203730 0.354426 0.140302
v 0.198637 0.515285 0.140302
v 0.109021 0.197217 0.140302
v 0.108949 0.361726 0.140302
v 0.100341 0.526235 0.140302
v 0.109021 0.197217 -0.140302
v 0.108949 0.361726 -0.140302
v 0.100341 0.526235 -0.140302
v 0.203754 0.193567 -0.140302
v 0.203730 0.354426 -0.140302
v 0.198637 0.515285 -0.140302
v 0.295137 0.189917 -0.140302
v 0.295132 0.347126 -0.140302
v 0.291242 0.504334 -0.140302
v 0.070300 0.800498 -0.000000
v 0.070300 0.800498 -0.075151
v 0.070300 0.800498 0.075151
v 0.133444 0.848841 -0.000000
v 0.133034 0.849038 -0.000000
v 0.133034 0.849038 0.075151
v 0.133444 0.848841 0.075151
v 0.133034 0.849038 -0.075151
v 0.133444 0.848841 -0.075151
v 0.000000 0.865263 0.140302
v 0.000000 0.864889 -0.140302
v -0.002589 0.866547 -0.000000
v 0.002589 0.866547 -0.000000
v 0.002589 0.866547 0.075151
v -0.002589 0.866547 0.075151
v 0.002589 0.866547 -0.075151
v -0.002589 0.866547 -0.075151
v -0.372280 0.046687 0.135405
v -0.372280 0.046687 -0.135405
v -0.359608 0.633044 0.135447
v -0.349951 0.645124 0.142391
v -0.351049 0.645079 0.137124
v -0.359608 0.633044 -0.135447
v -0.351049 0.645079 -0.137124
v -0.349951 0.645124 -0.142391
v -0.280997 0.680128 0.136965
v -0.289143 0.677210 0.142403
v -0.280044 0.679885 -0.142040
v -0.280787 0.680252 -0.136728
v -0.350887 0.644988 -0.000000
v -0.359129 0.632407 -0.000000
v -0.135082 0.713695 -0.135246
v -0.130288 0.715491 -0.140634
v -0.129772 0.715529 0.140628
v -0.135094 0.713664 0.135275
v -0.309711 0.666059 0.141959
v -0.324324 0.659213 0.136833
v -0.305817 0.667049 -0.141763
v -0.324446 0.659183 -0.136701
v -0.359129 0.632407 -0.075151
v -0.350887 0.644988 -0.075151
v -0.222106 0.691446 0.141791
v -0.210879 0.695616 0.136708
v -0.303378 0.669769 0.137238
v -0.299888 0.671188 0.142110
v -0.344074 0.648571 -0.137026
v -0.328695 0.655688 -0.141840
v -0.359129 0.632407 0.075151
v -0.350887 0.644988 0.075151
v -0.222910 0.690964 -0.141765
v -0.210877 0.695625 -0.136675
v -0.344051 0.648581 0.137036
v -0.328605 0.655766 0.141823
v -0.303510 0.669850 -0.136622
v -0.292415 0.673268 -0.141715
v -0.371682 0.047011 0.075132
v -0.362394 0.033712 0.075133
v -0.371664 0.046951 -0.000000
v -0.364221 0.034661 -0.000000
v -0.362394 0.033712 -0.075133
v -0.371682 0.047011 -0.075132
v -0.375047 0.186362 -0.135033
v -0.368500 0.186795 -0.141012
v -0.375069 0.339727 -0.134984
v -0.368269 0.340790 -0.140992
v -0.364666 0.494721 -0.140988
v -0.371849 0.492896 -0.134954
v -0.368500 0.186795 0.141012
v -0.375047 0.186362 0.135033
v -0.368269 0.340790 0.140991
v -0.375069 0.339727 0.134984
v -0.371849 0.492896 0.134954
v -0.364666 0.494721 0.140988
v -0.070025 0.801754 -0.134191
v -0.070774 0.792657 -0.140465
v -0.070767 0.792663 0.140464
v -0.070001 0.801772 0.134163
v -0.130124 0.842698 -0.141544
v -0.134126 0.849000 -0.135423
v -0.131081 0.842471 -0.141409
v -0.132749 0.849738 -0.135259
v -0.131660 0.842506 0.141408
v -0.132786 0.849733 0.135281
v -0.130662 0.842794 0.141571
v -0.134140 0.848965 0.135446
v 0.372280 0.046687 0.135405
v 0.372280 0.046687 -0.135405
v 0.359608 0.633044 0.135447
v 0.351049 0.645079 0.137124
v 0.349951 0.645124 0.142391
v 0.359608 0.633044 -0.135447
v 0.349951 0.645124 -0.142391
v 0.351049 0.645079 -0.137124
v 0.289143 0.677210 0.142403
v 0.280997 0.680128 0.136965
v 0.280044 0.679885 -0.142040
v 0.280787 0.680252 -0.136728
v 0.359129 0.632407 -0.000000
v 0.350887 0.644988 -0.000000
v 0.130288 0.715491 -0.140634
v 0.135082 0.713695 -0.135246
v 0.135094 0.713664 0.135275
v 0.129772 0.715529 0.140628
v 0.324324 0.659213 0.136833
v 0.309711 0.666059 0.141959
v 0.324446 0.659183 -0.136701
v 0.305817 0.667049 -0.141763
v 0.350887 0.644988 -0.075151
v 0.359129 0.632407 -0.075151
v 0.210879 0.695616 0.136708
v 0.222106 0.691446 0.141791
v 0.299888 0.671188 0.142110
v 0.303378 0.669769 0.137238
v 0.328695 0.655688 -0.141840
v 0.344074 0.648571 -0.137026
v 0.350887 0.644988 0.075151
v 0.359129 0.632407 0.075151
v 0.210877 0.695625 -0.136675
v 0.222910 0.690964 -0.141765
v 0.328605 0.655766 0.141823
v 0.344051 0.648581 0.137036
v 0.292415 0.673268 -0.141715
v 0.303510 0.669850 -0.136621
v 0.362394 0.033712 0.075133
v 0.371682 0.047011 0.075132
v 0.364221 0.034661 -0.000000
v 0.371664 0.046951 -0.000000
v 0.371682 0.047011 -0.075132
v 0.362394 0.033712 -0.075133
v 0.368500 0.186795 -0.141012
v 0.375047 0.186362 -0.135033
v 0.368269 0.340790 -0.140992
v 0.375069 0.339727 -0.134984
v 0.371849 0.492896 -0.134954
v 0.364666 0.494721 -0.140988
v 0.375047 0.186362 0.135033
v 0.368500 0.186795 0.141012
v 0.375069 0.339727 0.134984
v 0.368269 0.340790 0.140991
v 0.364666 0.494721 0.140988
v 0.371849 0.492896 0.134954
v 0.070774 0.792657 -0.140465
v 0.070025 0.801754 -0.134191
v 0.070001 0.801772 0.134163
v 0.070767 0.792663 0.140464
v 0.130124 0.842698 -0.141544
v 0.134126 0.849000 -0.135423
v 0.131081 0.842471 -0.141409
v 0.132749 0.849738 -0.135259
v 0.131660 0.842506 0.141408
v 0.132786 0.849733 0.135281
v 0.130662 0.842794 0.141571
v 0.134140 0.848965 0.135446
v 0.003161 0.865371 0.142092
v 0.002823 0.866808 0.136448
v -0.002823 0.866808 0.136448
v -0.003161 0.865371 0.142092
v -0.002926 0.865572 -0.142123
v -0.002796 0.866807 -0.136487
v 0.002796 0.866807 -0.136487
v 0.002926 0.865572 -0.142123
v -0.316806 0.013982 0.141245
v -0.318063 0.009002 0.136729
v -0.316806 0.013982 -0.141245
v -0.318063 0.009002 -0.136729
v 0.000000 0.009232 0.136597
v 0.000000 0.013698 0.141063
v 0.000000 0.013698 -0.141063
v 0.000000 0.009232 -0.136597
v -0.082687 0.009232 -0.136597
v -0.089024 0.013698 -0.141063
v -0.166423 0.009232 -0.136597
v -0.176542 0.013698 -0.141063
v -0.258839 0.013698 -0.141063
v -0.244592 0.009232 -0.136597
v -0.244592 0.009232 0.136597
v -0.258839 0.013698 0.141063
v -0.166423 0.009232 0.136597
v -0.176542 0.013698 0.141063
v -0.089024 0.013698 0.141063
v -0.082687 0.009232 0.136597
v 0.316806 0.013982 0.141245
v 0.318063 0.009002 0.136729
v 0.316806 0.013982 -0.141245
v 0.318063 0.009002 -0.136729
v 0.089024 0.013698 -0.141063
v 0.082687 0.009232 -0.136597
v 0.176542 0.013698 -0.141063
v 0.166423 0.009232 -0.136597
v 0.244592 0.009232 -0.136597
v 0.258839 0.013698 -0.141063
v 0.258839 0.013698 0.141063
v 0.244592 0.009232 0.136597
v 0.176542 0.013698 0.141063
v 0.166423 0.009232 0.136597
v 0.082687 0.009232 0.136597
v 0.089024 0.013698 0.141063
v -0.362893 0.033478 0.137236
v -0.348961 0.031078 0.141093
v -0.365025 0.039124 0.141734
v -0.348961 0.031078 -0.141093
v -0.362893 0.033478 -0.137236
v -0.365025 0.039124 -0.141734
v 0.348961 0.031078 0.141093
v 0.362893 0.033478 0.137236
v 0.365025 0.039124 0.141734
v 0.362893 0.033478 -0.137236
v 0.348961 0.031078 -0.141093
v 0.365025 0.039124 -0.141734
vn -0.0000 -0.0000 1.0000
vn -0.0000 -0.0000 -1.0000
vn -0.4344 0.9007 -0.0000
vn -0.3172 0.9483 -0.0000
vn -0.4752 0.8799 -0.0000
vn -0.4630 0.8864 -0.0000
vn -0.2099 0.9777 -0.0000
vn -0.2044 0.9789 -0.0000
vn 0.2448 -0.9696 -0.0000
vn 0.6718 -0.7408 -0.0018
vn 0.6812 -0.7321 -0.0000
vn -0.2448 -0.9696 -0.0000
vn -0.6718 -0.7408 0.0018
vn -0.6812 -0.7321 -0.0000
vn -0.0000 -1.0000 -0.0000
vn -0.9999 0.0106 -0.0000
vn -0.9985 0.0540 -0.0000
vn -0.9999 -0.0106 -0.0000
vn -0.4346 0.9006 -0.0000
vn -1.0000 -0.0000 -0.0000
vn 0.6222 0.7829 -0.0000
vn 0.4344 0.9007 -0.0000
vn 0.3172 0.9483 -0.0000
vn 0.4752 0.8799 -0.0000
vn 0.4630 0.8864 -0.0000
vn 0.2099 0.9777 -0.0000
vn 0.2044 0.9789 -0.0000
vn 0.6718 -0.7408 0.0018
vn 0.9999 0.0106 -0.0000
vn 0.9985 0.0540 -0.0000
vn 0.9999 -0.0106 -0.0000
vn 0.4346 0.9006 -0.0000
vn -0.6718 -0.7408 -0.0018
vn 1.0000 -0.0000 -0.0000
vn -0.6222 0.7829 -0.0000
vn -0.0000 1.0000 -0.0000
vn 0.7117 0.7025 -0.0000
vn -0.7117 0.7025 -0.0000
vn -0.7797 0.5108 0.3622
vn -0.5693 0.7296 0.3790
vn -0.6186 0.6886 0.3784
vn -0.7797 0.5108 -0.3622
vn -0.6186 0.6886 -0.3784
vn -0.5693 0.7296 -0.3790
vn 0.7797 0.5108 0.3622
vn 0.6186 0.6886 0.3784
vn 0.5693 0.7296 0.3790
vn 0.7797 0.5108 -0.3622
vn 0.5693 0.7296 -0.3790
vn 0.6186 0.6886 -0.3784
vn -0.6672 0.0350 -0.7440
vn -0.6617 0.0587 -0.7475
vn -0.6664 0.0387 -0.7446
vn -0.6664 0.0387 0.7446
vn -0.6617 0.0587 0.7475
vn -0.6672 0.0350 0.7440
vn -0.1882 0.8751 0.4458
vn -0.2571 0.8786 0.4025
vn -0.3597 0.8691 0.3395
vn -0.1862 0.8768 0.4434
vn -0.4283 0.8411 0.3303
vn -0.4279 0.8345 0.3471
vn -0.4094 0.8053 -0.4288
vn -0.4115 0.8254 -0.3865
vn -0.1882 0.8720 -0.4519
vn -0.1909 0.8702 -0.4542
vn -0.1831 0.8754 -0.4475
vn -0.4286 0.7994 0.4211
vn -0.4280 0.8134 0.3941
vn -0.4313 0.7969 0.4229
vn -0.4163 0.8239 0.3845
vn -0.3961 0.7999 -0.4509
vn -0.3913 0.7942 -0.4648
vn -0.4048 0.7974 -0.4475
vn -0.3907 0.7957 -0.4627
vn -0.1893 0.8742 0.4472
vn -0.2954 0.8441 -0.4475
vn -0.2892 0.8462 -0.4476
vn -0.8320 -0.5547 0.0036
vn -0.8390 -0.5442 -0.0000
vn -0.8320 -0.5547 -0.0036
vn -0.6775 0.7355 -0.0000
vn -0.9449 0.3273 -0.0000
vn -0.6843 -0.0068 -0.7292
vn -0.6764 0.0075 -0.7365
vn -0.6760 0.0081 -0.7369
vn -0.6842 -0.0066 -0.7293
vn -0.6842 -0.0066 0.7293
vn -0.6760 0.0081 0.7369
vn -0.6764 0.0075 0.7365
vn -0.6843 -0.0068 0.7292
vn -0.3126 0.6344 0.7070
vn -0.3078 0.6248 -0.7176
vn -0.8028 -0.0064 -0.5962
vn 0.4779 0.5692 -0.6691
vn -0.8049 -0.0098 0.5933
vn 0.4718 0.5649 0.6770
vn 0.6664 0.0387 -0.7446
vn 0.6617 0.0587 -0.7475
vn 0.6672 0.0350 -0.7440
vn 0.6672 0.0350 0.7440
vn 0.6617 0.0587 0.7475
vn 0.6664 0.0387 0.7446
vn 0.1862 0.8768 0.4434
vn 0.3597 0.8691 0.3395
vn 0.2571 0.8786 0.4025
vn 0.1882 0.8751 0.4458
vn 0.4279 0.8345 0.3471
vn 0.4283 0.8411 0.3303
vn 0.4115 0.8254 -0.3865
vn 0.4094 0.8053 -0.4288
vn 0.1831 0.8754 -0.4475
vn 0.1909 0.8702 -0.4542
vn 0.1882 0.8720 -0.4519
vn 0.4163 0.8239 0.3845
vn 0.4313 0.7969 0.4229
vn 0.4280 0.8134 0.3941
vn 0.4286 0.7994 0.4211
vn 0.3907 0.7957 -0.4627
vn 0.4048 0.7974 -0.4475
vn 0.3913 0.7942 -0.4648
vn 0.3961 0.7999 -0.4509
vn 0.1893 0.8742 0.4472
vn 0.2892 0.8462 -0.4476
vn 0.2954 0.8441 -0.4475
vn 0.8390 -0.5442 -0.0000
vn 0.8320 -0.5547 0.0036
vn 0.8320 -0.5547 -0.0036
vn 0.9449 0.3273 -0.0000
vn 0.6775 0.7355 -0.0000
vn 0.6842 -0.0066 -0.7293
vn 0.6760 0.0081 -0.7369
vn 0.6764 0.0075 -0.7365
vn 0.6843 -0.0068 -0.7292
vn 0.6843 -0.0068 0.7292
vn 0.6764 0.0075 0.7365
vn 0.6760 0.0081 0.7369
vn 0.6842 -0.0066 0.7293
vn 0.3126 0.6344 0.7070
vn 0.3078 0.6248 -0.7176
vn 0.8028 -0.0064 -0.5962
vn -0.4779 0.5692 -0.6691
vn 0.8049 -0.0098 0.5933
vn -0.4718 0.5649 0.6770
vn -0.0000 0.9089 0.4169
vn -0.0000 0.9168 -0.3994
vn 0.6131 0.5630 0.5543
vn -0.6131 0.5630 0.5543
vn 0.6128 0.5628 -0.5547
vn -0.6128 0.5628 -0.5547
vn -0.9998 -0.0211 -0.0000
vn 0.9998 -0.0211 -0.0000
vn -0.5426 -0.5992 0.5886
vn -0.4903 -0.6088 0.6236
vn -0.3845 -0.6202 0.6837
vn -0.0000 -0.7071 -0.7071
vn -0.1704 -0.6749 -0.7179
vn -0.0000 -0.7071 0.7071
vn -0.1704 -0.6749 0.7179
vn 0.1704 -0.6749 -0.7179
vn 0.1704 -0.6749 0.7179
vn -0.3845 -0.6202 -0.6837
vn -0.4903 -0.6088 -0.6236
vn 0.4903 -0.6088 0.6236
vn 0.3845 -0.6202 0.6837
vn 0.3845 -0.6202 -0.6837
vn 0.4903 -0.6088 -0.6236
vn -0.6647 -0.7471 0.0001
vn -0.6647 -0.7471 -0.0001
vn 0.6647 -0.7471 0.0001
vn 0.6647 -0.7471 -0.0001
vn -0.6877 -0.0140 0.7259
vn -0.8250 -0.5652 0.0003
vn -0.6877 -0.0140 -0.7259
vn 0.5426 -0.5992 -0.5886
vn 0.6877 -0.0140 0.7259
vn 0.8250 -0.5652 0.0003
vn 0.6877 -0.0140 -0.7259
vn -0.5426 -0.5992 -0.5886
vn -0.8250 -0.5652 -0.0003
vn 0.8250 -0.5652 -0.0003
vn 0.5426 -0.5992 0.5886
vn -0.0039 0.0121 -0.9999
vn -0.0073 0.0081 -0.9999
vn -0.0000 0.0052 -1.0000
vn -0.0193 0.0343 -0.9992
vn -0.0259 0.0514 -0.9983
vn 0.4354 -0.9002 -0.0022
vn 0.3178 -0.9482 -0.0022
vn 0.3179 -0.9481 -0.0000
vn 0.4354 -0.9002 -0.0000
vn 0.4591 -0.8884 -0.0016
vn 0.4635 -0.8861 -0.0021
vn 0.4630 -0.8863 -0.0000
vn 0.4582 -0.8889 -0.0000
vn 0.2234 -0.9747 -0.0022
vn 0.2234 -0.9747 -0.0000
vn 0.2321 -0.9727 -0.0022
vn 0.2321 -0.9727 -0.0000
vn 0.4629 -0.8864 0.0017
vn 0.4589 -0.8885 0.0016
vn -0.2428 0.9701 -0.0000
vn -0.6797 0.7335 -0.0000
vn -0.6689 0.7434 -0.0031
vn -0.2436 0.9699 -0.0053
vn 0.2436 0.9699 0.0053
vn 0.2428 0.9701 -0.0000
vn 0.6797 0.7335 -0.0000
vn 0.6689 0.7434 0.0031
vn -0.0191 0.0186 -0.9996
vn -0.0999 0.3759 -0.9213
vn -0.0494 0.2063 -0.9772
vn -0.0212 0.0379 0.9991
vn -0.0176 0.0286 0.9994
vn -0.0194 0.0195 0.9996
vn -0.0000 0.0053 1.0000
vn -0.0072 0.0082 0.9999
vn -0.0039 0.0123 0.9999
vn -0.0548 0.2287 0.9720
vn -0.0959 0.3758 0.9217
vn 0.3183 -0.9480 0.0017
vn 0.4354 -0.9003 0.0016
vn 0.2320 -0.9727 0.0020
vn 0.2235 -0.9747 0.0019
vn 0.2436 0.9699 -0.0053
vn -0.0021 1.0000 -0.0000
vn -0.0019 1.0000 -0.0060
vn -0.0019 1.0000 0.0060
vn -0.0000 1.0000 -0.0062
vn -0.0000 1.0000 0.0062
vn -0.0000 -0.0200 -0.9998
vn 0.9999 -0.0105 -0.0070
vn 0.9986 -0.0532 -0.0064
vn 0.9986 -0.0529 -0.0000
vn 0.9999 -0.0105 -0.0000
vn 0.9999 0.0094 -0.0065
vn 1.0000 0.0092 -0.0000
vn 0.9986 -0.0532 0.0064
vn 0.9999 -0.0105 0.0070
vn 0.9999 0.0094 0.0065
vn -0.0048 -0.0000 -1.0000
vn -0.0078 0.0020 -1.0000
vn -0.0061 -0.0007 -1.0000
vn -0.0070 -0.0194 -0.9998
vn -0.0000 -0.0200 0.9998
vn -0.0078 0.0020 1.0000
vn -0.0048 -0.0000 1.0000
vn -0.0061 -0.0007 1.0000
vn -0.0070 -0.0194 0.9998
vn 0.4493 -0.8934 -0.0039
vn 0.4342 -0.9008 -0.0000
vn 0.4577 -0.8891 0.0039
vn 1.0000 -0.0057 -0.0067
vn 1.0000 -0.0052 -0.0000
vn -0.6119 -0.7909 -0.0000
vn -0.6107 -0.7918 0.0079
vn -0.6107 -0.7919 0.0080
vn -0.6108 -0.7917 -0.0079
vn 1.0000 -0.0057 0.0068
vn 0.0039 0.0121 -0.9999
vn 0.0073 0.0081 -0.9999
vn 0.0193 0.0343 -0.9992
vn 0.0259 0.0514 -0.9983
vn -0.4354 -0.9002 -0.0022
vn -0.4354 -0.9002 -0.0000
vn -0.3179 -0.9481 -0.0000
vn -0.3178 -0.9482 -0.0022
vn -0.4591 -0.8884 -0.0016
vn -0.4582 -0.8889 -0.0000
vn -0.4630 -0.8863 -0.0000
vn -0.4635 -0.8861 -0.0021
vn -0.2234 -0.9747 -0.0022
vn -0.2234 -0.9747 -0.0000
vn -0.2321 -0.9727 -0.0022
vn -0.2321 -0.9727 -0.0000
vn -0.4589 -0.8885 0.0016
vn -0.4629 -0.8864 0.0017
vn 0.0191 0.0186 -0.9996
vn 0.0494 0.2063 -0.9772
vn 0.0999 0.3759 -0.9213
vn 0.0176 0.0286 0.9994
vn 0.0212 0.0379 0.9991
vn 0.0194 0.0195 0.9996
vn 0.0039 0.0123 0.9999
vn 0.0072 0.0082 0.9999
vn 0.0548 0.2287 0.9720
vn 0.0959 0.3758 0.9217
vn -0.4354 -0.9003 0.0016
vn -0.3183 -0.9480 0.0017
vn -0.2235 -0.9747 0.0019
vn -0.2320 -0.9727 0.0020
vn 0.0019 1.0000 -0.0060
vn 0.0021 1.0000 -0.0000
vn 0.0019 1.0000 0.0060
vn -0.2436 0.9699 0.0053
vn -0.6689 0.7434 0.0031
vn -0.9999 -0.0105 -0.0070
vn -0.9999 -0.0105 -0.0000
vn -0.9986 -0.0529 -0.0000
vn -0.9986 -0.0532 -0.0064
vn -0.9999 0.0094 -0.0065
vn -1.0000 0.0092 -0.0000
vn -0.9999 -0.0105 0.0070
vn -0.9986 -0.0532 0.0064
vn -0.9999 0.0094 0.0065
vn 0.0048 -0.0000 -1.0000
vn 0.0078 0.0020 -1.0000
vn 0.0061 -0.0007 -1.0000
vn 0.0070 -0.0194 -0.9998
vn 0.0048 -0.0000 1.0000
vn 0.0078 0.0020 1.0000
vn 0.0061 -0.0007 1.0000
vn 0.0070 -0.0194 0.9998
vn -0.4493 -0.8934 -0.0039
vn -0.4342 -0.9008 -0.0000
vn -0.4577 -0.8891 0.0039
vn 0.6689 0.7434 -0.0031
vn -1.0000 -0.0057 -0.0067
vn -1.0000 -0.0052 -0.0000
vn 0.6119 -0.7909 -0.0000
vn 0.6107 -0.7919 0.0080
vn 0.6107 -0.7918 0.0079
vn 0.6108 -0.7917 -0.0079
vn -1.0000 -0.0057 0.0068
vn -0.0000 -1.0000 -0.0021
vn -0.0000 -1.0000 0.0021
vn -0.6975 -0.7166 -0.0043
vn -0.6983 -0.7158 -0.0000
vn 0.6975 -0.7166 -0.0043
vn 0.6983 -0.7158 -0.0000
vn 0.6976 -0.7165 0.0044
vn -0.6976 -0.7165 0.0044
vn 0.8145 -0.5563 -0.1650
vn 0.6744 -0.7258 -0.1357
vn 0.5989 -0.7918 -0.1200
vn 0.8145 -0.5563 0.1650
vn 0.5983 -0.7921 0.1208
vn 0.6740 -0.7261 0.1363
vn -0.8145 -0.5563 -0.1650
vn -0.5989 -0.7918 -0.1200
vn -0.6744 -0.7258 -0.1357
vn -0.8145 -0.5563 0.1650
vn -0.6740 -0.7261 0.1363
vn -0.5983 -0.7921 0.1208
vn 0.6471 -0.0314 0.7617
vn 0.6446 -0.0373 0.7636
vn 0.6372 -0.0541 0.7688
vn 0.6446 -0.0373 -0.7636
vn 0.6471 -0.0314 -0.7617
vn 0.6372 -0.0541 -0.7688
vn 0.2366 -0.9662 -0.1020
vn 0.2082 -0.9485 -0.2390
vn 0.4036 -0.9149 0.0091
vn 0.2485 -0.9465 -0.2058
vn 0.4466 -0.8944 0.0244
vn 0.4515 -0.8913 -0.0424
vn 0.4462 -0.8703 0.2086
vn 0.4430 -0.8907 0.1016
vn 0.2372 -0.9646 0.1154
vn 0.2029 -0.9525 0.2272
vn 0.2427 -0.9653 0.0963
vn 0.4650 -0.8657 -0.1852
vn 0.4456 -0.8899 -0.0977
vn 0.4659 -0.8652 -0.1853
vn 0.4552 -0.8849 -0.0988
vn 0.4265 -0.8731 0.2364
vn 0.4234 -0.8639 0.2729
vn 0.4443 -0.8669 0.2259
vn 0.4248 -0.8625 0.2750
vn 0.2412 -0.9674 -0.0772
vn 0.3225 -0.9161 0.2383
vn 0.3058 -0.9215 0.2395
vn 0.8272 0.5619 0.0016
vn 0.8370 0.5472 -0.0000
vn 0.8272 0.5619 -0.0016
vn 0.6600 -0.7513 -0.0027
vn 0.9438 -0.3306 -0.0050
vn 0.9382 -0.3459 -0.0099
vn 0.6504 -0.7596 -0.0053
vn 0.6686 0.0057 0.7436
vn 0.6686 0.0054 0.7436
vn 0.6607 -0.0082 0.7506
vn 0.6618 -0.0071 0.7496
vn 0.6686 0.0054 -0.7436
vn 0.6686 0.0057 -0.7436
vn 0.6618 -0.0071 -0.7496
vn 0.6607 -0.0082 -0.7506
vn 0.6600 -0.7513 0.0027
vn 0.9438 -0.3306 0.0050
vn 0.9453 -0.3263 -0.0000
vn 0.6632 -0.7484 -0.0000
vn 0.6503 -0.7597 0.0053
vn 0.9382 -0.3459 0.0099
vn 0.1607 -0.6355 -0.7552
vn 0.1966 -0.6112 0.7667
vn 0.7944 -0.0009 0.6074
vn -0.4527 -0.5552 0.6977
vn 0.7940 0.0024 -0.6079
vn -0.4454 -0.5483 -0.7078
vn -0.6446 -0.0373 0.7636
vn -0.6471 -0.0314 0.7617
vn -0.6372 -0.0541 0.7688
vn -0.6471 -0.0314 -0.7617
vn -0.6446 -0.0373 -0.7636
vn -0.6372 -0.0541 -0.7688
vn -0.2082 -0.9485 -0.2390
vn -0.2366 -0.9662 -0.1020
vn -0.2485 -0.9465 -0.2058
vn -0.4036 -0.9149 0.0091
vn -0.4515 -0.8913 -0.0424
vn -0.4466 -0.8944 0.0244
vn -0.4430 -0.8907 0.1015
vn -0.4462 -0.8703 0.2086
vn -0.2029 -0.9525 0.2272
vn -0.2372 -0.9646 0.1154
vn -0.2427 -0.9653 0.0963
vn -0.4456 -0.8899 -0.0977
vn -0.4650 -0.8657 -0.1852
vn -0.4552 -0.8849 -0.0988
vn -0.4659 -0.8652 -0.1853
vn -0.4234 -0.8639 0.2729
vn -0.4265 -0.8731 0.2364
vn -0.4248 -0.8625 0.2750
vn -0.4443 -0.8669 0.2259
vn -0.2412 -0.9674 -0.0772
vn -0.3058 -0.9215 0.2395
vn -0.3225 -0.9161 0.2384
vn -0.8272 0.5619 0.0016
vn -0.8370 0.5472 -0.0000
vn -0.8272 0.5619 -0.0016
vn -0.9438 -0.3306 -0.0050
vn -0.6600 -0.7513 -0.0027
vn -0.6504 -0.7596 -0.0053
vn -0.9382 -0.3459 -0.0099
vn -0.6686 0.0054 0.7436
vn -0.6686 0.0057 0.7436
vn -0.6618 -0.0071 0.7496
vn -0.6607 -0.0082 0.7506
vn -0.6686 0.0057 -0.7436
vn -0.6686 0.0054 -0.7436
vn -0.6607 -0.0082 -0.7506
vn -0.6618 -0.0071 -0.7496
vn -0.9438 -0.3306 0.0050
vn -0.6600 -0.7513 0.0027
vn -0.6632 -0.7484 -0.0000
vn -0.9453 -0.3263 -0.0000
vn -0.9382 -0.3459 0.0099
vn -0.6503 -0.7597 0.0053
vn -0.1606 -0.6355 -0.7552
vn -0.1965 -0.6113 0.7666
vn -0.7944 -0.0009 0.6074
vn 0.4527 -0.5552 0.6977
vn -0.7940 0.0024 -0.6079
vn 0.4454 -0.5483 -0.7078
vn -0.0000 -0.9691 -0.2467
vn -0.0000 -0.9768 0.2142
vn -0.6347 -0.6075 -0.4777
vn 0.6347 -0.6075 -0.4777
vn -0.6338 -0.6068 0.4796
vn 0.6338 -0.6068 0.4796
vn 0.9998 0.0187 0.0060
vn 0.9999 0.0096 0.0129
vn 0.9997 0.0191 0.0118
vn 0.9997 0.0191 -0.0118
vn 0.9999 0.0096 -0.0129
vn 0.9998 0.0187 -0.0060
vn -0.0139 0.0030 -0.9999
vn -0.0211 0.0098 -0.9997
vn 0.4595 -0.8882 0.0031
vn 0.9985 -0.0535 0.0128
vn -0.0337 0.0404 -0.9986
vn 0.9985 -0.0535 -0.0128
vn -0.0339 0.0410 0.9986
vn -0.0212 0.0100 0.9997
vn -0.0139 0.0030 0.9999
vn 0.4598 -0.8880 -0.0033
vn -0.0638 0.1534 -0.9861
vn -0.1885 0.7132 -0.6752
vn -0.1150 0.4723 -0.8739
vn 0.3195 -0.9476 0.0034
vn 0.4352 -0.9003 0.0031
vn 0.2235 -0.9747 0.0039
vn 0.4353 -0.9003 -0.0044
vn 0.3174 -0.9483 -0.0044
vn 0.2233 -0.9747 -0.0044
vn -0.1283 0.5288 0.8390
vn -0.1845 0.7266 0.6619
vn -0.0530 0.1231 0.9910
vn -0.0153 0.0447 0.9989
vn 0.9999 -0.0062 -0.0134
vn -0.0110 0.0076 0.9999
vn -0.0109 0.0049 0.9999
vn 0.2321 -0.9727 -0.0043
vn -0.0148 0.0420 -0.9990
vn -0.0111 0.0049 -0.9999
vn -0.0111 0.0075 -0.9999
vn 0.2319 -0.9727 0.0040
vn 0.9999 -0.0062 0.0136
vn -0.0414 0.0761 -0.9962
vn 0.4626 -0.8866 0.0033
vn -0.0370 0.0618 0.9974
vn 0.4640 -0.8858 -0.0041
vn 0.9998 0.0183 -0.0000
vn -0.0095 0.0001 1.0000
vn -0.0122 -0.0014 0.9999
vn 0.9998 -0.0105 -0.0140
vn 0.9998 -0.0105 0.0140
vn -0.0122 -0.0014 -0.9999
vn -0.0095 0.0001 -1.0000
vn -0.0000 0.4066 0.9136
vn -0.0098 0.2500 0.9682
vn 0.6967 -0.7173 -0.0086
vn -0.6096 -0.7925 -0.0159
vn -0.0105 0.2372 -0.9714
vn -0.0000 0.5405 -0.8413
vn -0.6093 -0.7927 0.0159
vn 0.6968 -0.7172 0.0088
vn 0.4641 -0.8857 -0.0079
vn 0.4807 -0.8769 0.0077
vn -0.9998 0.0187 0.0060
vn -0.9997 0.0191 0.0118
vn -0.9999 0.0096 0.0129
vn -0.9997 0.0191 -0.0118
vn -0.9998 0.0187 -0.0060
vn -0.9999 0.0096 -0.0129
vn 0.0139 0.0030 -0.9999
vn 0.0211 0.0098 -0.9997
vn -0.9985 -0.0535 0.0128
vn 0.0337 0.0404 -0.9986
vn -0.4595 -0.8882 0.0031
vn -0.9985 -0.0535 -0.0128
vn 0.0139 0.0030 0.9999
vn 0.0212 0.0100 0.9997
vn -0.4598 -0.8880 -0.0033
vn 0.0339 0.0410 0.9986
vn 0.0638 0.1534 -0.9861
vn 0.1150 0.4723 -0.8739
vn 0.1885 0.7132 -0.6752
vn -0.4352 -0.9003 0.0031
vn -0.3195 -0.9476 0.0034
vn -0.2235 -0.9747 0.0039
vn -0.4353 -0.9003 -0.0044
vn -0.3174 -0.9483 -0.0044
vn -0.2233 -0.9747 -0.0044
vn 0.0530 0.1231 0.9910
vn 0.1845 0.7266 0.6619
vn 0.1283 0.5288 0.8390
vn 0.0153 0.0447 0.9989
vn 0.0109 0.0049 0.9999
vn 0.0110 0.0076 0.9999
vn -0.2321 -0.9727 -0.0043
vn -0.9999 -0.0062 -0.0134
vn 0.0148 0.0420 -0.9990
vn 0.0111 0.0075 -0.9999
vn 0.0111 0.0049 -0.9999
vn -0.9999 -0.0062 0.0136
vn -0.2319 -0.9727 0.0040
vn 0.0414 0.0761 -0.9962
vn -0.4626 -0.8866 0.0033
vn 0.0370 0.0618 0.9974
vn -0.4640 -0.8858 -0.0041
vn -0.9998 0.0183 -0.0000
vn 0.0122 -0.0014 0.9999
vn 0.0095 0.0001 1.0000
vn -0.9998 -0.0105 -0.0140
vn -0.9998 -0.0105 0.0140
vn 0.0122 -0.0014 -0.9999
vn 0.0095 0.0001 -1.0000
vn 0.0098 0.2500 0.9682
vn 0.6096 -0.7925 -0.0159
vn -0.6967 -0.7173 -0.0086
vn 0.0105 0.2372 -0.9714
vn -0.6968 -0.7172 0.0088
vn 0.6093 -0.7927 0.0159
vn -0.4641 -0.8857 -0.0079
vn -0.4807 -0.8769 0.0077
vn -0.0000 -1.0000 0.0043
vn -0.0000 -1.0000 -0.0043
vn 0.5562 0.6361 -0.5348
vn 0.3473 0.5960 -0.7239
vn 0.5226 0.6328 -0.5714
vn -0.0002 0.7046 0.7096
vn -0.0013 0.6906 0.7232
vn 0.1578 0.6458 0.7470
vn 0.1573 0.6460 0.7470
vn -0.0000 0.7071 -0.7071
vn -0.0000 0.7071 0.7071
vn 0.1573 0.6460 -0.7470
vn 0.1578 0.6458 -0.7470
vn -0.0013 0.6906 -0.7232
vn -0.0002 0.7046 -0.7096
vn 0.0013 0.6906 0.7232
vn 0.0002 0.7046 0.7096
vn -0.1573 0.6460 0.7470
vn -0.1578 0.6458 0.7470
vn -0.1578 0.6458 -0.7470
vn -0.1573 0.6460 -0.7470
vn 0.0002 0.7046 -0.7096
vn 0.0013 0.6906 -0.7232
vn 0.3473 0.5960 0.7239
vn 0.5226 0.6328 0.5714
vn -0.3473 0.5960 -0.7239
vn -0.5226 0.6328 -0.5714
vn -0.5226 0.6328 0.5714
vn -0.3473 0.5960 0.7239
vn 0.2453 0.9694 0.0108
vn -0.0018 0.9999 0.0121
vn -0.0013 -0.0400 -0.9992
vn -0.0080 -0.0397 -0.9992
vn -0.0140 0.0347 -0.9993
vn 0.6590 0.7521 0.0098
vn 0.2453 0.9694 -0.0108
vn -0.0018 0.9999 -0.0121
vn 0.6590 0.7521 -0.0098
vn -0.0080 -0.0397 0.9992
vn -0.0013 -0.0400 0.9992
vn -0.0140 0.0347 0.9993
vn -0.0000 -0.0400 -0.9992
vn -0.0000 0.9999 0.0124
vn -0.0000 -0.0400 0.9992
vn -0.0000 0.9999 -0.0124
vn 0.0018 0.9999 0.0121
vn -0.2453 0.9694 0.0108
vn 0.0013 -0.0400 -0.9992
vn 0.0140 0.0347 -0.9993
vn 0.0080 -0.0397 -0.9992
vn -0.6590 0.7521 0.0098
vn 0.0080 -0.0397 0.9992
vn 0.0140 0.0347 0.9993
vn 0.0013 -0.0400 0.9992
vn -0.2453 0.9694 -0.0108
vn 0.0018 0.9999 -0.0121
vn -0.6590 0.7521 -0.0098
vn 0.6689 0.0117 -0.7433
vn -0.0148 0.0068 -0.9999
vn 0.8171 0.5764 0.0099
vn 0.6689 0.0117 0.7433
vn -0.5562 0.6361 0.5348
vn -0.0148 0.0068 0.9999
vn -0.6689 0.0117 -0.7433
vn -0.8171 0.5764 0.0099
vn 0.0148 0.0068 -0.9999
vn -0.6689 0.0117 0.7433
vn 0.0148 0.0068 0.9999
vn 0.5562 0.6361 0.5348
vn 0.8171 0.5764 -0.0099
vn -0.8171 0.5764 -0.0099
vn -0.5562 0.6361 -0.5348
vt 0.584766 0.581902
vt 0.500000 0.591153
vt 0.500000 0.733211
vt 0.574297 0.727834
vt 0.563496 0.748264
vt 0.500000 0.752347
vt 0.500000 0.758562
vt 0.559896 0.754897
vt 0.570697 0.734729
vt 0.641488 0.722522
vt 0.634287 0.730292
vt 0.567097 0.741540
vt 0.714322 0.707119
vt 0.701478 0.715791
vt 0.500000 0.739669
vt 0.500000 0.746048
vt 0.759991 0.710606
vt 0.739865 0.719799
vt 0.794490 0.692599
vt 0.777854 0.701524
vt 0.679876 0.733033
vt 0.619886 0.745560
vt 0.229383 0.137340
vt 0.188180 0.159567
vt 0.186557 0.160443
vt 0.648689 0.714674
vt 0.770617 0.137340
vt 0.811820 0.159567
vt 0.813443 0.160443
vt 0.730771 0.698443
vt 0.627965 0.733142
vt 0.691995 0.721580
vt 0.627526 0.733361
vt 0.691556 0.721800
vt 0.706628 0.137340
vt 0.640592 0.137340
vt 0.569853 0.137340
vt 0.500000 0.137340
vt 0.587581 0.164978
vt 0.500000 0.164978
vt 0.500000 0.307036
vt 0.592099 0.303952
vt 0.500000 0.449094
vt 0.592039 0.442927
vt 0.824591 0.424426
vt 0.821849 0.554150
vt 0.824591 0.294702
vt 0.749323 0.430593
vt 0.672108 0.436760
vt 0.667805 0.572652
vt 0.746037 0.563401
vt 0.749328 0.297785
vt 0.672129 0.300869
vt 0.746487 0.164978
vt 0.668902 0.164978
vt 0.500000 0.164977
vt 0.587581 0.164977
vt 0.668902 0.164977
vt 0.746487 0.164977
vt 0.619886 0.858927
vt 0.611450 0.862998
vt 0.559896 0.822029
vt 0.415233 0.581902
vt 0.425702 0.727834
vt 0.436504 0.748264
vt 0.440104 0.754897
vt 0.429303 0.734729
vt 0.432903 0.741540
vt 0.365713 0.730292
vt 0.358512 0.722522
vt 0.285678 0.707119
vt 0.298522 0.715791
vt 0.240009 0.710606
vt 0.260135 0.719799
vt 0.205510 0.692599
vt 0.222146 0.701524
vt 0.320124 0.733033
vt 0.380114 0.745560
vt 0.351311 0.714674
vt 0.269229 0.698443
vt 0.308005 0.721580
vt 0.372035 0.733142
vt 0.372474 0.733361
vt 0.308444 0.721800
vt 0.293372 0.137340
vt 0.359408 0.137340
vt 0.430147 0.137340
vt 0.412419 0.164978
vt 0.407901 0.303952
vt 0.407961 0.442927
vt 0.175409 0.424426
vt 0.178151 0.554150
vt 0.175409 0.294702
vt 0.250677 0.430593
vt 0.253963 0.563401
vt 0.332195 0.572652
vt 0.327892 0.436760
vt 0.250672 0.297785
vt 0.327871 0.300869
vt 0.253513 0.164978
vt 0.331098 0.164978
vt 0.412419 0.164977
vt 0.331098 0.164977
vt 0.253513 0.164977
vt 0.380114 0.858927
vt 0.388550 0.862998
vt 0.440104 0.822029
vt 0.505445 0.877187
vt 0.494555 0.877187
vt 0.811369 0.674359
vt 0.799362 0.685916
vt 0.802148 0.688436
vt 0.188631 0.674359
vt 0.197852 0.688436
vt 0.200638 0.685916
vt 0.811134 0.555458
vt 0.746245 0.714230
vt 0.688553 0.725808
vt 0.755540 0.708674
vt 0.779717 0.695275
vt 0.611872 0.742965
vt 0.689212 0.725369
vt 0.763808 0.704145
vt 0.748949 0.709993
vt 0.760293 0.704805
vt 0.611433 0.742965
vt 0.738116 0.716207
vt 0.822051 0.174527
vt 0.814191 0.425278
vt 0.814430 0.295118
vt 0.614131 0.851033
vt 0.610543 0.852885
vt 0.609972 0.852841
vt 0.613630 0.850954
vt 0.559896 0.808489
vt 0.188866 0.555458
vt 0.311447 0.725808
vt 0.253755 0.714230
vt 0.244460 0.708674
vt 0.220283 0.695275
vt 0.310788 0.725369
vt 0.388128 0.742965
vt 0.236192 0.704145
vt 0.239707 0.704805
vt 0.251051 0.709993
vt 0.388567 0.742965
vt 0.261884 0.716207
vt 0.177949 0.174527
vt 0.185570 0.295118
vt 0.185809 0.425278
vt 0.389457 0.852885
vt 0.385869 0.851033
vt 0.386370 0.850954
vt 0.390028 0.852841
vt 0.440104 0.808489
vt 0.504631 0.872806
vt 0.495369 0.872806
vt 0.495589 0.873026
vt 0.504411 0.873026
vt 0.500000 0.867992
vt 0.500000 0.868309
vt 0.811920 0.167876
vt 0.811764 0.159537
vt 0.796533 0.160802
vt 0.768510 0.145685
vt 0.718663 0.145685
vt 0.500000 0.145685
vt 0.575206 0.145685
vt 0.649140 0.145685
vt 0.281337 0.145685
vt 0.231490 0.145685
vt 0.424794 0.145685
vt 0.350860 0.145685
vt 0.188236 0.159537
vt 0.203467 0.160802
vt 0.188080 0.167876
s 1
usemtl Palanquin.001
f 101/1/1 66/2/1 3/3/1 23/4/1
f 54/5/1 27/6/1 5/7/1 25/8/1
f 51/9/2 29/10/2 12/11/2 30/12/2
f 48/13/1 33/10/1 13/11/1 34/14/1
f 47/9/1 21/15/1 11/16/1 35/12/1
f 46/17/3 36/17/3 9/18/4 18/18/4
f 45/19/5 37/19/5 14/20/6 38/20/6
f 43/21/7 18/18/4 9/18/4 42/21/7
f 41/22/8 43/21/7 42/21/7 15/22/8
f 37/19/5 44/19/5 39/20/6 14/20/6
f 171/23/9 170/23/9 337/24/10 334/25/11
f 38/20/6 14/20/6 36/17/3 46/17/3
f 33/10/1 47/9/1 35/12/1 13/11/1
f 8/26/1 23/4/1 47/9/1 33/10/1
f 23/4/1 3/3/1 21/15/1 47/9/1
f 71/27/12 265/28/13 267/29/14 70/27/12
f 17/30/1 8/26/1 33/10/1 48/13/1
f 34/14/1 13/11/1 32/31/1 49/32/1
f 29/10/2 50/13/2 31/14/2 12/11/2
f 7/26/2 22/30/2 50/13/2 29/10/2
f 26/15/2 51/9/2 30/12/2 10/16/2
f 4/3/2 16/4/2 51/9/2 26/15/2
f 16/4/2 7/26/2 29/10/2 51/9/2
f 20/6/2 52/5/2 19/8/2 6/7/2
f 10/16/2 30/12/2 52/5/2 20/6/2
f 30/12/2 12/11/2 28/33/2 52/5/2
f 12/11/2 31/14/2 53/34/2 28/33/2
f 13/11/1 35/12/1 54/5/1 32/31/1
f 35/12/1 11/16/1 27/6/1 54/5/1
f 36/17/3 55/17/3 24/18/4 9/18/4
f 14/20/6 39/20/6 55/17/3 36/17/3
f 15/22/8 42/21/7 56/21/7 40/22/8
f 42/21/7 9/18/4 24/18/4 56/21/7
f 69/27/12 75/35/15 76/35/15 70/27/12
f 70/27/12 76/35/15 77/35/15 71/27/12
f 75/35/15 78/36/15 79/36/15 76/35/15
f 76/35/15 79/36/15 80/36/15 77/35/15
f 78/36/15 81/37/15 82/37/15 79/36/15
f 79/36/15 82/37/15 83/37/15 80/36/15
f 81/37/15 74/38/15 73/38/15 82/37/15
f 82/37/15 73/38/15 72/38/15 83/37/15
f 60/39/1 1/40/1 68/41/1 99/42/1
f 99/42/1 68/41/1 67/43/1 100/44/1
f 100/44/1 67/43/1 66/2/1 101/1/1
f 85/45/16 88/45/16 89/46/17 86/46/17
f 84/47/18 87/47/18 88/45/16 85/45/16
f 88/45/16 91/45/16 92/46/17 89/46/17
f 87/47/18 90/47/18 91/45/16 88/45/16
f 94/48/1 97/49/1 98/50/1 95/51/1
f 93/52/1 96/53/1 97/49/1 94/48/1
f 62/54/1 61/55/1 96/53/1 93/52/1
f 95/51/1 98/50/1 8/26/1 17/30/1
f 97/49/1 100/44/1 101/1/1 98/50/1
f 96/53/1 99/42/1 100/44/1 97/49/1
f 61/55/1 60/39/1 99/42/1 96/53/1
f 98/50/1 101/1/1 23/4/1 8/26/1
f 64/43/2 103/44/2 104/1/2 63/2/2
f 65/41/2 102/42/2 103/44/2 64/43/2
f 2/56/2 59/57/2 102/42/2 65/41/2
f 63/2/2 104/1/2 16/4/2 4/3/2
f 103/44/2 106/49/2 107/50/2 104/1/2
f 102/42/2 105/53/2 106/49/2 103/44/2
f 59/57/2 58/58/2 105/53/2 102/42/2
f 104/1/2 107/50/2 7/26/2 16/4/2
f 106/49/2 109/48/2 110/51/2 107/50/2
f 105/53/2 108/52/2 109/48/2 106/49/2
f 58/58/2 57/59/2 108/52/2 105/53/2
f 107/50/2 110/51/2 22/30/2 7/26/2
f 119/60/19 114/60/19 115/61/19 118/61/19
f 114/60/19 117/60/19 116/61/19 115/61/19
f 41/22/20 15/22/20 114/60/20 119/60/20
f 111/62/21 115/61/21 116/61/21 113/62/21
f 112/62/21 118/61/21 115/61/21 111/62/21
f 15/22/20 40/22/20 117/60/20 114/60/20
f 199/63/1 132/64/1 3/3/1 66/2/1
f 161/65/1 134/66/1 5/7/1 27/6/1
f 158/67/2 137/68/2 123/69/2 136/70/2
f 155/71/1 141/72/1 124/69/1 140/70/1
f 154/67/1 142/68/1 11/16/1 21/15/1
f 153/73/22 129/74/23 122/74/23 143/73/22
f 152/75/24 145/76/25 125/76/25 144/75/24
f 150/77/26 149/77/26 122/74/23 129/74/23
f 148/78/27 126/78/27 149/77/26 150/77/26
f 144/75/24 125/76/25 146/76/25 151/75/24
f 145/76/25 153/73/22 143/73/22 125/76/25
f 140/70/1 124/69/1 142/68/1 154/67/1
f 121/79/1 140/70/1 154/67/1 132/64/1
f 132/64/1 154/67/1 21/15/1 3/3/1
f 128/80/1 155/71/1 140/70/1 121/79/1
f 141/72/1 156/81/1 139/82/1 124/69/1
f 136/70/2 123/69/2 138/72/2 157/71/2
f 120/79/2 136/70/2 157/71/2 131/80/2
f 26/15/2 10/16/2 137/68/2 158/67/2
f 4/3/2 26/15/2 158/67/2 127/64/2
f 127/64/2 158/67/2 136/70/2 120/79/2
f 20/6/2 6/7/2 130/66/2 159/65/2
f 10/16/2 20/6/2 159/65/2 137/68/2
f 137/68/2 159/65/2 135/83/2 123/69/2
f 123/69/2 135/83/2 160/84/2 138/72/2
f 124/69/1 139/82/1 161/65/1 142/68/1
f 142/68/1 161/65/1 27/6/1 11/16/1
f 143/73/22 122/74/23 133/74/23 162/73/22
f 125/76/25 143/73/22 162/73/22 146/76/25
f 126/78/27 147/78/27 163/77/26 149/77/26
f 149/77/26 163/77/26 133/74/23 122/74/23
f 170/23/9 171/23/9 174/85/15 173/85/15
f 171/23/9 172/23/9 175/85/15 174/85/15
f 173/85/15 174/85/15 177/86/15 176/86/15
f 174/85/15 175/85/15 178/86/15 177/86/15
f 176/86/15 177/86/15 180/87/15 179/87/15
f 177/86/15 178/86/15 181/87/15 180/87/15
f 179/87/15 180/87/15 73/38/15 74/38/15
f 180/87/15 181/87/15 72/38/15 73/38/15
f 167/88/1 197/89/1 68/41/1 1/40/1
f 197/89/1 198/90/1 67/43/1 68/41/1
f 172/23/9 171/23/9 334/25/11 332/24/28
f 198/90/1 199/63/1 66/2/1 67/43/1
f 183/91/29 184/92/30 187/92/30 186/91/29
f 182/93/31 183/91/29 186/91/29 185/93/31
f 186/91/29 187/92/30 190/92/30 189/91/29
f 185/93/31 186/91/29 189/91/29 188/93/31
f 192/94/1 193/95/1 196/96/1 195/97/1
f 191/98/1 192/94/1 195/97/1 194/99/1
f 169/100/1 191/98/1 194/99/1 168/101/1
f 193/95/1 128/80/1 121/79/1 196/96/1
f 195/97/1 196/96/1 199/63/1 198/90/1
f 194/99/1 195/97/1 198/90/1 197/89/1
f 168/101/1 194/99/1 197/89/1 167/88/1
f 196/96/1 121/79/1 132/64/1 199/63/1
f 64/43/2 63/2/2 202/63/2 201/90/2
f 65/41/2 64/43/2 201/90/2 200/89/2
f 2/56/2 65/41/2 200/89/2 166/102/2
f 63/2/2 4/3/2 127/64/2 202/63/2
f 201/90/2 202/63/2 205/96/2 204/97/2
f 200/89/2 201/90/2 204/97/2 203/99/2
f 166/102/2 200/89/2 203/99/2 165/103/2
f 202/63/2 127/64/2 120/79/2 205/96/2
f 204/97/2 205/96/2 208/95/2 207/94/2
f 203/99/2 204/97/2 207/94/2 206/98/2
f 165/103/2 203/99/2 206/98/2 164/104/2
f 205/96/2 120/79/2 131/80/2 208/95/2
f 217/105/32 216/106/32 213/106/32 212/105/32
f 212/105/32 213/106/32 214/106/32 215/105/32
f 70/27/12 267/29/14 268/28/33 69/27/12
f 148/78/34 217/105/34 212/105/34 126/78/34
f 209/107/35 211/107/35 214/106/35 213/106/35
f 210/107/35 209/107/35 213/106/35 216/106/35
f 126/78/34 212/105/34 215/105/34 147/78/34
f 225/108/36 220/108/36 221/109/36 224/109/36
f 220/108/36 223/108/36 222/109/36 221/109/36
f 224/109/37 221/109/37 209/107/37 210/107/37
f 225/108/38 112/62/38 111/62/38 220/108/38
f 220/108/38 111/62/38 113/62/38 223/108/38
f 221/109/37 222/109/37 211/107/37 209/107/37
f 228/110/39 229/111/40 230/112/41
f 231/110/42 232/112/43 233/111/44
f 296/113/45 297/114/46 298/115/47
f 299/113/48 300/115/49 301/114/50
f 275/46/51 231/110/52 233/111/52 274/116/53
f 281/116/54 229/111/55 228/110/55 280/46/56
f 251/21/57 234/18/58 235/117/59 250/118/60
f 253/119/61 235/117/59 234/18/58 252/17/62
f 255/120/63 233/111/44 232/112/43 254/19/64
f 259/21/65 240/22/66 241/121/66 258/122/67
f 261/120/68 244/123/69 245/20/70 260/19/71
f 263/124/72 246/125/73 247/20/74 262/17/75
f 243/22/76 251/21/57 250/118/60 242/126/76
f 244/123/69 253/119/61 252/17/62 245/20/70
f 246/125/73 255/120/63 254/19/64 247/20/74
f 237/18/77 259/21/65 258/122/67 236/127/78
f 229/111/40 261/120/68 260/19/71 230/112/41
f 236/127/78 263/124/72 262/17/75 237/18/77
f 264/128/79 266/128/80 267/29/14 265/28/13
f 266/128/80 269/128/81 268/28/33 267/29/14
f 249/112/82 232/112/82 231/110/83 248/110/83
f 270/47/84 272/45/85 273/129/86 271/130/87
f 272/45/85 275/46/51 274/116/53 273/129/86
f 276/130/88 278/129/89 279/45/90 277/47/91
f 278/129/89 281/116/54 280/46/56 279/45/90
f 257/112/82 238/112/82 239/110/83 256/110/83
f 238/112/82 249/112/82 248/110/83 239/110/83
f 230/112/82 257/112/82 256/110/83 228/110/83
f 292/131/92 290/132/92 291/61/92 293/60/92
f 288/133/93 286/134/93 287/60/93 289/61/93
f 240/22/94 287/60/94 286/134/94 241/121/94
f 289/61/95 282/62/95 283/135/95 288/133/95
f 293/60/96 243/22/96 242/126/96 292/131/96
f 285/62/97 291/61/97 290/132/97 284/135/97
f 343/136/98 300/115/99 299/113/99 342/92/100
f 349/92/101 296/113/102 298/115/102 348/136/103
f 319/137/104 302/138/105 303/74/106 318/77/107
f 321/73/108 303/74/106 302/138/105 320/139/109
f 323/75/110 301/114/50 300/115/49 322/140/111
f 327/141/112 308/142/113 309/78/113 326/77/114
f 329/75/115 312/76/116 313/143/117 328/140/118
f 331/73/119 314/76/120 315/144/121 330/145/122
f 311/146/123 319/137/104 318/77/107 310/78/123
f 312/76/116 321/73/108 320/139/109 313/143/117
f 314/76/120 323/75/110 322/140/111 315/144/121
f 304/147/124 327/141/112 326/77/114 305/74/125
f 297/114/46 329/75/115 328/140/118 298/115/47
f 305/74/125 331/73/119 330/145/122 304/147/124
f 332/24/28 334/25/11 335/148/126 333/148/127
f 334/25/11 337/24/10 336/148/128 335/148/126
f 317/113/129 299/113/129 301/114/130 316/114/130
f 338/149/131 340/150/132 341/91/133 339/93/134
f 340/150/132 343/136/98 342/92/100 341/91/133
f 344/93/135 346/91/136 347/150/137 345/149/138
f 346/91/136 349/92/101 348/136/103 347/150/137
f 325/113/129 306/113/129 307/114/130 324/114/130
f 306/113/129 317/113/129 316/114/130 307/114/130
f 296/113/129 325/113/129 324/114/130 297/114/130
f 361/105/139 359/106/139 358/151/139 360/152/139
f 357/106/140 355/105/140 354/153/140 356/154/140
f 308/142/141 354/153/141 355/105/141 309/78/141
f 356/154/142 350/155/142 351/107/142 357/106/142
f 360/152/143 311/146/143 310/78/143 361/105/143
f 353/155/144 358/151/144 359/106/144 352/107/144
f 363/109/145 364/108/145 365/156/145 362/157/145
f 367/108/146 368/109/146 369/158/146 366/159/146
f 352/107/147 363/109/147 362/157/147 353/155/147
f 284/135/148 365/156/148 364/108/148 285/62/148
f 368/109/149 351/107/149 350/155/149 369/158/149
f 282/62/150 367/108/150 366/159/150 283/135/150
f 264/128/151 226/128/151 277/47/18 90/47/18
f 227/128/151 269/128/151 84/47/18 270/47/18
f 281/116/1 95/51/1 17/30/1 229/111/1
f 257/112/82 230/112/82 260/19/5 44/19/5
f 92/46/17 280/46/17 228/110/83 256/110/83
f 229/111/1 17/30/1 48/13/1 261/120/1
f 275/46/17 86/46/17 248/110/83 231/110/83
f 22/30/2 233/111/2 255/120/2 50/13/2
f 110/51/2 274/116/2 233/111/2 22/30/2
f 232/112/82 249/112/82 45/19/5 254/19/5
f 253/119/1 49/32/1 250/118/1 235/117/1
f 55/17/3 252/17/3 234/18/4 24/18/4
f 56/21/7 24/18/4 234/18/4 251/21/7
f 262/17/3 46/17/3 18/18/4 237/18/4
f 259/21/7 237/18/4 18/18/4 43/21/7
f 53/34/2 263/124/2 236/127/2 258/122/2
f 249/112/82 238/112/82 37/19/5 45/19/5
f 238/112/82 257/112/82 44/19/5 37/19/5
f 86/46/17 89/46/17 239/110/83 248/110/83
f 89/46/17 92/46/17 256/110/83 239/110/83
f 28/33/2 53/34/2 258/122/2 241/121/2
f 52/5/2 28/33/2 241/121/2 19/8/2
f 240/22/20 41/22/20 119/60/20 287/60/20
f 19/8/2 241/121/2 286/134/2 288/133/2 283/135/2
f 240/22/8 259/21/7 43/21/7 41/22/8
f 242/126/1 25/8/1 284/135/1 290/132/1 292/131/1
f 32/31/1 54/5/1 25/8/1 242/126/1
f 40/22/8 56/21/7 251/21/7 243/22/8
f 49/32/1 32/31/1 242/126/1 250/118/1
f 40/22/20 243/22/20 293/60/20 117/60/20
f 261/120/1 48/13/1 34/14/1 244/123/1
f 244/123/1 34/14/1 49/32/1 253/119/1
f 39/20/6 245/20/6 252/17/3 55/17/3
f 44/19/5 260/19/5 245/20/6 39/20/6
f 31/14/2 246/125/2 263/124/2 53/34/2
f 247/20/6 38/20/6 46/17/3 262/17/3
f 254/19/5 45/19/5 38/20/6 247/20/6
f 50/13/2 255/120/2 246/125/2 31/14/2
f 266/128/151 264/128/151 90/47/18 87/47/18
f 269/128/151 266/128/151 87/47/18 84/47/18
f 108/52/2 271/130/2 273/129/2 109/48/2
f 270/47/18 84/47/18 85/45/16 272/45/16
f 109/48/2 273/129/2 274/116/2 110/51/2
f 272/45/16 85/45/16 86/46/17 275/46/17
f 90/47/18 277/47/18 279/45/16 91/45/16
f 276/130/1 93/52/1 94/48/1 278/129/1
f 91/45/16 279/45/16 280/46/17 92/46/17
f 278/129/1 94/48/1 95/51/1 281/116/1
f 6/7/2 19/8/2 283/135/2 366/159/2 219/160/2
f 367/108/38 282/62/38 112/62/38 225/108/38
f 282/62/21 289/61/21 118/61/21 112/62/21
f 25/8/1 5/7/1 218/161/1 365/156/1 284/135/1
f 113/62/21 116/61/21 291/61/21 285/62/21
f 223/108/38 113/62/38 285/62/38 364/108/38
f 287/60/19 119/60/19 118/61/19 289/61/19
f 117/60/19 293/60/19 291/61/19 116/61/19
f 333/148/152 188/93/31 344/93/31 294/148/152
f 295/148/152 339/93/31 182/93/31 336/148/152
f 348/136/1 298/115/1 128/80/1 193/95/1
f 190/92/30 325/113/129 296/113/129 349/92/30
f 298/115/1 328/140/1 155/71/1 128/80/1
f 324/114/130 151/75/24 329/75/24 297/114/130
f 342/92/30 299/113/129 317/113/129 184/92/30
f 208/95/2 131/80/2 300/115/2 343/136/2
f 301/114/130 323/75/24 152/75/24 316/114/130
f 131/80/2 157/71/2 322/140/2 300/115/2
f 320/139/1 302/138/1 319/137/1 156/81/1
f 162/73/22 133/74/23 303/74/23 321/73/22
f 163/77/26 318/77/26 303/74/23 133/74/23
f 331/73/22 305/74/23 129/74/23 153/73/22
f 326/77/26 150/77/26 129/74/23 305/74/23
f 160/84/2 327/141/2 304/147/2 330/145/2
f 316/114/130 152/75/24 144/75/24 307/114/130
f 184/92/30 317/113/129 306/113/129 187/92/30
f 307/114/130 144/75/24 151/75/24 324/114/130
f 187/92/30 306/113/129 325/113/129 190/92/30
f 135/83/2 308/142/2 327/141/2 160/84/2
f 159/65/2 130/66/2 308/142/2 135/83/2
f 130/66/2 350/155/2 356/154/2 354/153/2 308/142/2
f 309/78/27 148/78/27 150/77/26 326/77/26
f 309/78/34 355/105/34 217/105/34 148/78/34
f 311/146/1 360/152/1 358/151/1 353/155/1 134/66/1
f 139/82/1 311/146/1 134/66/1 161/65/1
f 156/81/1 319/137/1 311/146/1 139/82/1
f 147/78/34 215/105/34 361/105/34 310/78/34
f 147/78/27 310/78/27 318/77/26 163/77/26
f 328/140/1 313/143/1 141/72/1 155/71/1
f 313/143/1 320/139/1 156/81/1 141/72/1
f 146/76/25 162/73/22 321/73/22 312/76/25
f 151/75/24 146/76/25 312/76/25 329/75/24
f 138/72/2 160/84/2 330/145/2 315/144/2
f 314/76/25 331/73/22 153/73/22 145/76/25
f 323/75/24 314/76/25 145/76/25 152/75/24
f 157/71/2 138/72/2 315/144/2 322/140/2
f 335/148/152 185/93/31 188/93/31 333/148/152
f 336/148/152 182/93/31 185/93/31 335/148/152
f 206/98/2 207/94/2 340/150/2 338/149/2
f 339/93/31 341/91/29 183/91/29 182/93/31
f 207/94/2 208/95/2 343/136/2 340/150/2
f 341/91/29 342/92/30 184/92/30 183/91/29
f 188/93/31 189/91/29 346/91/29 344/93/31
f 345/149/1 347/150/1 192/94/1 191/98/1
f 189/91/29 190/92/30 349/92/30 346/91/29
f 347/150/1 348/136/1 193/95/1 192/94/1
f 6/7/2 219/160/2 369/158/2 350/155/2 130/66/2
f 351/107/35 210/107/35 216/106/35 357/106/35
f 368/109/37 224/109/37 210/107/37 351/107/37
f 134/66/1 353/155/1 362/157/1 218/161/1 5/7/1
f 222/109/37 363/109/37 352/107/37 211/107/37
f 211/107/35 352/107/35 359/106/35 214/106/35
f 355/105/32 357/106/32 216/106/32 217/105/32
f 215/105/32 214/106/32 359/106/32 361/105/32
f 362/157/1 365/156/1 218/161/1
f 223/108/36 364/108/36 363/109/36 222/109/36
f 366/159/2 369/158/2 219/160/2
f 367/108/36 225/108/36 224/109/36 368/109/36
f 408/162/153 226/128/153 406/163/154 407/164/155
f 383/35/156 373/27/157 372/165/157 382/166/156
f 389/37/158 374/38/158 375/167/158 388/168/158
f 377/38/156 378/37/156 379/168/156 376/167/156
f 378/37/156 380/36/156 381/169/156 379/168/156
f 380/36/156 383/35/156 382/166/156 381/169/156
f 371/27/159 384/35/158 385/166/158 370/165/159
f 384/35/158 386/36/158 387/169/158 385/166/158
f 386/36/158 389/37/158 388/168/158 387/169/158
f 399/170/156 392/171/160 393/23/160 398/85/156
f 405/172/158 375/167/158 374/38/158 404/87/158
f 376/167/156 394/172/156 395/87/156 377/38/156
f 394/172/156 396/173/156 397/86/156 395/87/156
f 396/173/156 399/170/156 398/85/156 397/86/156
f 390/171/161 400/170/158 401/85/158 391/23/161
f 400/170/158 402/173/158 403/86/158 401/85/158
f 402/173/158 405/172/158 404/87/158 403/86/158
f 406/163/154 371/27/159 370/165/159 407/164/155
f 409/164/162 372/165/157 373/27/157 410/163/163
f 391/23/161 413/174/164 412/175/165 390/171/161
f 392/171/160 416/175/166 415/174/167 393/23/160
f 71/27/12 77/35/15 384/35/15 371/27/12
f 385/166/1 62/54/1 407/164/1 370/165/1
f 371/27/12 406/163/168 265/28/13 71/27/12
f 373/27/12 383/35/15 75/35/15 69/27/12
f 69/27/12 268/28/33 410/163/169 373/27/12
f 372/165/2 409/164/2 57/59/2 382/166/2
f 375/167/1 1/40/1 60/39/1 388/168/1
f 83/37/15 72/38/15 374/38/15 389/37/15
f 181/87/15 404/87/15 374/38/15 72/38/15
f 375/167/1 405/172/1 167/88/1 1/40/1
f 166/102/2 394/172/2 376/167/2 2/56/2
f 378/37/15 377/38/15 74/38/15 81/37/15
f 379/168/2 59/57/2 2/56/2 376/167/2
f 395/87/15 179/87/15 74/38/15 377/38/15
f 381/169/2 58/58/2 59/57/2 379/168/2
f 380/36/15 378/37/15 81/37/15 78/36/15
f 382/166/2 57/59/2 58/58/2 381/169/2
f 383/35/15 380/36/15 78/36/15 75/35/15
f 387/169/1 61/55/1 62/54/1 385/166/1
f 77/35/15 80/36/15 386/36/15 384/35/15
f 388/168/1 60/39/1 61/55/1 387/169/1
f 80/36/15 83/37/15 389/37/15 386/36/15
f 172/23/9 391/23/9 401/85/15 175/85/15
f 400/170/1 390/171/1 412/175/1 169/100/1
f 391/23/9 172/23/9 332/24/28 413/174/170
f 392/171/2 399/170/2 164/104/2 416/175/2
f 393/23/9 170/23/9 173/85/15 398/85/15
f 170/23/9 393/23/9 415/174/171 337/24/10
f 397/86/15 176/86/15 179/87/15 395/87/15
f 165/103/2 396/173/2 394/172/2 166/102/2
f 399/170/2 396/173/2 165/103/2 164/104/2
f 398/85/15 173/85/15 176/86/15 397/86/15
f 175/85/15 401/85/15 403/86/15 178/86/15
f 402/173/1 400/170/1 169/100/1 168/101/1
f 405/172/1 402/173/1 168/101/1 167/88/1
f 178/86/15 403/86/15 404/87/15 181/87/15
f 408/162/172 276/130/88 277/47/91 226/128/172
f 408/162/1 407/164/1 62/54/1
f 226/128/173 264/128/79 265/28/13 406/163/168
f 227/128/174 270/47/84 271/130/87 411/162/174
f 417/176/175 295/148/175 415/174/167 416/175/166
f 57/59/2 409/164/2 411/162/2
f 294/148/176 344/93/135 345/149/138 414/176/176
f 413/174/170 332/24/28 333/148/127 294/148/177
f 414/176/1 345/149/1 191/98/1 169/100/1
f 417/176/178 338/149/131 339/93/134 295/148/178
f 164/104/2 206/98/2 338/149/2 417/176/2
f 276/130/1 408/162/1 62/54/1 93/52/1
f 410/163/163 227/128/179 411/162/179 409/164/162
f 269/128/81 227/128/180 410/163/169 268/28/33
f 108/52/2 57/59/2 411/162/2 271/130/2
f 416/175/2 164/104/2 417/176/2
f 337/24/10 415/174/171 295/148/181 336/148/128
f 412/175/1 414/176/1 169/100/1
f 413/174/164 294/148/182 414/176/182 412/175/165
f 518/1/2 440/4/2 420/3/2 483/2/2
f 471/5/183 442/8/184 422/7/185 444/6/2
f 468/9/1 447/12/1 429/11/1 446/10/1
f 465/13/186 451/14/187 430/11/2 450/10/2
f 464/9/2 452/12/2 428/16/2 438/15/2
f 463/17/188 435/18/189 426/18/190 453/17/191
f 462/19/192 455/20/193 431/20/194 454/19/195
f 460/21/196 459/21/197 426/18/190 435/18/189
f 458/22/198 432/22/199 459/21/197 460/21/196
f 454/19/195 431/20/194 456/20/200 461/19/201
f 588/23/202 751/25/203 754/24/204 587/23/205
f 455/20/193 463/17/188 453/17/191 431/20/194
f 450/10/2 430/11/2 452/12/2 464/9/2
f 425/26/2 450/10/2 464/9/2 440/4/2
f 440/4/2 464/9/2 438/15/2 420/3/2
f 488/27/206 487/27/207 684/29/208 682/28/209
f 434/30/210 465/13/186 450/10/2 425/26/2
f 451/14/187 466/32/211 449/31/212 430/11/2
f 446/10/1 429/11/1 448/14/213 467/13/214
f 424/26/1 446/10/1 467/13/214 439/30/215
f 443/15/1 427/16/1 447/12/1 468/9/1
f 421/3/1 443/15/1 468/9/1 433/4/1
f 433/4/1 468/9/1 446/10/1 424/26/1
f 437/6/1 423/7/216 436/8/217 469/5/218
f 427/16/1 437/6/1 469/5/218 447/12/1
f 447/12/1 469/5/218 445/33/219 429/11/1
f 429/11/1 445/33/219 470/34/220 448/14/213
f 430/11/2 449/31/212 471/5/183 452/12/2
f 452/12/2 471/5/183 444/6/2 428/16/2
f 453/17/191 426/18/190 441/18/221 472/17/222
f 431/20/194 453/17/191 472/17/222 456/20/200
f 432/22/199 457/22/223 473/21/224 459/21/197
f 459/21/197 473/21/224 441/18/221 426/18/190
f 486/27/225 487/27/207 493/35/226 492/35/227
f 487/27/207 488/27/206 494/35/228 493/35/226
f 492/35/227 493/35/226 496/36/36 495/36/229
f 493/35/226 494/35/228 497/36/230 496/36/36
f 495/36/229 496/36/36 499/37/36 498/37/229
f 496/36/36 497/36/230 500/37/230 499/37/36
f 498/37/229 499/37/36 490/38/36 491/38/229
f 499/37/36 500/37/230 489/38/230 490/38/36
f 477/39/231 516/42/2 485/41/2 418/40/231
f 516/42/2 517/44/2 484/43/2 485/41/2
f 517/44/2 518/1/2 483/2/2 484/43/2
f 502/45/232 503/46/233 506/46/234 505/45/235
f 501/47/236 502/45/232 505/45/235 504/47/237
f 505/45/235 506/46/234 509/46/238 508/45/239
f 504/47/237 505/45/235 508/45/239 507/47/240
f 511/48/241 512/51/242 515/50/2 514/49/2
f 510/52/243 511/48/241 514/49/2 513/53/2
f 479/54/244 510/52/243 513/53/2 478/55/231
f 512/51/242 434/30/210 425/26/2 515/50/2
f 514/49/2 515/50/2 518/1/2 517/44/2
f 513/53/2 514/49/2 517/44/2 516/42/2
f 478/55/231 513/53/2 516/42/2 477/39/231
f 515/50/2 425/26/2 440/4/2 518/1/2
f 481/43/1 480/2/1 521/1/1 520/44/1
f 482/41/1 481/43/1 520/44/1 519/42/1
f 419/56/245 482/41/1 519/42/1 476/57/245
f 480/2/1 421/3/1 433/4/1 521/1/1
f 520/44/1 521/1/1 524/50/1 523/49/1
f 519/42/1 520/44/1 523/49/1 522/53/1
f 476/57/245 519/42/1 522/53/1 475/58/245
f 521/1/1 433/4/1 424/26/1 524/50/1
f 523/49/1 524/50/1 527/51/246 526/48/247
f 522/53/1 523/49/1 526/48/247 525/52/248
f 475/58/245 522/53/1 525/52/248 474/59/249
f 524/50/1 424/26/1 439/30/215 527/51/246
f 536/60/250 535/61/250 532/61/251 531/60/251
f 531/60/251 532/61/251 533/61/252 534/60/252
f 458/22/253 536/60/253 531/60/254 432/22/254
f 528/62/255 530/62/256 533/61/257 532/61/255
f 529/62/258 528/62/255 532/61/255 535/61/258
f 432/22/254 531/60/254 534/60/259 457/22/259
f 616/63/2 483/2/2 420/3/2 549/64/2
f 578/65/260 444/6/2 422/7/185 551/66/261
f 575/67/1 553/70/1 540/69/1 554/68/1
f 572/71/262 557/70/2 541/69/2 558/72/263
f 571/67/2 438/15/2 428/16/2 559/68/2
f 570/73/264 560/73/265 539/74/266 546/74/267
f 569/75/268 561/75/269 542/76/270 562/76/271
f 567/77/272 546/74/267 539/74/266 566/77/273
f 565/78/274 567/77/272 566/77/273 543/78/275
f 561/75/269 568/75/276 563/76/277 542/76/270
f 562/76/271 542/76/270 560/73/265 570/73/264
f 557/70/2 571/67/2 559/68/2 541/69/2
f 538/79/2 549/64/2 571/67/2 557/70/2
f 549/64/2 420/3/2 438/15/2 571/67/2
f 545/80/278 538/79/2 557/70/2 572/71/262
f 558/72/263 541/69/2 556/82/279 573/81/280
f 553/70/1 574/71/281 555/72/282 540/69/1
f 537/79/1 548/80/283 574/71/281 553/70/1
f 443/15/1 575/67/1 554/68/1 427/16/1
f 421/3/1 544/64/1 575/67/1 443/15/1
f 544/64/1 537/79/1 553/70/1 575/67/1
f 437/6/1 576/65/284 547/66/285 423/7/216
f 427/16/1 554/68/1 576/65/284 437/6/1
f 554/68/1 540/69/1 552/83/286 576/65/284
f 540/69/1 555/72/282 577/84/287 552/83/286
f 541/69/2 559/68/2 578/65/260 556/82/279
f 559/68/2 428/16/2 444/6/2 578/65/260
f 560/73/265 579/73/288 550/74/289 539/74/266
f 542/76/270 563/76/277 579/73/288 560/73/265
f 543/78/275 566/77/273 580/77/290 564/78/291
f 566/77/273 539/74/266 550/74/289 580/77/290
f 587/23/205 590/85/292 591/85/293 588/23/202
f 588/23/202 591/85/293 592/85/294 589/23/295
f 590/85/292 593/86/229 594/86/36 591/85/293
f 591/85/293 594/86/36 595/86/230 592/85/294
f 593/86/229 596/87/229 597/87/36 594/86/36
f 594/86/36 597/87/36 598/87/230 595/86/230
f 596/87/229 491/38/229 490/38/36 597/87/36
f 597/87/36 490/38/36 489/38/230 598/87/230
f 584/88/231 418/40/231 485/41/2 614/89/2
f 614/89/2 485/41/2 484/43/2 615/90/2
f 589/23/295 749/24/296 751/25/203 588/23/202
f 615/90/2 484/43/2 483/2/2 616/63/2
f 600/91/297 603/91/298 604/92/299 601/92/300
f 599/93/301 602/93/302 603/91/298 600/91/297
f 603/91/298 606/91/303 607/92/304 604/92/299
f 602/93/302 605/93/305 606/91/303 603/91/298
f 609/94/306 612/97/2 613/96/2 610/95/307
f 608/98/308 611/99/2 612/97/2 609/94/306
f 586/100/309 585/101/231 611/99/2 608/98/308
f 610/95/307 613/96/2 538/79/2 545/80/278
f 612/97/2 615/90/2 616/63/2 613/96/2
f 611/99/2 614/89/2 615/90/2 612/97/2
f 585/101/231 584/88/231 614/89/2 611/99/2
f 613/96/2 616/63/2 549/64/2 538/79/2
f 481/43/1 618/90/1 619/63/1 480/2/1
f 482/41/1 617/89/1 618/90/1 481/43/1
f 419/56/245 583/102/245 617/89/1 482/41/1
f 480/2/1 619/63/1 544/64/1 421/3/1
f 618/90/1 621/97/1 622/96/1 619/63/1
f 617/89/1 620/99/1 621/97/1 618/90/1
f 583/102/245 582/103/245 620/99/1 617/89/1
f 619/63/1 622/96/1 537/79/1 544/64/1
f 621/97/1 624/94/310 625/95/311 622/96/1
f 620/99/1 623/98/312 624/94/310 621/97/1
f 582/103/245 581/104/313 623/98/312 620/99/1
f 622/96/1 625/95/311 548/80/283 537/79/1
f 634/105/314 629/105/315 630/106/315 633/106/314
f 629/105/315 632/105/316 631/106/316 630/106/315
f 487/27/207 486/27/225 685/28/317 684/29/208
f 565/78/318 543/78/319 629/105/319 634/105/318
f 626/107/320 630/106/320 631/106/321 628/107/322
f 627/107/323 633/106/323 630/106/320 626/107/320
f 543/78/319 564/78/324 632/105/324 629/105/319
f 642/108/325 641/109/325 638/109/15 637/108/15
f 637/108/15 638/109/15 639/109/326 640/108/326
f 641/109/327 627/107/327 626/107/328 638/109/328
f 642/108/329 637/108/330 528/62/330 529/62/329
f 637/108/330 640/108/331 530/62/331 528/62/330
f 638/109/328 626/107/328 628/107/332 639/109/332
f 645/110/333 647/112/334 646/111/335
f 648/110/336 650/111/337 649/112/338
f 713/113/339 715/115/340 714/114/341
f 716/113/342 718/114/343 717/115/344
f 692/46/345 691/116/346 650/111/347 648/110/347
f 698/116/348 697/46/349 645/110/350 646/111/350
f 668/21/351 667/118/352 652/117/353 651/18/354
f 670/119/355 669/17/356 651/18/354 652/117/353
f 672/120/357 671/19/358 649/112/338 650/111/337
f 676/21/359 675/122/360 658/121/361 657/22/361
f 678/120/362 677/19/363 662/20/364 661/123/365
f 680/124/366 679/17/367 664/20/368 663/125/369
f 660/22/370 659/126/370 667/118/352 668/21/351
f 661/123/365 662/20/364 669/17/356 670/119/355
f 663/125/369 664/20/368 671/19/358 672/120/357
f 654/18/371 653/127/372 675/122/360 676/21/359
f 646/111/335 647/112/334 677/19/363 678/120/362
f 653/127/372 654/18/371 679/17/367 680/124/366
f 681/128/373 682/28/209 684/29/208 683/128/374
f 683/128/374 684/29/208 685/28/317 686/128/375
f 666/112/376 665/110/377 648/110/378 649/112/379
f 687/47/380 688/130/381 690/129/382 689/45/383
f 689/45/383 690/129/382 691/116/346 692/46/345
f 693/130/384 694/47/385 696/45/386 695/129/387
f 695/129/387 696/45/386 697/46/349 698/116/348
f 674/112/388 673/110/389 656/110/390 655/112/391
f 655/112/391 656/110/390 665/110/377 666/112/376
f 647/112/392 645/110/393 673/110/389 674/112/388
f 709/131/394 710/60/394 708/61/394 707/132/394
f 705/133/395 706/61/395 704/60/395 703/134/395
f 657/22/396 658/121/396 703/134/396 704/60/396
f 706/61/397 705/133/397 700/135/397 699/62/397
f 710/60/398 709/131/398 659/126/398 660/22/398
f 702/62/399 701/135/399 707/132/399 708/61/399
f 760/136/400 759/92/401 716/113/402 717/115/402
f 766/92/403 765/136/404 715/115/405 713/113/405
f 736/137/406 735/77/407 720/74/408 719/138/409
f 738/73/410 737/139/411 719/138/409 720/74/408
f 740/75/412 739/140/413 717/115/344 718/114/343
f 744/141/414 743/77/415 726/78/416 725/142/416
f 746/75/417 745/140/418 730/143/419 729/76/420
f 748/73/421 747/145/422 732/144/423 731/76/424
f 728/146/425 727/78/425 735/77/407 736/137/406
f 729/76/420 730/143/419 737/139/411 738/73/410
f 731/76/424 732/144/423 739/140/413 740/75/412
f 721/147/426 722/74/427 743/77/415 744/141/414
f 714/114/341 715/115/340 745/140/418 746/75/417
f 722/74/427 721/147/426 747/145/422 748/73/421
f 749/24/296 750/148/428 752/148/429 751/25/203
f 751/25/203 752/148/429 753/148/430 754/24/204
f 734/113/431 733/114/432 718/114/433 716/113/434
f 755/149/435 756/93/436 758/91/437 757/150/438
f 757/150/438 758/91/437 759/92/401 760/136/400
f 761/93/439 762/149/440 764/150/441 763/91/442
f 763/91/442 764/150/441 765/136/404 766/92/403
f 742/113/443 741/114/444 724/114/445 723/113/446
f 723/113/446 724/114/445 733/114/432 734/113/431
f 713/113/447 714/114/448 741/114/444 742/113/443
f 778/105/449 777/152/449 775/151/449 776/106/449
f 774/106/450 773/154/450 771/153/450 772/105/450
f 725/142/451 726/78/451 772/105/451 771/153/451
f 773/154/452 774/106/452 768/107/452 767/155/452
f 777/152/453 778/105/453 727/78/453 728/146/453
f 770/155/454 769/107/454 776/106/454 775/151/454
f 780/109/455 779/157/455 782/156/455 781/108/455
f 784/108/456 783/159/456 786/158/456 785/109/456
f 769/107/457 770/155/457 779/157/457 780/109/457
f 701/135/458 702/62/458 781/108/458 782/156/458
f 785/109/459 786/158/459 767/155/459 768/107/459
f 699/62/460 700/135/460 783/159/460 784/108/460
f 681/128/461 507/47/240 694/47/462 643/128/463
f 644/128/464 687/47/465 501/47/236 686/128/466
f 698/116/467 646/111/468 434/30/210 512/51/242
f 674/112/388 461/19/201 677/19/469 647/112/392
f 509/46/238 673/110/389 645/110/393 697/46/470
f 646/111/468 678/120/471 465/13/186 434/30/210
f 692/46/472 648/110/378 665/110/377 503/46/233
f 439/30/215 467/13/214 672/120/473 650/111/474
f 527/51/246 439/30/215 650/111/474 691/116/475
f 649/112/379 671/19/476 462/19/192 666/112/376
f 670/119/477 652/117/478 667/118/479 466/32/211
f 472/17/222 441/18/221 651/18/480 669/17/481
f 473/21/224 668/21/482 651/18/480 441/18/221
f 679/17/483 654/18/484 435/18/189 463/17/188
f 676/21/485 460/21/196 435/18/189 654/18/484
f 470/34/220 675/122/486 653/127/487 680/124/488
f 666/112/376 462/19/192 454/19/195 655/112/391
f 655/112/391 454/19/195 461/19/201 674/112/388
f 503/46/233 665/110/377 656/110/390 506/46/234
f 506/46/234 656/110/390 673/110/389 509/46/238
f 445/33/219 658/121/489 675/122/486 470/34/220
f 469/5/218 436/8/217 658/121/489 445/33/219
f 657/22/490 704/60/490 536/60/253 458/22/253
f 436/8/217 700/135/491 705/133/492 703/134/492 658/121/489
f 657/22/493 458/22/198 460/21/196 676/21/485
f 659/126/494 709/131/495 707/132/495 701/135/496 442/8/184
f 449/31/212 659/126/494 442/8/184 471/5/183
f 457/22/223 660/22/497 668/21/482 473/21/224
f 466/32/211 667/118/479 659/126/494 449/31/212
f 457/22/259 534/60/259 710/60/498 660/22/498
f 678/120/471 661/123/499 451/14/187 465/13/186
f 661/123/499 670/119/477 466/32/211 451/14/187
f 456/20/200 472/17/222 669/17/481 662/20/500
f 461/19/201 456/20/200 662/20/500 677/19/469
f 448/14/213 470/34/220 680/124/488 663/125/501
f 664/20/502 679/17/483 463/17/188 455/20/193
f 671/19/476 664/20/502 455/20/193 462/19/192
f 467/13/214 448/14/213 663/125/501 672/120/473
f 683/128/503 504/47/237 507/47/240 681/128/461
f 686/128/466 501/47/236 504/47/237 683/128/503
f 525/52/248 526/48/247 690/129/504 688/130/505
f 687/47/465 689/45/506 502/45/232 501/47/236
f 526/48/247 527/51/246 691/116/475 690/129/504
f 689/45/506 692/46/472 503/46/233 502/45/232
f 507/47/240 508/45/239 696/45/507 694/47/462
f 693/130/508 695/129/509 511/48/241 510/52/243
f 508/45/239 509/46/238 697/46/470 696/45/507
f 695/129/509 698/116/467 512/51/242 511/48/241
f 423/7/216 636/160/510 783/159/511 700/135/491 436/8/217
f 784/108/512 642/108/329 529/62/329 699/62/512
f 699/62/513 529/62/258 535/61/258 706/61/513
f 442/8/184 701/135/496 782/156/514 635/161/515 422/7/185
f 530/62/256 702/62/516 708/61/516 533/61/257
f 640/108/331 781/108/517 702/62/517 530/62/331
f 704/60/518 706/61/518 535/61/250 536/60/250
f 534/60/252 533/61/252 708/61/519 710/60/519
f 750/148/520 711/148/521 761/93/522 605/93/305
f 712/148/523 753/148/524 599/93/301 756/93/525
f 765/136/526 610/95/307 545/80/278 715/115/527
f 607/92/304 766/92/528 713/113/447 742/113/443
f 715/115/527 545/80/278 572/71/262 745/140/529
f 741/114/444 714/114/448 746/75/530 568/75/276
f 759/92/531 601/92/300 734/113/431 716/113/434
f 625/95/311 760/136/532 717/115/533 548/80/283
f 718/114/433 733/114/432 569/75/268 740/75/534
f 548/80/283 717/115/533 739/140/535 574/71/281
f 737/139/536 573/81/280 736/137/537 719/138/538
f 579/73/288 738/73/539 720/74/540 550/74/289
f 580/77/290 550/74/289 720/74/540 735/77/541
f 748/73/542 570/73/264 546/74/267 722/74/543
f 743/77/544 722/74/543 546/74/267 567/77/272
f 577/84/287 747/145/545 721/147/546 744/141/547
f 733/114/432 724/114/445 561/75/269 569/75/268
f 601/92/300 604/92/299 723/113/446 734/113/431
f 724/114/445 741/114/444 568/75/276 561/75/269
f 604/92/299 607/92/304 742/113/443 723/113/446
f 552/83/286 577/84/287 744/141/547 725/142/548
f 576/65/284 552/83/286 725/142/548 547/66/285
f 547/66/285 725/142/548 771/153/549 773/154/549 767/155/550
f 726/78/551 743/77/544 567/77/272 565/78/274
f 726/78/552 565/78/318 634/105/318 772/105/552
f 728/146/553 551/66/261 770/155/554 775/151/555 777/152/555
f 556/82/279 578/65/260 551/66/261 728/146/553
f 573/81/280 556/82/279 728/146/553 736/137/537
f 564/78/324 727/78/556 778/105/556 632/105/324
f 564/78/291 580/77/290 735/77/541 727/78/557
f 745/140/529 572/71/262 558/72/263 730/143/558
f 730/143/558 558/72/263 573/81/280 737/139/536
f 563/76/277 729/76/559 738/73/539 579/73/288
f 568/75/276 746/75/530 729/76/559 563/76/277
f 555/72/282 732/144/560 747/145/545 577/84/287
f 731/76/561 562/76/271 570/73/264 748/73/542
f 740/75/534 569/75/268 562/76/271 731/76/561
f 574/71/281 739/140/535 732/144/560 555/72/282
f 752/148/562 750/148/520 605/93/305 602/93/302
f 753/148/524 752/148/562 602/93/302 599/93/301
f 623/98/312 755/149/563 757/150/564 624/94/310
f 756/93/525 599/93/301 600/91/297 758/91/565
f 624/94/310 757/150/564 760/136/532 625/95/311
f 758/91/565 600/91/297 601/92/300 759/92/531
f 605/93/305 761/93/522 763/91/566 606/91/303
f 762/149/567 608/98/308 609/94/306 764/150/568
f 606/91/303 763/91/566 766/92/528 607/92/304
f 764/150/568 609/94/306 610/95/307 765/136/526
f 423/7/216 547/66/285 767/155/550 786/158/569 636/160/510
f 768/107/570 774/106/570 633/106/323 627/107/323
f 785/109/571 768/107/571 627/107/327 641/109/327
f 551/66/261 422/7/185 635/161/515 779/157/572 770/155/554
f 639/109/332 628/107/332 769/107/573 780/109/573
f 628/107/322 631/106/321 776/106/574 769/107/574
f 772/105/575 634/105/314 633/106/314 774/106/575
f 632/105/316 778/105/576 776/106/576 631/106/316
f 779/157/572 635/161/515 782/156/514
f 640/108/326 639/109/326 780/109/577 781/108/577
f 783/159/511 636/160/510 786/158/569
f 784/108/578 785/109/578 641/109/325 642/108/325
f 825/162/579 824/164/580 823/163/581 643/128/579
f 800/35/582 799/166/583 789/165/584 790/27/585
f 806/37/586 805/168/586 792/167/586 791/38/586
f 794/38/587 793/167/587 796/168/587 795/37/587
f 795/37/587 796/168/587 798/169/587 797/36/587
f 797/36/587 798/169/587 799/166/583 800/35/582
f 788/27/588 787/165/589 802/166/590 801/35/591
f 801/35/591 802/166/590 804/169/586 803/36/586
f 803/36/586 804/169/586 805/168/586 806/37/586
f 816/170/592 815/85/593 810/23/594 809/171/595
f 822/172/586 821/87/586 791/38/586 792/167/586
f 793/167/587 794/38/587 812/87/587 811/172/587
f 811/172/587 812/87/587 814/86/587 813/173/587
f 813/173/587 814/86/587 815/85/593 816/170/592
f 807/171/596 808/23/597 818/85/598 817/170/599
f 817/170/599 818/85/598 820/86/586 819/173/586
f 819/173/586 820/86/586 821/87/586 822/172/586
f 823/163/581 824/164/580 787/165/589 788/27/588
f 826/164/600 827/163/601 790/27/585 789/165/584
f 808/23/597 807/171/596 829/175/602 830/174/603
f 809/171/595 810/23/594 832/174/604 833/175/605
f 488/27/206 788/27/606 801/35/607 494/35/228
f 802/166/608 787/165/609 824/164/610 479/54/244
f 788/27/606 488/27/206 682/28/209 823/163/611
f 790/27/612 486/27/225 492/35/227 800/35/613
f 486/27/225 790/27/612 827/163/614 685/28/317
f 789/165/615 799/166/616 474/59/249 826/164/617
f 792/167/618 805/168/618 477/39/231 418/40/231
f 500/37/230 806/37/619 791/38/619 489/38/230
f 598/87/230 489/38/230 791/38/619 821/87/619
f 792/167/618 418/40/231 584/88/231 822/172/618
f 583/102/245 419/56/245 793/167/620 811/172/620
f 795/37/621 498/37/229 491/38/229 794/38/621
f 796/168/620 793/167/620 419/56/245 476/57/245
f 812/87/621 794/38/621 491/38/229 596/87/229
f 798/169/620 796/168/620 476/57/245 475/58/245
f 797/36/621 495/36/229 498/37/229 795/37/621
f 799/166/616 798/169/620 475/58/245 474/59/249
f 800/35/613 492/35/227 495/36/229 797/36/621
f 804/169/618 802/166/608 479/54/244 478/55/231
f 494/35/228 801/35/607 803/36/619 497/36/230
f 805/168/618 804/169/618 478/55/231 477/39/231
f 497/36/230 803/36/619 806/37/619 500/37/230
f 589/23/295 592/85/294 818/85/622 808/23/623
f 817/170/624 586/100/309 829/175/625 807/171/626
f 808/23/623 830/174/627 749/24/296 589/23/295
f 809/171/628 833/175/629 581/104/313 816/170/630
f 810/23/631 815/85/632 590/85/292 587/23/205
f 587/23/205 754/24/204 832/174/633 810/23/631
f 814/86/621 812/87/621 596/87/229 593/86/229
f 582/103/245 583/102/245 811/172/620 813/173/620
f 816/170/630 581/104/313 582/103/245 813/173/620
f 815/85/632 814/86/621 593/86/229 590/85/292
f 592/85/294 595/86/230 820/86/619 818/85/622
f 819/173/618 585/101/231 586/100/309 817/170/624
f 822/172/618 584/88/231 585/101/231 819/173/618
f 595/86/230 598/87/230 821/87/619 820/86/619
f 825/162/634 643/128/634 694/47/385 693/130/384
f 825/162/635 479/54/244 824/164/610
f 643/128/636 823/163/611 682/28/209 681/128/373
f 644/128/637 828/162/637 688/130/381 687/47/380
f 834/176/638 833/175/605 832/174/604 712/148/638
f 474/59/249 828/162/639 826/164/617
f 711/148/640 831/176/640 762/149/440 761/93/439
f 830/174/627 711/148/641 750/148/428 749/24/296
f 831/176/642 586/100/309 608/98/308 762/149/567
f 834/176/643 712/148/643 756/93/436 755/149/435
f 581/104/313 834/176/644 755/149/563 623/98/312
f 693/130/508 510/52/243 479/54/244 825/162/635
f 827/163/601 826/164/600 828/162/645 644/128/645
f 686/128/375 685/28/317 827/163/614 644/128/646
f 525/52/248 688/130/505 828/162/639 474/59/249
f 833/175/629 834/176/644 581/104/313
f 754/24/204 753/148/430 712/148/647 832/174/633
f 829/175/625 586/100/309 831/176/642
f 830/174/603 829/175/602 831/176/648 711/148/648
